<svg xmlns="http://www.w3.org/2000/svg" width="512" height="512" viewBox="0 0 512 512" version="1.1"><path d="M 373.924 51.919 C 369.500 55.918, 369.500 55.918, 374.179 55.959 C 377.208 55.986, 379.430 55.427, 380.482 54.375 C 381.375 53.482, 381.970 51.799, 381.803 50.636 C 381.636 49.472, 380.791 48.385, 379.924 48.220 C 379.057 48.055, 376.357 49.720, 373.924 51.919 M 111.250 123.476 C 109.281 124.909, 108.997 126.013, 108.978 132.307 C 108.966 136.263, 108.082 147.150, 107.013 156.500 C 105.944 165.850, 104.414 176.188, 103.614 179.474 C 102.813 182.759, 101.673 185.609, 101.079 185.807 C 100.486 186.005, 100 187.272, 100 188.623 C 100 189.974, 99.100 192.844, 98 195 C 96.900 197.156, 96 199.569, 96 200.361 C 96 201.153, 94.879 204.209, 93.510 207.151 C 92.140 210.093, 91.015 213.519, 91.010 214.764 C 91.004 216.009, 88.695 221.409, 85.878 226.764 C 83.061 232.119, 79.595 238.525, 78.176 241 C 76.757 243.475, 75.323 245.725, 74.989 246 C 74.655 246.275, 73.240 248.570, 71.845 251.099 C 70.450 253.629, 67.102 258.755, 64.405 262.491 C 61.707 266.227, 57.668 271.357, 55.430 273.892 C 53.191 276.426, 50.280 280.075, 48.962 282 C 47.643 283.925, 41.452 290.433, 35.203 296.461 C 28.955 302.490, 22.641 308.230, 21.171 309.216 C 19.702 310.203, 17.038 311.953, 15.250 313.104 C 13.462 314.255, 12 315.568, 12 316.021 C 12 316.474, 13.463 317.311, 15.250 317.882 C 17.038 318.452, 22.775 319.629, 28 320.499 C 33.225 321.368, 42.900 323.146, 49.500 324.451 C 56.100 325.756, 63.750 327.104, 66.500 327.447 C 69.250 327.789, 76 328.927, 81.500 329.976 C 87 331.025, 97.575 333.023, 105 334.415 C 112.425 335.808, 120.750 337.385, 123.500 337.920 C 126.250 338.456, 136.825 340.527, 147 342.522 C 157.175 344.517, 168.489 346.791, 172.143 347.575 C 175.797 348.359, 180.297 349.020, 182.143 349.044 C 183.989 349.068, 187.300 349.731, 189.500 350.516 C 191.700 351.302, 195.525 352.221, 198 352.558 C 200.475 352.895, 212.625 355.147, 225 357.561 C 237.375 359.976, 252.450 363.067, 258.500 364.431 C 264.550 365.795, 272.650 367.587, 276.500 368.413 C 280.350 369.240, 287.439 370.402, 292.253 370.996 C 298.230 371.733, 302.195 371.755, 304.753 371.066 C 306.814 370.511, 311.650 367.474, 315.500 364.318 C 319.350 361.163, 326.550 355.004, 331.500 350.633 C 336.450 346.261, 343.370 339.493, 346.879 335.592 C 350.387 331.692, 356.462 324.949, 360.379 320.610 C 364.295 316.270, 369.678 309.745, 372.339 306.110 C 375.001 302.474, 378.784 296.575, 380.746 293 C 382.707 289.425, 386.452 282.900, 389.066 278.500 C 391.680 274.100, 396.286 265.550, 399.300 259.500 C 402.315 253.450, 405.082 247.375, 405.449 246 C 405.816 244.625, 407.722 239.900, 409.685 235.500 C 411.649 231.100, 414.747 224.275, 416.570 220.333 C 418.393 216.391, 421.031 209.408, 422.432 204.815 C 423.833 200.222, 425.894 191.384, 427.012 185.175 C 428.954 174.392, 428.967 173.753, 427.307 170.942 C 425.877 168.521, 424.907 168, 421.834 168 C 419.779 168, 415.714 167.528, 412.799 166.952 C 409.885 166.375, 404.575 165.066, 401 164.042 C 397.425 163.017, 390.428 161.239, 385.452 160.090 C 380.475 158.940, 375.244 158, 373.827 158 C 372.411 158, 369.369 157.336, 367.068 156.524 C 364.767 155.712, 359.256 154.593, 354.821 154.037 C 350.386 153.481, 344.449 152.381, 341.629 151.592 C 338.808 150.804, 333.350 149.438, 329.500 148.556 C 325.650 147.674, 316.200 146.068, 308.500 144.988 C 300.800 143.908, 290.159 142.351, 284.853 141.527 C 279.547 140.703, 274.031 139.582, 272.595 139.036 C 271.159 138.490, 264.926 137.554, 258.742 136.955 C 252.559 136.356, 243.675 135.208, 239 134.403 C 234.325 133.598, 225.775 132.530, 220 132.030 C 214.225 131.530, 207.475 130.678, 205 130.136 C 202.525 129.594, 195.775 128.869, 190 128.525 C 184.225 128.181, 174.325 127.273, 168 126.508 C 161.675 125.742, 150.425 124.639, 143 124.057 C 135.575 123.474, 125.900 122.737, 121.500 122.418 C 115.019 121.948, 113.073 122.149, 111.250 123.476 M 134.024 141.633 C 132.302 143.082, 129.568 146.894, 127.947 150.105 C 125.695 154.567, 125 157.309, 125 161.739 C 125 166.291, 125.543 168.334, 127.528 171.256 C 128.918 173.302, 131.056 175.180, 132.278 175.430 C 133.500 175.679, 137.445 176.075, 141.045 176.310 C 144.645 176.545, 149.010 177.471, 150.746 178.368 C 152.481 179.266, 155.845 180, 158.222 180 C 161.572 180, 163.383 179.309, 166.272 176.927 C 168.852 174.801, 170.010 173.030, 170.031 171.177 C 170.048 169.705, 171.169 166.250, 172.522 163.500 C 173.875 160.750, 174.986 157.668, 174.991 156.651 C 174.996 155.634, 174.284 153.293, 173.409 151.448 C 172.533 149.604, 170.755 146.948, 169.456 145.547 C 167.522 143.461, 166.175 143, 162.008 143 C 158.894 143, 155.400 142.224, 153 141 C 150.377 139.662, 147.106 139, 143.117 139 C 138.134 139, 136.639 139.433, 134.024 141.633 M 192.580 149.516 C 191.524 150.315, 189.840 152.213, 188.837 153.734 C 187.834 155.255, 187.010 157.502, 187.007 158.726 C 187.003 159.950, 186.102 162.425, 185.004 164.226 C 183.733 166.310, 183.006 169.269, 183.004 172.368 C 183 176.691, 183.434 177.669, 186.882 181.118 C 189.444 183.680, 191.669 185, 193.422 185 C 194.884 185, 197.844 185.900, 200 187 C 203.016 188.539, 205.894 189, 212.475 189 C 220.819 189, 221.121 188.916, 224.765 185.579 C 228.500 182.159, 228.500 182.159, 228.831 168.998 C 229.109 157.960, 228.901 155.548, 227.545 154.049 C 226.655 153.066, 223.911 151.985, 221.446 151.648 C 218.982 151.310, 215.646 150.351, 214.032 149.517 C 212.083 148.508, 208.317 148.011, 202.800 148.032 C 197.132 148.054, 193.891 148.524, 192.580 149.516 M 250.598 158.102 C 249.129 159.257, 246.628 162.774, 245.042 165.917 C 243.106 169.753, 241.927 173.973, 241.455 178.756 C 241.069 182.675, 241.049 187.058, 241.410 188.497 C 241.918 190.522, 243.549 191.778, 248.627 194.057 C 254.690 196.777, 256.068 196.998, 266.843 196.978 C 276.370 196.960, 278.892 196.640, 280.647 195.228 C 281.827 194.277, 283.740 191.605, 284.897 189.290 C 286.517 186.046, 287 183.212, 287 176.944 C 287 171.208, 286.518 167.992, 285.364 166.040 C 284.465 164.517, 282.483 162.535, 280.960 161.636 C 279.437 160.736, 276.236 159.997, 273.846 159.993 C 271.192 159.989, 268.332 159.213, 266.500 158 C 264.493 156.671, 261.807 156.011, 258.385 156.007 C 254.694 156.002, 252.526 156.585, 250.598 158.102 M 310.404 169.573 C 308.479 170.523, 305.926 173.437, 303.654 177.277 C 300.294 182.958, 300 184.078, 300 191.211 C 300 198.367, 300.226 199.222, 302.916 202.234 C 305.831 205.500, 305.831 205.500, 318.666 205.839 C 329.166 206.117, 332.060 205.878, 334.581 204.523 C 336.414 203.538, 339.149 200.325, 341.331 196.595 C 344.571 191.056, 345 189.537, 345 183.596 C 345 179.896, 344.534 175.998, 343.965 174.934 C 343.395 173.870, 342.032 173, 340.935 173 C 339.837 173, 336.267 171.875, 333 170.500 C 328.602 168.649, 325.300 168.006, 320.280 168.023 C 316.261 168.036, 312.239 168.668, 310.404 169.573 M 361.796 183.968 C 359.306 186.459, 358 188.679, 358 190.422 C 358 191.884, 357.100 194.844, 356 197 C 354.714 199.520, 354 202.894, 354 206.446 C 354 211.971, 354 211.971, 359.971 214.986 C 365.523 217.788, 366.708 218, 376.837 218 C 386.481 218, 388.045 217.753, 390.473 215.843 C 391.981 214.656, 394.517 211.889, 396.108 209.693 C 398.874 205.875, 399 205.226, 399 194.873 C 399 184.730, 398.858 183.957, 396.750 182.636 C 395.207 181.669, 389.959 181.061, 380.046 180.699 C 365.592 180.172, 365.592 180.172, 361.796 183.968 M 118.797 191.750 C 117.380 193.262, 115.271 196.395, 114.110 198.710 C 112.498 201.927, 112 204.780, 112 210.805 C 112 217.052, 112.364 219.015, 113.750 220.254 C 114.713 221.114, 117.705 222.984, 120.399 224.409 C 124.903 226.791, 126.289 227, 137.610 227 C 148.988 227, 150.077 226.834, 151.961 224.811 C 153.795 222.843, 154 221.323, 154 209.694 C 154 196.765, 154 196.765, 150.118 192.882 C 146.235 189, 146.235 189, 133.805 189 C 121.536 189, 121.341 189.036, 118.797 191.750 M 171.911 199.281 C 170.050 200.535, 168.135 202.898, 167.657 204.531 C 167.178 206.164, 165.710 210.321, 164.393 213.770 C 163.077 217.218, 162 221.178, 162 222.569 C 162 223.961, 162.684 226.423, 163.521 228.040 C 164.357 229.657, 166.814 231.885, 168.981 232.990 C 171.148 234.096, 173.817 235, 174.913 235 C 176.009 235, 178.052 235.522, 179.453 236.161 C 180.854 236.799, 182 237.699, 182 238.161 C 182 238.622, 186.505 239, 192.011 239 C 202.023 239, 202.023 239, 205.011 232.475 C 207.714 226.573, 207.999 224.973, 207.985 215.725 C 207.976 210.101, 207.626 204.960, 207.206 204.300 C 206.787 203.640, 203.218 201.727, 199.277 200.050 C 193.191 197.460, 190.841 197, 183.703 197 C 176.607 197, 174.768 197.356, 171.911 199.281 M 224.469 209.331 C 222.397 211.403, 221 213.787, 221 215.251 C 221 216.599, 219.875 219.818, 218.500 222.404 C 217.125 224.990, 216 228.716, 216 230.685 C 216 232.653, 216.948 235.797, 218.106 237.671 C 219.449 239.845, 222.334 242.150, 226.077 244.039 C 231.562 246.808, 232.688 247, 243.424 247 C 249.739 247, 256.002 246.500, 257.343 245.890 C 258.683 245.279, 260.279 243.683, 260.890 242.343 C 261.500 241.002, 262 236.697, 262 232.774 C 262 228.851, 262.487 224.260, 263.083 222.571 C 263.926 220.178, 263.832 218.718, 262.656 215.958 C 261.826 214.011, 260.102 211.945, 258.824 211.369 C 257.546 210.792, 254.250 209.497, 251.500 208.490 C 248.503 207.393, 242.782 206.499, 237.219 206.260 C 227.939 205.861, 227.939 205.861, 224.469 209.331 M 283.390 218.765 C 282.779 219.169, 281.541 220.940, 280.640 222.700 C 279.738 224.461, 279 227.063, 279 228.484 C 279 229.904, 277.859 233.319, 276.464 236.072 C 274.303 240.335, 274.074 241.608, 274.916 244.656 C 275.459 246.625, 277.359 249.535, 279.136 251.122 C 280.914 252.709, 283.974 254.454, 285.935 254.998 C 287.896 255.543, 290.688 255.991, 292.141 255.994 C 293.593 255.997, 296.743 256.890, 299.141 257.978 C 301.538 259.066, 305.217 259.966, 307.316 259.978 C 309.414 259.990, 312.114 259.494, 313.316 258.875 C 314.517 258.256, 316.512 256.828, 317.750 255.701 C 319.571 254.042, 320 252.585, 320 248.061 C 320 244.381, 320.683 241.195, 322 238.739 C 323.107 236.673, 324 233.097, 324 230.726 C 324 228.372, 323.321 225.476, 322.491 224.291 C 321.662 223.106, 318.495 221.206, 315.454 220.069 C 310.917 218.371, 307.643 218.003, 297.212 218.015 C 290.221 218.024, 284 218.361, 283.390 218.765 M 340.400 230.400 C 338.530 232.270, 336.998 234.633, 336.996 235.650 C 336.994 236.667, 336.094 238.973, 334.996 240.774 C 333.511 243.210, 333.008 245.771, 333.032 250.774 C 333.049 254.500, 333.607 258.190, 334.282 259.046 C 334.952 259.896, 336.613 261.359, 337.973 262.296 C 339.332 263.233, 341.488 264, 342.762 264 C 344.037 264, 346.844 264.900, 349 266 C 352.060 267.561, 354.894 268, 361.913 268 C 366.859 268, 372.024 267.491, 373.389 266.868 C 374.940 266.162, 377.110 263.249, 379.164 259.118 C 381.954 253.508, 382.459 251.406, 382.478 245.316 C 382.498 238.743, 382.254 237.875, 379.613 235.118 C 378.025 233.460, 374.300 230.956, 371.336 229.552 C 366.567 227.294, 364.669 227, 354.873 227 C 343.800 227, 343.800 227, 340.400 230.400 M 98.915 234.597 C 98.044 234.864, 96.554 236.527, 95.605 238.291 C 94.655 240.056, 92.343 244.200, 90.467 247.500 C 87.913 251.993, 87.049 254.710, 87.028 258.316 C 87.013 260.964, 87.466 264.003, 88.036 265.067 C 88.606 266.132, 91.304 268.134, 94.032 269.516 C 97.034 271.037, 101.462 272.242, 105.246 272.566 C 108.686 272.861, 113.116 273.578, 115.091 274.159 C 117.927 274.993, 119.295 274.895, 121.591 273.693 C 123.191 272.855, 125.513 271.214, 126.750 270.046 C 128.235 268.644, 129 266.753, 129 264.485 C 129 262.595, 129.898 259.575, 130.996 257.774 C 132.411 255.454, 132.989 252.752, 132.981 248.500 C 132.975 245.200, 132.639 242.023, 132.235 241.441 C 131.831 240.858, 129.250 239.110, 126.500 237.555 C 122.042 235.036, 120.363 234.696, 111 234.421 C 105.225 234.251, 99.787 234.330, 98.915 234.597 M 97.405 237.155 C 96.962 237.870, 97.130 238.038, 97.845 237.595 C 98.480 237.203, 99 236.684, 99 236.441 C 99 236.198, 98.802 236, 98.559 236 C 98.316 236, 97.797 236.520, 97.405 237.155 M 148.663 245.250 C 147.317 246.488, 144.142 252.232, 141.608 258.015 C 139.073 263.798, 137 269.333, 137 270.315 C 137 271.296, 137.655 273.366, 138.456 274.915 C 139.257 276.463, 141.462 278.466, 143.357 279.365 C 145.252 280.264, 148.759 281.003, 151.151 281.007 C 153.808 281.011, 156.667 281.786, 158.500 283 C 160.636 284.414, 163.195 284.989, 167.382 284.993 C 172.767 284.999, 173.527 284.718, 176.382 281.656 C 178.097 279.817, 181.188 274.266, 183.250 269.321 C 185.313 264.376, 187 258.914, 187 257.183 C 187 254.955, 186.003 253.010, 183.583 250.518 C 180.751 247.601, 179.453 247, 175.991 247 C 173.330 247, 170.893 246.275, 169.273 245 C 167.223 243.388, 165.216 243, 158.921 243 C 152.214 243, 150.766 243.318, 148.663 245.250 M 203.327 255.941 C 201.035 257.339, 198.981 260.325, 195.934 266.689 C 193.566 271.632, 191.501 277.583, 191.230 280.245 C 190.929 283.199, 191.209 285.547, 191.973 286.467 C 192.647 287.280, 195.683 289.082, 198.720 290.472 C 203.741 292.771, 205.443 293, 217.486 293 C 229.310 293, 231.009 292.781, 233.328 290.957 C 234.868 289.745, 236.204 287.428, 236.610 285.264 C 236.987 283.257, 238.150 280.165, 239.195 278.394 C 240.670 275.894, 241.029 273.643, 240.798 268.337 C 240.500 261.500, 240.500 261.500, 234.500 258.376 C 229.211 255.622, 227.197 255.179, 217.500 254.628 C 207.711 254.073, 206.151 254.218, 203.327 255.941 M 467.035 259.934 C 466.466 260.998, 466 262.393, 466 263.033 C 466 263.674, 465.392 265.616, 464.648 267.349 C 463.905 269.082, 462.730 272.750, 462.037 275.500 C 461.345 278.250, 459.705 285.450, 458.393 291.500 C 457.081 297.550, 455.773 303.512, 455.485 304.750 C 455.197 305.988, 455.420 307, 455.981 307 C 456.541 307, 457 306.362, 457 305.583 C 457 304.804, 457.940 301.991, 459.089 299.333 C 460.238 296.675, 462.282 290.900, 463.630 286.500 C 464.978 282.100, 466.963 275.181, 468.041 271.123 C 469.118 267.066, 470 262.454, 470 260.873 C 470 259.293, 469.566 258, 469.035 258 C 468.505 258, 467.605 258.870, 467.035 259.934 M 258.233 266.457 C 256.540 267.882, 253.987 272.074, 252.157 276.434 C 250.156 281.201, 249 285.645, 249 288.573 C 249 291.113, 249.749 294.460, 250.665 296.010 C 251.581 297.561, 253.494 299.360, 254.915 300.008 C 256.337 300.656, 263.387 301.434, 270.582 301.736 C 277.778 302.038, 285.227 301.992, 287.137 301.634 C 289.923 301.111, 291.049 300.144, 292.828 296.741 C 294.048 294.409, 295.964 291.061, 297.085 289.302 C 298.522 287.048, 299.177 284.196, 299.303 279.647 C 299.448 274.450, 299.094 272.754, 297.491 270.951 C 296.396 269.719, 293.125 267.651, 290.221 266.356 C 285.636 264.309, 283.381 264, 273.048 264 C 261.875 264, 260.976 264.149, 258.233 266.457 M 318.038 273.787 C 315.381 275.252, 313.351 277.998, 309.304 285.598 C 305.410 292.911, 304.028 296.582, 304.016 299.639 C 304.006 302.140, 304.693 304.603, 305.750 305.863 C 306.712 307.010, 310.738 309.310, 314.695 310.974 C 320.420 313.382, 323.340 314, 328.985 314 C 334.053 314, 337.175 313.441, 339.914 312.044 C 342.023 310.968, 344.996 308.605, 346.521 306.794 C 348.046 304.982, 351.218 299.510, 353.570 294.633 C 355.924 289.753, 357.589 285.032, 357.272 284.133 C 356.955 283.235, 355.978 281.666, 355.100 280.648 C 354.223 279.629, 352.289 278.166, 350.802 277.398 C 349.316 276.629, 345.896 276, 343.203 276 C 340.510 276, 336.786 275.241, 334.926 274.313 C 333.067 273.386, 329.285 272.458, 326.523 272.252 C 322.907 271.982, 320.531 272.412, 318.038 273.787 M 71.341 278.250 C 69.070 279.488, 64.100 283.875, 60.295 288 C 56.490 292.125, 52.618 296.613, 51.689 297.973 C 50.760 299.332, 50 301.386, 50 302.535 C 50 303.685, 51.237 305.742, 52.750 307.107 C 54.263 308.471, 57.127 310.319, 59.115 311.213 C 61.325 312.207, 67.179 313.113, 74.174 313.544 C 83.556 314.121, 86.149 313.970, 88.559 312.703 C 90.177 311.852, 93.593 308.984, 96.152 306.328 C 98.711 303.673, 102.442 298.212, 104.444 294.193 C 108.047 286.958, 108.065 286.860, 106.247 284.365 C 105.173 282.890, 101.394 280.632, 97.138 278.922 C 91.451 276.637, 88.296 276, 82.667 276 C 77.092 276, 74.538 276.507, 71.341 278.250 M 125.472 286.397 C 123.807 287.123, 121.187 289.243, 119.649 291.108 C 118.112 292.974, 115.011 297.425, 112.759 301 C 109.743 305.786, 108.547 308.847, 108.220 312.607 C 107.840 316.974, 108.109 318.024, 110.077 319.857 C 112.002 321.651, 113.610 322.004, 119.939 322.022 C 125.901 322.040, 128.029 322.458, 130 324 C 131.627 325.272, 134.072 325.961, 137 325.971 C 139.631 325.980, 142.591 325.263, 144.128 324.243 C 145.573 323.285, 148.448 320.475, 150.515 318 C 152.583 315.525, 155.113 311.550, 156.137 309.167 C 157.189 306.720, 158 302.484, 158 299.434 C 158 294.034, 158 294.034, 153.033 291.517 C 149.516 289.734, 146.461 289, 142.564 289 C 138.914 289, 135.861 288.326, 133.500 287 C 131.542 285.900, 129.615 285.018, 129.220 285.039 C 128.824 285.061, 127.138 285.672, 125.472 286.397 M 177.461 298.003 C 176.339 298.430, 173.752 300.817, 171.711 303.308 C 169.670 305.799, 168 308.254, 168 308.763 C 168 309.273, 167.176 310.436, 166.168 311.348 C 165.160 312.260, 163.272 316.190, 161.973 320.082 C 160.226 325.312, 159.881 327.593, 160.649 328.829 C 161.220 329.748, 163.174 331.512, 164.992 332.750 C 166.880 334.036, 169.839 335.009, 171.898 335.022 C 173.879 335.034, 177.462 335.934, 179.859 337.022 C 182.426 338.187, 186.374 339, 189.461 339 C 193.250 339, 195.647 338.370, 198.102 336.728 C 200.355 335.221, 203.268 331.261, 206.747 324.978 C 210.108 318.906, 211.994 314.308, 211.997 312.184 C 211.998 310.361, 211.568 308.062, 211.041 307.076 C 210.513 306.090, 208.825 304.432, 207.291 303.392 C 205.285 302.032, 201.968 301.341, 195.500 300.936 C 190.550 300.626, 184.925 299.665, 183 298.800 C 180.829 297.824, 178.726 297.522, 177.461 298.003 M 452.608 313.500 C 451.656 316.800, 450.462 320.400, 449.956 321.500 C 449.450 322.600, 448.589 325.525, 448.042 328 C 447.496 330.475, 447.038 333.603, 447.024 334.950 C 447.009 336.455, 447.352 337.034, 447.914 336.450 C 448.416 335.928, 450.235 329.915, 451.956 323.089 C 453.677 316.263, 454.917 309.963, 454.712 309.089 C 454.508 308.215, 453.561 310.200, 452.608 313.500 M 227.372 316.393 C 222.196 321.209, 219.945 324.176, 218.250 328.417 C 217.012 331.513, 216 335.699, 216 337.719 C 216 340.341, 216.768 342.192, 218.687 344.195 C 220.899 346.504, 222.222 347, 226.163 347 C 229.189 347, 232.157 347.735, 234.226 348.996 C 236.027 350.094, 238.900 350.994, 240.612 350.996 C 242.323 350.998, 246.724 349.639, 250.391 347.977 C 256.015 345.427, 257.153 344.487, 257.655 341.977 C 257.982 340.339, 258.844 339, 259.569 339 C 260.295 339, 262.023 337.988, 263.409 336.750 C 265.696 334.708, 265.951 333.690, 266.163 325.748 C 266.311 320.191, 265.976 316.576, 265.247 315.847 C 264.615 315.215, 261.938 314.343, 259.299 313.908 C 256.659 313.474, 251.999 313.092, 248.941 313.060 C 245.688 313.025, 242.577 312.391, 241.441 311.532 C 240.374 310.724, 238.317 310.049, 236.872 310.032 C 235 310.009, 232.265 311.841, 227.372 316.393 M 284.073 323.927 C 282.933 325.067, 282 326.388, 282 326.862 C 282 327.337, 280.601 329.474, 278.891 331.612 C 277.181 333.751, 274.685 337.966, 273.344 340.980 C 271.870 344.295, 271.024 347.848, 271.203 349.973 C 271.426 352.609, 272.146 353.794, 274.089 354.720 C 275.981 355.622, 280.631 355.784, 291.342 355.322 C 306.005 354.688, 306.005 354.688, 310.169 350.844 C 312.459 348.730, 314.872 347, 315.532 347 C 316.191 347, 317.895 346.084, 319.319 344.964 C 320.742 343.844, 323.330 340.820, 325.069 338.243 C 327.623 334.459, 328.064 333.072, 327.363 331.029 C 326.776 329.316, 324.561 327.537, 320.498 325.515 C 314.832 322.695, 313.714 322.511, 300.323 322.192 C 287.070 321.877, 286.010 321.990, 284.073 323.927 M 381.079 326.583 C 381.127 327.748, 381.364 327.985, 381.683 327.188 C 381.972 326.466, 381.936 325.603, 381.604 325.271 C 381.272 324.939, 381.036 325.529, 381.079 326.583 M 378.715 334.055 C 377.772 336.232, 377 338.408, 377 338.891 C 377 339.373, 375.224 344.035, 373.053 349.252 C 370.882 354.468, 368.226 360.483, 367.151 362.618 C 366.077 364.753, 364.387 368.300, 363.397 370.500 C 362.406 372.700, 359.694 377.493, 357.369 381.150 C 355.044 384.808, 351.956 388.633, 350.508 389.650 C 349.060 390.668, 346.603 392.511, 345.048 393.746 C 343.492 394.982, 339.462 397.361, 336.090 399.034 C 332.719 400.707, 327.462 402.537, 324.409 403.102 C 320.129 403.893, 316.778 403.771, 309.788 402.570 C 304.801 401.713, 300.167 400.553, 299.490 399.992 C 298.814 399.431, 291.565 398.530, 283.380 397.991 C 275.196 397.451, 265.800 396.351, 262.500 395.547 C 259.200 394.742, 253.905 393.158, 250.733 392.027 C 247.317 390.809, 239.071 389.378, 230.499 388.517 C 222.542 387.717, 212.312 386.172, 207.766 385.083 C 203.220 383.995, 193.155 382.002, 185.400 380.655 C 177.645 379.309, 169.878 377.471, 168.140 376.572 C 166.279 375.610, 159.328 374.343, 151.239 373.492 C 143.683 372.697, 130.075 370.502, 121 368.613 C 111.925 366.725, 101.350 364.632, 97.500 363.962 C 93.650 363.293, 87.125 361.713, 83 360.453 C 78.875 359.192, 72.800 357.633, 69.500 356.989 C 66.200 356.344, 62.535 355.204, 61.355 354.454 C 59.419 353.224, 59.152 353.306, 58.618 355.296 C 58.293 356.508, 58.021 366.557, 58.014 377.628 C 58.002 394.464, 57.750 397.963, 56.470 399.025 C 55.115 400.149, 55.187 400.526, 57.102 402.309 C 58.969 404.049, 61.256 404.429, 73.882 405.096 C 81.922 405.520, 97.502 406.113, 108.504 406.413 C 119.506 406.713, 130.919 407.416, 133.867 407.975 C 136.815 408.534, 148.513 409.445, 159.863 410 C 171.213 410.555, 184.100 411.655, 188.500 412.444 C 192.900 413.234, 202.575 414.167, 210 414.518 C 217.425 414.869, 226.744 415.796, 230.708 416.578 C 234.672 417.360, 241.197 418.004, 245.208 418.008 C 249.219 418.013, 256.550 418.473, 261.500 419.031 C 266.450 419.589, 271.850 420.475, 273.500 421.001 C 275.150 421.526, 283.700 422.381, 292.500 422.901 C 301.300 423.420, 309.838 424.357, 311.474 424.983 C 313.109 425.609, 320.759 426.347, 328.474 426.623 C 336.188 426.900, 344.975 427.619, 348 428.221 C 351.025 428.823, 356.048 429.508, 359.163 429.742 C 364.826 430.169, 364.826 430.169, 366.496 422.334 C 367.414 418.025, 368.579 413.141, 369.084 411.480 C 369.590 409.820, 370.641 403.520, 371.422 397.480 C 372.202 391.441, 373.797 380.650, 374.966 373.500 C 376.135 366.350, 377.985 355.999, 379.077 350.498 C 380.170 344.997, 381.106 338.342, 381.159 335.709 C 381.212 333.076, 381.070 330.736, 380.843 330.509 C 380.616 330.282, 379.658 331.878, 378.715 334.055 M 444.750 345.875 C 444.337 347.731, 444.029 350.431, 444.063 351.875 C 444.127 354.500, 444.127 354.500, 445.111 352.034 C 445.652 350.678, 445.961 347.978, 445.798 346.034 C 445.500 342.500, 445.500 342.500, 444.750 345.875 M 436.764 390 C 436.359 391.375, 436.035 394.300, 436.044 396.500 C 436.058 399.712, 436.263 400.153, 437.085 398.742 C 437.648 397.774, 437.972 394.849, 437.804 392.242 C 437.555 388.359, 437.367 387.953, 436.764 390 M 431.585 414 C 431.188 416.475, 431.293 419.625, 431.819 421 C 432.744 423.419, 432.798 423.377, 433.512 419.680 C 433.917 417.578, 433.812 414.428, 433.279 412.680 C 432.308 409.500, 432.308 409.500, 431.585 414" stroke="none" fill="#bdc9c8" fill-rule="evenodd"/><path d="M 205.559 16.532 C 204.491 17.339, 202.786 18, 201.769 18 C 200.752 18, 198.174 18.891, 196.040 19.980 C 193.906 21.068, 189.649 24.919, 186.580 28.536 C 183.511 32.154, 181 35.601, 181 36.196 C 181 36.792, 179.722 39.356, 178.160 41.894 C 175.952 45.482, 175.161 48.289, 174.602 54.505 C 174.207 58.902, 173.235 63.497, 172.442 64.715 C 171.367 66.366, 171 70.355, 171 80.383 C 171 93.837, 171 93.837, 174.368 95.918 C 176.992 97.540, 179.366 97.997, 185.118 97.985 C 189.178 97.976, 193.104 97.586, 193.843 97.118 C 194.582 96.650, 195.507 93.545, 195.900 90.219 C 196.292 86.893, 197.213 83.448, 197.947 82.564 C 198.765 81.578, 199.472 77.193, 199.775 71.228 C 200.254 61.778, 200.422 61.211, 205.654 51.379 C 210.813 41.683, 211.295 41.121, 217.121 38.016 C 222.473 35.164, 223.380 34.951, 224.673 36.245 C 225.967 37.539, 225.905 38.108, 224.153 40.988 C 223.059 42.788, 222.399 44.877, 222.688 45.631 C 223.070 46.626, 225.317 47, 230.907 47 C 235.557 47, 239.075 46.525, 239.800 45.800 C 240.460 45.140, 241 43.195, 241 41.478 C 241 39.760, 239.639 35.843, 237.976 32.773 C 236.313 29.702, 233.175 25.584, 231.002 23.620 C 228.828 21.657, 225.802 19.780, 224.275 19.450 C 222.749 19.119, 219.302 17.983, 216.617 16.924 C 213.931 15.866, 210.781 15.014, 209.617 15.032 C 208.452 15.049, 206.626 15.724, 205.559 16.532 M 375.500 44.658 C 373.850 45.525, 369.855 48.995, 366.621 52.367 C 362.649 56.511, 359.487 61.156, 356.871 66.689 C 354.742 71.193, 353 76.155, 353 77.716 C 353 79.278, 352.292 81.566, 351.426 82.802 C 350.275 84.445, 349.715 88.471, 349.342 97.775 C 349.061 104.774, 349.212 112.975, 349.678 116 C 350.524 121.500, 350.524 121.500, 358.968 122.323 C 363.612 122.775, 368.857 122.874, 370.623 122.543 C 373.832 121.941, 373.835 121.934, 374.520 114.220 C 374.897 109.974, 375.764 105.600, 376.446 104.500 C 377.128 103.400, 377.976 99.676, 378.330 96.225 C 378.685 92.774, 379.655 88.634, 380.487 87.025 C 381.319 85.416, 382.464 81.940, 383.031 79.300 C 383.786 75.785, 385.249 73.262, 388.497 69.876 C 391.502 66.742, 394.558 64.720, 397.983 63.600 C 401.745 62.370, 403.541 62.219, 405.017 63.009 C 406.108 63.593, 407 64.392, 407 64.785 C 407 65.178, 405.313 66.932, 403.250 68.682 C 399.500 71.865, 399.500 71.865, 401.776 74.182 C 403.767 76.209, 405.021 76.500, 411.776 76.500 C 419.500 76.500, 419.500 76.500, 419.814 72.120 C 420.057 68.722, 419.335 66.115, 416.591 60.487 C 414.227 55.639, 411.400 51.747, 408.067 48.750 C 405.324 46.284, 401.655 43.981, 399.915 43.633 C 398.174 43.285, 392.644 43.018, 387.625 43.040 C 381.315 43.068, 377.575 43.567, 375.500 44.658 M 373.924 51.919 C 369.500 55.918, 369.500 55.918, 374.179 55.959 C 377.208 55.986, 379.430 55.427, 380.482 54.375 C 381.375 53.482, 381.970 51.799, 381.803 50.636 C 381.636 49.472, 380.791 48.385, 379.924 48.220 C 379.057 48.055, 376.357 49.720, 373.924 51.919 M 121.098 57.265 C 119.776 57.944, 117.301 60.228, 115.598 62.340 C 112.500 66.180, 112.500 66.180, 111.941 88.840 C 111.634 101.303, 111.663 111.844, 112.005 112.264 C 112.347 112.684, 119.799 113.253, 128.564 113.528 C 137.329 113.804, 146.300 114.441, 148.500 114.944 C 150.700 115.447, 159.700 116.379, 168.500 117.014 C 177.300 117.649, 186.985 118.791, 190.023 119.553 C 193.060 120.314, 200.710 121.211, 207.023 121.547 C 213.335 121.882, 221.650 122.806, 225.500 123.600 C 229.350 124.394, 238.125 125.765, 245 126.647 C 251.875 127.529, 262.675 128.573, 269 128.968 C 275.325 129.362, 281.625 130.175, 283 130.773 C 284.375 131.372, 292.700 132.817, 301.500 133.985 C 310.300 135.153, 321.775 136.740, 327 137.512 C 332.225 138.284, 341.225 139.845, 347 140.981 C 352.775 142.117, 360.650 143.660, 364.500 144.411 C 368.350 145.161, 377.350 146.756, 384.500 147.956 C 391.650 149.155, 400.650 151.005, 404.500 152.066 C 408.350 153.127, 414.170 154.446, 417.434 154.997 C 420.697 155.549, 424.972 155.993, 426.934 155.985 C 429.531 155.974, 431.480 155.091, 434.106 152.735 C 437.241 149.922, 438.316 147.606, 442.338 135 C 444.883 127.025, 447.397 118.700, 447.926 116.500 C 448.454 114.300, 449.340 110.700, 449.894 108.500 C 450.448 106.300, 451.876 103.710, 453.068 102.744 C 454.780 101.358, 454.990 100.692, 454.067 99.581 C 453.420 98.802, 450.352 97.962, 447.199 97.701 C 444.065 97.442, 438.350 96.508, 434.500 95.625 C 430.650 94.742, 420.975 92.857, 413 91.435 C 404.661 89.949, 396.437 89.037, 393.643 89.289 C 390.972 89.530, 388.416 90.327, 387.963 91.060 C 387.510 91.793, 387.591 93.235, 388.142 94.265 C 388.693 95.295, 391.249 98.475, 393.822 101.331 C 396.395 104.187, 399.567 108.833, 400.871 111.655 C 403.242 116.786, 403.242 116.786, 400.371 122.117 C 398.387 125.801, 395.825 128.615, 392.079 131.224 C 386.658 135, 386.658 135, 370.338 135 C 354.017 135, 354.017 135, 344.199 130.004 C 338.800 127.256, 333.059 123.627, 331.441 121.938 C 328.765 119.144, 328.506 118.266, 328.572 112.184 C 328.617 107.965, 329.268 104.309, 330.337 102.270 C 331.268 100.494, 334.049 96.563, 336.515 93.534 C 340.581 88.543, 341 87.529, 341 82.688 C 341 78.439, 340.541 76.921, 338.750 75.253 C 336.999 73.622, 334.836 73.060, 329 72.723 C 324.875 72.484, 316.692 71.575, 310.815 70.703 C 304.939 69.830, 297.770 68.415, 294.884 67.558 C 291.668 66.603, 285.740 65.995, 279.568 65.988 C 273.683 65.981, 267.215 65.345, 264 64.458 C 260.975 63.623, 253.775 62.287, 248 61.489 C 242.225 60.692, 232.610 60.030, 226.632 60.020 C 215.765 60, 215.765 60, 211.882 63.882 C 209.747 66.018, 208 68.725, 208 69.899 C 208 71.108, 209.897 73.870, 212.373 76.267 C 214.778 78.595, 217.478 81.940, 218.373 83.700 C 219.288 85.500, 220 89.296, 220 92.373 C 220 97.151, 219.609 98.237, 216.923 100.923 C 215.231 102.615, 213.451 104, 212.967 104 C 212.484 104, 209.798 105.350, 207 107 C 201.974 109.963, 201.734 110, 187.342 110 C 174.888 110, 172.244 109.720, 169.136 108.075 C 167.136 107.017, 164.190 105.865, 162.590 105.516 C 160.989 105.167, 157.687 102.917, 155.251 100.516 C 152.411 97.716, 150.521 94.808, 149.979 92.406 C 149.514 90.347, 149.387 86.529, 149.695 83.923 C 150.145 80.130, 151.034 78.419, 154.156 75.342 C 156.300 73.229, 158.942 69.830, 160.027 67.790 C 161.112 65.749, 162 62.262, 162 60.040 C 162 56, 162 56, 142.750 56.015 C 129.462 56.025, 122.756 56.412, 121.098 57.265 M 456.769 106.614 C 456.484 107.101, 455.940 112, 455.559 117.500 C 455.179 123, 454.635 129.300, 454.352 131.500 C 454.069 133.700, 453.242 137.575, 452.514 140.111 C 451.786 142.648, 450.712 145.573, 450.127 146.611 C 449.542 147.650, 448.340 150.750, 447.457 153.500 C 446.573 156.250, 445.597 160.630, 445.288 163.232 C 444.814 167.225, 445.314 169.335, 448.489 176.732 C 450.559 181.555, 456.422 194.275, 461.518 205 C 466.614 215.725, 471.265 226.525, 471.853 229 C 472.441 231.475, 473.210 235.003, 473.561 236.840 C 474.034 239.318, 474.985 240.511, 477.248 241.462 C 480.298 242.745, 480.298 242.745, 485.587 232.122 C 488.495 226.280, 492.766 217.119, 495.077 211.765 C 499.279 202.029, 499.279 202.029, 497.139 196.881 C 495.963 194.050, 495 191.124, 495 190.380 C 495 189.635, 492.908 184.633, 490.351 179.263 C 487.794 173.893, 485.155 168.375, 484.487 167 C 483.818 165.625, 482.968 163.227, 482.597 161.670 C 482.226 160.114, 480.139 155.166, 477.961 150.675 C 475.782 146.183, 474 141.726, 474 140.769 C 474 139.812, 472.538 136.198, 470.750 132.739 C 468.962 129.280, 466.535 124.211, 465.356 121.475 C 464.176 118.739, 462.698 115.150, 462.071 113.500 C 461.444 111.850, 460.111 109.426, 459.108 108.114 C 458.106 106.802, 457.053 106.127, 456.769 106.614 M 110.687 120.805 C 108.304 123.293, 107.998 124.394, 107.980 130.555 C 107.970 134.375, 107.314 142.225, 106.524 148 C 105.733 153.775, 104.630 160.027, 104.072 161.893 C 103.514 163.760, 102.755 168.710, 102.385 172.893 C 102.015 177.077, 101.102 181.388, 100.356 182.473 C 99.610 183.557, 99 185.502, 99 186.794 C 99 188.086, 98.325 189.818, 97.500 190.643 C 96.675 191.468, 96 193.227, 96 194.552 C 96 195.876, 94.826 200.007, 93.391 203.730 C 91.956 207.454, 89.369 213.619, 87.641 217.430 C 85.914 221.242, 81.707 229.567, 78.293 235.930 C 74.878 242.294, 71.355 248.400, 70.464 249.500 C 69.572 250.600, 67.689 253.750, 66.280 256.500 C 64.871 259.250, 62.094 263.522, 60.109 265.993 C 58.124 268.464, 54.082 273.414, 51.127 276.993 C 48.172 280.572, 41.197 287.881, 35.627 293.235 C 30.057 298.589, 23.736 304.214, 21.580 305.735 C 19.424 307.256, 16.482 309.625, 15.042 311 C 13.601 312.375, 11.540 314.016, 10.461 314.647 C 8.883 315.570, 8.714 316.151, 9.595 317.625 C 10.421 319.006, 13.733 320.007, 23.095 321.702 C 29.918 322.938, 40 324.834, 45.500 325.915 C 51 326.995, 57.750 328.175, 60.500 328.535 C 63.250 328.896, 67.975 329.790, 71 330.523 C 74.025 331.255, 80.100 332.366, 84.500 332.991 C 88.900 333.616, 97.900 335.243, 104.500 336.607 C 111.100 337.970, 118.975 339.532, 122 340.076 C 125.025 340.621, 131.550 341.919, 136.500 342.962 C 141.450 344.005, 150.675 345.769, 157 346.882 C 163.325 347.995, 170.975 349.168, 174 349.489 C 177.025 349.810, 181.525 350.713, 184 351.495 C 186.475 352.277, 192.325 353.599, 197 354.433 C 201.675 355.267, 209.550 356.894, 214.500 358.048 C 219.450 359.202, 227.550 360.768, 232.500 361.528 C 237.450 362.288, 246.675 364.059, 253 365.464 C 259.325 366.869, 270.800 369.207, 278.500 370.659 C 286.200 372.111, 295.059 373.495, 298.186 373.735 C 303.311 374.128, 304.476 373.817, 310.009 370.574 C 313.385 368.595, 320.052 363.744, 324.824 359.793 C 329.596 355.842, 338.450 347.614, 344.500 341.509 C 350.550 335.403, 358.200 327.320, 361.500 323.546 C 364.800 319.772, 370.425 312.718, 374 307.872 C 377.575 303.025, 381.600 296.909, 382.944 294.280 C 384.288 291.651, 388.155 284.775, 391.537 279 C 394.919 273.225, 399.325 265.464, 401.328 261.754 C 403.330 258.043, 407.632 248.368, 410.886 240.254 C 414.140 232.139, 418.430 221.601, 420.420 216.835 C 422.409 212.070, 425.606 201.875, 427.524 194.181 C 429.443 186.486, 431.295 178.129, 431.640 175.609 C 432.058 172.563, 431.847 170.521, 431.012 169.514 C 430.321 168.681, 428.910 168, 427.878 168 C 426.845 168, 426 168.241, 426 168.535 C 426 168.830, 426.690 170.124, 427.534 171.412 C 428.926 173.536, 428.878 174.811, 427.024 185.109 C 425.899 191.355, 423.833 200.222, 422.432 204.815 C 421.031 209.408, 418.393 216.391, 416.570 220.333 C 414.747 224.275, 411.649 231.100, 409.685 235.500 C 407.722 239.900, 405.816 244.625, 405.449 246 C 405.082 247.375, 402.315 253.450, 399.300 259.500 C 396.286 265.550, 391.680 274.100, 389.066 278.500 C 386.452 282.900, 382.707 289.425, 380.746 293 C 378.784 296.575, 375.001 302.474, 372.339 306.110 C 369.678 309.745, 364.295 316.270, 360.379 320.610 C 356.462 324.949, 350.387 331.692, 346.879 335.592 C 343.370 339.493, 336.450 346.261, 331.500 350.633 C 326.550 355.004, 319.350 361.163, 315.500 364.318 C 311.650 367.474, 306.814 370.511, 304.753 371.066 C 302.195 371.755, 298.230 371.733, 292.253 370.996 C 287.439 370.402, 280.350 369.240, 276.500 368.413 C 272.650 367.587, 264.550 365.795, 258.500 364.431 C 252.450 363.067, 237.375 359.976, 225 357.561 C 212.625 355.147, 200.475 352.895, 198 352.558 C 195.525 352.221, 191.700 351.302, 189.500 350.516 C 187.300 349.731, 183.989 349.068, 182.143 349.044 C 180.297 349.020, 175.797 348.359, 172.143 347.575 C 168.489 346.791, 157.175 344.517, 147 342.522 C 136.825 340.527, 126.250 338.456, 123.500 337.920 C 120.750 337.385, 112.425 335.808, 105 334.415 C 97.575 333.023, 87 331.025, 81.500 329.976 C 76 328.927, 69.250 327.789, 66.500 327.447 C 63.750 327.104, 56.100 325.756, 49.500 324.451 C 42.900 323.146, 33.225 321.368, 28 320.499 C 22.775 319.629, 17.038 318.452, 15.250 317.882 C 13.463 317.311, 12 316.474, 12 316.021 C 12 315.568, 13.462 314.255, 15.250 313.104 C 17.038 311.953, 19.702 310.203, 21.171 309.216 C 22.641 308.230, 28.955 302.490, 35.203 296.461 C 41.452 290.433, 47.643 283.925, 48.962 282 C 50.280 280.075, 53.191 276.426, 55.430 273.892 C 57.668 271.357, 61.707 266.227, 64.405 262.491 C 67.102 258.755, 70.450 253.629, 71.845 251.099 C 73.240 248.570, 74.655 246.275, 74.989 246 C 75.323 245.725, 76.757 243.475, 78.176 241 C 79.595 238.525, 83.061 232.119, 85.878 226.764 C 88.695 221.409, 91.004 216.009, 91.010 214.764 C 91.015 213.519, 92.140 210.093, 93.510 207.151 C 94.879 204.209, 96 201.153, 96 200.361 C 96 199.569, 96.900 197.156, 98 195 C 99.100 192.844, 100 189.974, 100 188.623 C 100 187.272, 100.486 186.005, 101.079 185.807 C 101.673 185.609, 102.813 182.759, 103.614 179.474 C 104.414 176.188, 105.944 165.850, 107.013 156.500 C 108.082 147.150, 108.966 136.248, 108.978 132.273 C 108.998 125.672, 109.217 124.904, 111.510 123.402 C 113.765 121.924, 115.466 121.877, 128.260 122.939 C 136.092 123.589, 147.870 124.539, 154.434 125.050 C 160.997 125.561, 168.872 126.397, 171.934 126.908 C 174.995 127.420, 182.675 128.127, 189 128.480 C 195.325 128.833, 202.525 129.572, 205 130.121 C 207.475 130.671, 214.225 131.530, 220 132.030 C 225.775 132.530, 234.325 133.598, 239 134.403 C 243.675 135.208, 252.559 136.356, 258.742 136.955 C 264.926 137.554, 271.159 138.490, 272.595 139.036 C 274.031 139.582, 279.547 140.703, 284.853 141.527 C 290.159 142.351, 300.800 143.908, 308.500 144.988 C 316.200 146.068, 325.650 147.674, 329.500 148.556 C 333.350 149.438, 338.808 150.804, 341.629 151.592 C 344.449 152.381, 350.386 153.481, 354.821 154.037 C 359.256 154.593, 364.767 155.712, 367.068 156.524 C 369.369 157.336, 372.411 158, 373.827 158 C 375.244 158, 380.475 158.940, 385.452 160.090 C 390.428 161.239, 397.425 163.017, 401 164.042 C 404.575 165.066, 409.885 166.375, 412.799 166.952 C 415.714 167.528, 419.539 167.959, 421.299 167.909 C 424.020 167.831, 423.600 167.534, 418.500 165.930 C 415.200 164.891, 408.675 163.329, 404 162.459 C 399.325 161.588, 393.250 160.249, 390.500 159.483 C 387.750 158.718, 378.525 156.672, 370 154.938 C 361.475 153.204, 348.200 150.464, 340.500 148.850 C 332.800 147.236, 322.450 145.287, 317.500 144.518 C 312.550 143.750, 303.325 142.175, 297 141.019 C 290.675 139.862, 279.875 138.028, 273 136.943 C 266.125 135.857, 256.450 134.326, 251.500 133.540 C 246.550 132.753, 238 131.626, 232.500 131.034 C 227 130.442, 220.025 129.550, 217 129.052 C 213.975 128.554, 208.459 128.113, 204.742 128.073 C 201.025 128.033, 191.575 127.126, 183.742 126.058 C 175.909 124.991, 164.100 123.848, 157.500 123.519 C 150.900 123.191, 138.914 121.814, 130.864 120.461 C 122.814 119.107, 115.586 118, 114.801 118 C 114.016 118, 112.165 119.262, 110.687 120.805 M 134.024 141.633 C 132.302 143.082, 129.568 146.894, 127.947 150.105 C 125.695 154.567, 125 157.309, 125 161.739 C 125 166.291, 125.543 168.334, 127.528 171.256 C 128.918 173.302, 131.056 175.180, 132.278 175.430 C 133.500 175.679, 137.445 176.075, 141.045 176.310 C 144.645 176.545, 149.010 177.471, 150.746 178.368 C 152.481 179.266, 155.845 180, 158.222 180 C 161.572 180, 163.383 179.309, 166.272 176.927 C 168.852 174.801, 170.010 173.030, 170.031 171.177 C 170.048 169.705, 171.169 166.250, 172.522 163.500 C 173.875 160.750, 174.986 157.668, 174.991 156.651 C 174.996 155.634, 174.284 153.293, 173.409 151.448 C 172.533 149.604, 170.755 146.948, 169.456 145.547 C 167.522 143.461, 166.175 143, 162.008 143 C 158.894 143, 155.400 142.224, 153 141 C 150.377 139.662, 147.106 139, 143.117 139 C 138.134 139, 136.639 139.433, 134.024 141.633 M 192.580 149.516 C 191.524 150.315, 189.840 152.213, 188.837 153.734 C 187.834 155.255, 187.010 157.502, 187.007 158.726 C 187.003 159.950, 186.102 162.425, 185.004 164.226 C 183.733 166.310, 183.006 169.269, 183.004 172.368 C 183 176.691, 183.434 177.669, 186.882 181.118 C 189.444 183.680, 191.669 185, 193.422 185 C 194.884 185, 197.844 185.900, 200 187 C 203.016 188.539, 205.894 189, 212.475 189 C 220.819 189, 221.121 188.916, 224.765 185.579 C 228.500 182.159, 228.500 182.159, 228.831 168.998 C 229.109 157.960, 228.901 155.548, 227.545 154.049 C 226.655 153.066, 223.911 151.985, 221.446 151.648 C 218.982 151.310, 215.646 150.351, 214.032 149.517 C 212.083 148.508, 208.317 148.011, 202.800 148.032 C 197.132 148.054, 193.891 148.524, 192.580 149.516 M 250.598 158.102 C 249.129 159.257, 246.628 162.774, 245.042 165.917 C 243.106 169.753, 241.927 173.973, 241.455 178.756 C 241.069 182.675, 241.049 187.058, 241.410 188.497 C 241.918 190.522, 243.549 191.778, 248.627 194.057 C 254.690 196.777, 256.068 196.998, 266.843 196.978 C 276.370 196.960, 278.892 196.640, 280.647 195.228 C 281.827 194.277, 283.740 191.605, 284.897 189.290 C 286.517 186.046, 287 183.212, 287 176.944 C 287 171.208, 286.518 167.992, 285.364 166.040 C 284.465 164.517, 282.483 162.535, 280.960 161.636 C 279.437 160.736, 276.236 159.997, 273.846 159.993 C 271.192 159.989, 268.332 159.213, 266.500 158 C 264.493 156.671, 261.807 156.011, 258.385 156.007 C 254.694 156.002, 252.526 156.585, 250.598 158.102 M 310.404 169.573 C 308.479 170.523, 305.926 173.437, 303.654 177.277 C 300.294 182.958, 300 184.078, 300 191.211 C 300 198.367, 300.226 199.222, 302.916 202.234 C 305.831 205.500, 305.831 205.500, 318.666 205.839 C 329.166 206.117, 332.060 205.878, 334.581 204.523 C 336.414 203.538, 339.149 200.325, 341.331 196.595 C 344.571 191.056, 345 189.537, 345 183.596 C 345 179.896, 344.534 175.998, 343.965 174.934 C 343.395 173.870, 342.032 173, 340.935 173 C 339.837 173, 336.267 171.875, 333 170.500 C 328.602 168.649, 325.300 168.006, 320.280 168.023 C 316.261 168.036, 312.239 168.668, 310.404 169.573 M 361.796 183.968 C 359.306 186.459, 358 188.679, 358 190.422 C 358 191.884, 357.100 194.844, 356 197 C 354.714 199.520, 354 202.894, 354 206.446 C 354 211.971, 354 211.971, 359.971 214.986 C 365.523 217.788, 366.708 218, 376.837 218 C 386.481 218, 388.045 217.753, 390.473 215.843 C 391.981 214.656, 394.517 211.889, 396.108 209.693 C 398.874 205.875, 399 205.226, 399 194.873 C 399 184.730, 398.858 183.957, 396.750 182.636 C 395.207 181.669, 389.959 181.061, 380.046 180.699 C 365.592 180.172, 365.592 180.172, 361.796 183.968 M 437.578 191.123 C 437.204 193.941, 434.387 203.728, 431.318 212.873 C 428.248 222.018, 424.896 231.412, 423.868 233.750 C 422.841 236.088, 421.100 240.020, 420 242.489 C 418.900 244.958, 418 247.366, 418 247.839 C 418 248.313, 415.719 252.898, 412.930 258.030 C 410.142 263.162, 408.050 268.081, 408.280 268.963 C 408.511 269.845, 408.127 274.826, 407.428 280.033 C 406.728 285.240, 404.790 295.800, 403.121 303.500 C 401.452 311.200, 398.717 323.267, 397.043 330.316 C 395.369 337.365, 394 344.919, 394 347.102 C 394 349.286, 392.910 356.119, 391.579 362.286 C 390.247 368.454, 388.198 379.350, 387.025 386.500 C 385.853 393.650, 383.812 404.225, 382.489 410 C 381.167 415.775, 379.555 424.325, 378.907 429 C 378.023 435.374, 378.012 438.500, 378.861 441.500 C 379.483 443.700, 380.890 446.625, 381.987 448 C 383.083 449.375, 386.350 453.650, 389.246 457.500 C 392.143 461.350, 395.266 465.674, 396.187 467.110 C 397.108 468.545, 398.510 470.367, 399.301 471.159 C 400.093 471.950, 401.436 473.926, 402.285 475.549 C 403.135 477.172, 404.656 479.425, 405.665 480.555 C 406.674 481.685, 407.950 483.330, 408.500 484.211 C 409.050 485.093, 411.451 488.668, 413.836 492.157 C 416.220 495.646, 418.769 498.838, 419.500 499.252 C 420.230 499.665, 421.542 499.729, 422.414 499.395 C 423.286 499.060, 424 498.159, 424 497.393 C 424 496.627, 424.466 496, 425.036 496 C 425.605 496, 426.891 494.087, 427.892 491.750 C 429.230 488.630, 430.029 482.583, 430.898 469 C 431.550 458.825, 433.001 444.425, 434.122 437 C 435.243 429.575, 437.024 419.885, 438.080 415.468 C 439.136 411.050, 440.008 405.650, 440.017 403.468 C 440.027 401.285, 440.702 396.350, 441.517 392.500 C 442.333 388.651, 443 383.530, 443 381.121 C 443 378.712, 443.890 373.311, 444.977 369.120 C 446.064 364.929, 448.366 355.875, 450.092 349 C 451.818 342.125, 453.630 334.475, 454.119 332 C 454.607 329.525, 455.672 325.475, 456.485 323 C 457.297 320.525, 459.307 314, 460.950 308.500 C 462.593 303, 465.530 292.425, 467.475 285 C 469.421 277.575, 471.765 269.786, 472.685 267.690 C 474.327 263.950, 474.307 263.782, 471.598 258.431 C 470.080 255.434, 468.456 253.218, 467.988 253.507 C 467.521 253.796, 466.851 253.568, 466.500 253 C 466.149 252.432, 465.452 252.220, 464.952 252.530 C 464.451 252.839, 462.682 257.441, 461.021 262.756 C 459.359 268.072, 458 273.175, 458 274.098 C 458 275.020, 455.801 282.471, 453.113 290.656 C 450.425 298.841, 447.098 310.929, 445.719 317.519 C 444.340 324.108, 442.701 332.875, 442.077 337 C 441.454 341.125, 440.275 348.705, 439.457 353.844 C 438.639 358.983, 437.593 363.933, 437.134 364.844 C 436.674 365.755, 435.772 369.200, 435.129 372.500 C 434.486 375.800, 432.408 386.401, 430.511 396.058 C 428.615 405.716, 426.587 417.816, 426.006 422.949 C 425.424 428.082, 424.306 434.356, 423.521 436.891 C 422.736 439.426, 421.591 444.087, 420.976 447.250 C 420.361 450.413, 419.489 453, 419.039 453 C 418.588 453, 418.052 451.538, 417.849 449.750 C 417.645 447.962, 417.797 442.225, 418.187 437 C 418.576 431.775, 419.347 424.350, 419.899 420.500 C 420.451 416.650, 421.811 407.875, 422.920 401 C 424.030 394.125, 425.657 383.775, 426.536 378 C 427.415 372.225, 429.439 363.225, 431.032 358 C 432.626 352.775, 434.421 344.675, 435.021 340 C 435.622 335.325, 436.732 328.800, 437.488 325.500 C 438.244 322.200, 439.381 316.800, 440.014 313.500 C 440.647 310.200, 443.342 300.975, 446.002 293 C 448.662 285.025, 451.155 276.700, 451.541 274.500 C 451.928 272.300, 453.943 265.522, 456.019 259.437 C 458.095 253.353, 460.344 244.967, 461.016 240.802 C 462.077 234.226, 462.020 232.590, 460.585 228.365 C 459.676 225.689, 457.710 221.736, 456.216 219.580 C 454.722 217.424, 453.025 215.503, 452.444 215.311 C 451.863 215.120, 450.801 217.333, 450.085 220.231 C 449.368 223.129, 447.726 227.975, 446.436 231 C 445.147 234.025, 442.703 241.900, 441.005 248.500 C 439.308 255.100, 437.074 263.425, 436.041 267 C 435.008 270.575, 432.571 280.025, 430.624 288 C 428.677 295.975, 426.584 305.875, 425.972 310 C 425.359 314.125, 423.574 322.900, 422.004 329.500 C 420.435 336.100, 417.957 348.025, 416.499 356 C 415.040 363.975, 413.160 373.875, 412.321 378 C 411.482 382.125, 410.224 388.650, 409.526 392.500 C 408.828 396.350, 407.709 402.650, 407.040 406.500 C 406.371 410.350, 405.148 416.875, 404.324 421 C 403.499 425.125, 402.202 431.822, 401.441 435.882 C 400.680 439.942, 399.369 444.314, 398.529 445.597 C 397.688 446.880, 397 449.385, 397 451.165 C 397 453.437, 396.686 454.086, 395.943 453.343 C 395.201 452.601, 395.494 446.665, 396.930 433.393 C 398.054 423.002, 399.410 412.925, 399.944 411 C 400.477 409.075, 401.379 402.887, 401.946 397.248 C 402.514 391.609, 403.623 384.184, 404.411 380.748 C 405.198 377.312, 406.772 369.550, 407.908 363.500 C 409.043 357.450, 410.262 350.700, 410.615 348.500 C 410.968 346.300, 412.783 337.750, 414.647 329.500 C 416.512 321.250, 419.159 308.425, 420.531 301 C 421.902 293.575, 424.867 280.750, 427.118 272.500 C 429.370 264.250, 433.429 250.750, 436.138 242.500 C 438.847 234.250, 441.535 225.925, 442.112 224 C 442.688 222.075, 443.991 216, 445.007 210.500 C 446.799 200.797, 446.799 200.411, 445.018 197.500 C 444.009 195.850, 442.674 192.588, 442.053 190.250 C 441.431 187.912, 440.323 186, 439.590 186 C 438.742 186, 438.011 187.862, 437.578 191.123 M 118.797 191.750 C 117.380 193.262, 115.271 196.395, 114.110 198.710 C 112.498 201.927, 112 204.780, 112 210.805 C 112 217.052, 112.364 219.015, 113.750 220.254 C 114.713 221.114, 117.705 222.984, 120.399 224.409 C 124.903 226.791, 126.289 227, 137.610 227 C 148.988 227, 150.077 226.834, 151.961 224.811 C 153.795 222.843, 154 221.323, 154 209.694 C 154 196.765, 154 196.765, 150.118 192.882 C 146.235 189, 146.235 189, 133.805 189 C 121.536 189, 121.341 189.036, 118.797 191.750 M 171.911 199.281 C 170.050 200.535, 168.135 202.898, 167.657 204.531 C 167.178 206.164, 165.710 210.321, 164.393 213.770 C 163.077 217.218, 162 221.178, 162 222.569 C 162 223.961, 162.684 226.423, 163.521 228.040 C 164.357 229.657, 166.814 231.885, 168.981 232.990 C 171.148 234.096, 173.817 235, 174.913 235 C 176.009 235, 178.052 235.522, 179.453 236.161 C 180.854 236.799, 182 237.699, 182 238.161 C 182 238.622, 186.505 239, 192.011 239 C 202.023 239, 202.023 239, 205.011 232.475 C 207.714 226.573, 207.999 224.973, 207.985 215.725 C 207.976 210.101, 207.626 204.960, 207.206 204.300 C 206.787 203.640, 203.218 201.727, 199.277 200.050 C 193.191 197.460, 190.841 197, 183.703 197 C 176.607 197, 174.768 197.356, 171.911 199.281 M 224.469 209.331 C 222.397 211.403, 221 213.787, 221 215.251 C 221 216.599, 219.875 219.818, 218.500 222.404 C 217.125 224.990, 216 228.716, 216 230.685 C 216 232.653, 216.948 235.797, 218.106 237.671 C 219.449 239.845, 222.334 242.150, 226.077 244.039 C 231.562 246.808, 232.688 247, 243.424 247 C 249.739 247, 256.002 246.500, 257.343 245.890 C 258.683 245.279, 260.279 243.683, 260.890 242.343 C 261.500 241.002, 262 236.697, 262 232.774 C 262 228.851, 262.487 224.260, 263.083 222.571 C 263.926 220.178, 263.832 218.718, 262.656 215.958 C 261.826 214.011, 260.102 211.945, 258.824 211.369 C 257.546 210.792, 254.250 209.497, 251.500 208.490 C 248.503 207.393, 242.782 206.499, 237.219 206.260 C 227.939 205.861, 227.939 205.861, 224.469 209.331 M 283.390 218.765 C 282.779 219.169, 281.541 220.940, 280.640 222.700 C 279.738 224.461, 279 227.063, 279 228.484 C 279 229.904, 277.859 233.319, 276.464 236.072 C 274.303 240.335, 274.074 241.608, 274.916 244.656 C 275.459 246.625, 277.359 249.535, 279.136 251.122 C 280.914 252.709, 283.974 254.454, 285.935 254.998 C 287.896 255.543, 290.688 255.991, 292.141 255.994 C 293.593 255.997, 296.743 256.890, 299.141 257.978 C 301.538 259.066, 305.217 259.966, 307.316 259.978 C 309.414 259.990, 312.114 259.494, 313.316 258.875 C 314.517 258.256, 316.512 256.828, 317.750 255.701 C 319.571 254.042, 320 252.585, 320 248.061 C 320 244.381, 320.683 241.195, 322 238.739 C 323.107 236.673, 324 233.097, 324 230.726 C 324 228.372, 323.321 225.476, 322.491 224.291 C 321.662 223.106, 318.495 221.206, 315.454 220.069 C 310.917 218.371, 307.643 218.003, 297.212 218.015 C 290.221 218.024, 284 218.361, 283.390 218.765 M 340.400 230.400 C 338.530 232.270, 336.998 234.633, 336.996 235.650 C 336.994 236.667, 336.094 238.973, 334.996 240.774 C 333.511 243.210, 333.008 245.771, 333.032 250.774 C 333.049 254.500, 333.607 258.190, 334.282 259.046 C 334.952 259.896, 336.613 261.359, 337.973 262.296 C 339.332 263.233, 341.488 264, 342.762 264 C 344.037 264, 346.844 264.900, 349 266 C 352.060 267.561, 354.894 268, 361.913 268 C 366.859 268, 372.024 267.491, 373.389 266.868 C 374.940 266.162, 377.110 263.249, 379.164 259.118 C 381.954 253.508, 382.459 251.406, 382.478 245.316 C 382.498 238.743, 382.254 237.875, 379.613 235.118 C 378.025 233.460, 374.300 230.956, 371.336 229.552 C 366.567 227.294, 364.669 227, 354.873 227 C 343.800 227, 343.800 227, 340.400 230.400 M 98.915 234.597 C 98.044 234.864, 96.554 236.527, 95.605 238.291 C 94.655 240.056, 92.343 244.200, 90.467 247.500 C 87.913 251.993, 87.049 254.710, 87.028 258.316 C 87.013 260.964, 87.466 264.003, 88.036 265.067 C 88.606 266.132, 91.304 268.134, 94.032 269.516 C 97.034 271.037, 101.462 272.242, 105.246 272.566 C 108.686 272.861, 113.116 273.578, 115.091 274.159 C 117.927 274.993, 119.295 274.895, 121.591 273.693 C 123.191 272.855, 125.513 271.214, 126.750 270.046 C 128.235 268.644, 129 266.753, 129 264.485 C 129 262.595, 129.898 259.575, 130.996 257.774 C 132.411 255.454, 132.989 252.752, 132.981 248.500 C 132.975 245.200, 132.639 242.023, 132.235 241.441 C 131.831 240.858, 129.250 239.110, 126.500 237.555 C 122.042 235.036, 120.363 234.696, 111 234.421 C 105.225 234.251, 99.787 234.330, 98.915 234.597 M 97.405 237.155 C 96.962 237.870, 97.130 238.038, 97.845 237.595 C 98.480 237.203, 99 236.684, 99 236.441 C 99 236.198, 98.802 236, 98.559 236 C 98.316 236, 97.797 236.520, 97.405 237.155 M 148.663 245.250 C 147.317 246.488, 144.142 252.232, 141.608 258.015 C 139.073 263.798, 137 269.333, 137 270.315 C 137 271.296, 137.655 273.366, 138.456 274.915 C 139.257 276.463, 141.462 278.466, 143.357 279.365 C 145.252 280.264, 148.759 281.003, 151.151 281.007 C 153.808 281.011, 156.667 281.786, 158.500 283 C 160.636 284.414, 163.195 284.989, 167.382 284.993 C 172.767 284.999, 173.527 284.718, 176.382 281.656 C 178.097 279.817, 181.188 274.266, 183.250 269.321 C 185.313 264.376, 187 258.914, 187 257.183 C 187 254.955, 186.003 253.010, 183.583 250.518 C 180.751 247.601, 179.453 247, 175.991 247 C 173.330 247, 170.893 246.275, 169.273 245 C 167.223 243.388, 165.216 243, 158.921 243 C 152.214 243, 150.766 243.318, 148.663 245.250 M 203.327 255.941 C 201.035 257.339, 198.981 260.325, 195.934 266.689 C 193.566 271.632, 191.501 277.583, 191.230 280.245 C 190.929 283.199, 191.209 285.547, 191.973 286.467 C 192.647 287.280, 195.683 289.082, 198.720 290.472 C 203.741 292.771, 205.443 293, 217.486 293 C 229.310 293, 231.009 292.781, 233.328 290.957 C 234.868 289.745, 236.204 287.428, 236.610 285.264 C 236.987 283.257, 238.150 280.165, 239.195 278.394 C 240.670 275.894, 241.029 273.643, 240.798 268.337 C 240.500 261.500, 240.500 261.500, 234.500 258.376 C 229.211 255.622, 227.197 255.179, 217.500 254.628 C 207.711 254.073, 206.151 254.218, 203.327 255.941 M 467.035 259.934 C 466.466 260.998, 466 262.393, 466 263.033 C 466 263.674, 465.392 265.616, 464.648 267.349 C 463.905 269.082, 462.730 272.750, 462.037 275.500 C 461.345 278.250, 459.705 285.450, 458.393 291.500 C 457.081 297.550, 455.773 303.512, 455.485 304.750 C 455.197 305.988, 455.420 307, 455.981 307 C 456.541 307, 457 306.362, 457 305.583 C 457 304.804, 457.940 301.991, 459.089 299.333 C 460.238 296.675, 462.282 290.900, 463.630 286.500 C 464.978 282.100, 466.963 275.181, 468.041 271.123 C 469.118 267.066, 470 262.454, 470 260.873 C 470 259.293, 469.566 258, 469.035 258 C 468.505 258, 467.605 258.870, 467.035 259.934 M 258.233 266.457 C 256.540 267.882, 253.987 272.074, 252.157 276.434 C 250.156 281.201, 249 285.645, 249 288.573 C 249 291.113, 249.749 294.460, 250.665 296.010 C 251.581 297.561, 253.494 299.360, 254.915 300.008 C 256.337 300.656, 263.387 301.434, 270.582 301.736 C 277.778 302.038, 285.227 301.992, 287.137 301.634 C 289.923 301.111, 291.049 300.144, 292.828 296.741 C 294.048 294.409, 295.964 291.061, 297.085 289.302 C 298.522 287.048, 299.177 284.196, 299.303 279.647 C 299.448 274.450, 299.094 272.754, 297.491 270.951 C 296.396 269.719, 293.125 267.651, 290.221 266.356 C 285.636 264.309, 283.381 264, 273.048 264 C 261.875 264, 260.976 264.149, 258.233 266.457 M 318.038 273.787 C 315.381 275.252, 313.351 277.998, 309.304 285.598 C 305.410 292.911, 304.028 296.582, 304.016 299.639 C 304.006 302.140, 304.693 304.603, 305.750 305.863 C 306.712 307.010, 310.738 309.310, 314.695 310.974 C 320.420 313.382, 323.340 314, 328.985 314 C 334.053 314, 337.175 313.441, 339.914 312.044 C 342.023 310.968, 344.996 308.605, 346.521 306.794 C 348.046 304.982, 351.218 299.510, 353.570 294.633 C 355.924 289.753, 357.589 285.032, 357.272 284.133 C 356.955 283.235, 355.978 281.666, 355.100 280.648 C 354.223 279.629, 352.289 278.166, 350.802 277.398 C 349.316 276.629, 345.896 276, 343.203 276 C 340.510 276, 336.786 275.241, 334.926 274.313 C 333.067 273.386, 329.285 272.458, 326.523 272.252 C 322.907 271.982, 320.531 272.412, 318.038 273.787 M 71.341 278.250 C 69.070 279.488, 64.100 283.875, 60.295 288 C 56.490 292.125, 52.618 296.613, 51.689 297.973 C 50.760 299.332, 50 301.386, 50 302.535 C 50 303.685, 51.237 305.742, 52.750 307.107 C 54.263 308.471, 57.127 310.319, 59.115 311.213 C 61.325 312.207, 67.179 313.113, 74.174 313.544 C 83.556 314.121, 86.149 313.970, 88.559 312.703 C 90.177 311.852, 93.593 308.984, 96.152 306.328 C 98.711 303.673, 102.442 298.212, 104.444 294.193 C 108.047 286.958, 108.065 286.860, 106.247 284.365 C 105.173 282.890, 101.394 280.632, 97.138 278.922 C 91.451 276.637, 88.296 276, 82.667 276 C 77.092 276, 74.538 276.507, 71.341 278.250 M 125.472 286.397 C 123.807 287.123, 121.187 289.243, 119.649 291.108 C 118.112 292.974, 115.011 297.425, 112.759 301 C 109.743 305.786, 108.547 308.847, 108.220 312.607 C 107.840 316.974, 108.109 318.024, 110.077 319.857 C 112.002 321.651, 113.610 322.004, 119.939 322.022 C 125.901 322.040, 128.029 322.458, 130 324 C 131.627 325.272, 134.072 325.961, 137 325.971 C 139.631 325.980, 142.591 325.263, 144.128 324.243 C 145.573 323.285, 148.448 320.475, 150.515 318 C 152.583 315.525, 155.113 311.550, 156.137 309.167 C 157.189 306.720, 158 302.484, 158 299.434 C 158 294.034, 158 294.034, 153.033 291.517 C 149.516 289.734, 146.461 289, 142.564 289 C 138.914 289, 135.861 288.326, 133.500 287 C 131.542 285.900, 129.615 285.018, 129.220 285.039 C 128.824 285.061, 127.138 285.672, 125.472 286.397 M 177.461 298.003 C 176.339 298.430, 173.752 300.817, 171.711 303.308 C 169.670 305.799, 168 308.254, 168 308.763 C 168 309.273, 167.176 310.436, 166.168 311.348 C 165.160 312.260, 163.272 316.190, 161.973 320.082 C 160.226 325.312, 159.881 327.593, 160.649 328.829 C 161.220 329.748, 163.174 331.512, 164.992 332.750 C 166.880 334.036, 169.839 335.009, 171.898 335.022 C 173.879 335.034, 177.462 335.934, 179.859 337.022 C 182.426 338.187, 186.374 339, 189.461 339 C 193.250 339, 195.647 338.370, 198.102 336.728 C 200.355 335.221, 203.268 331.261, 206.747 324.978 C 210.108 318.906, 211.994 314.308, 211.997 312.184 C 211.998 310.361, 211.568 308.062, 211.041 307.076 C 210.513 306.090, 208.825 304.432, 207.291 303.392 C 205.285 302.032, 201.968 301.341, 195.500 300.936 C 190.550 300.626, 184.925 299.665, 183 298.800 C 180.829 297.824, 178.726 297.522, 177.461 298.003 M 385.395 306.250 C 384.320 307.488, 381.907 310.750, 380.032 313.500 C 378.158 316.250, 374.121 321.372, 371.062 324.883 C 368.003 328.394, 358.279 338.519, 349.453 347.383 C 340.627 356.247, 331.243 365.075, 328.600 367 C 325.957 368.925, 323.278 370.950, 322.647 371.500 C 322.016 372.050, 317.675 375.089, 313 378.254 C 306.687 382.527, 303.599 384.010, 301 384.018 C 299.075 384.024, 291.650 382.868, 284.500 381.449 C 277.350 380.030, 268.575 378.170, 265 377.314 C 261.425 376.458, 255.350 375.189, 251.500 374.494 C 247.650 373.798, 240.225 372.484, 235 371.574 C 229.775 370.664, 222.575 369.271, 219 368.479 C 215.425 367.687, 207.325 366.075, 201 364.897 C 194.675 363.719, 186.350 362.183, 182.500 361.483 C 178.650 360.784, 170.775 359.226, 165 358.021 C 159.225 356.817, 149.775 354.995, 144 353.973 C 138.225 352.951, 128.550 351.225, 122.500 350.137 C 116.450 349.049, 109.475 347.708, 107 347.155 C 104.525 346.603, 96.604 344.767, 89.399 343.075 C 82.193 341.383, 72.124 339.703, 67.023 339.341 C 58.036 338.703, 57.690 338.757, 55.896 341.091 C 54.191 343.310, 54.043 345.847, 54.022 373.229 C 54 402.959, 54 402.959, 58.527 407.132 C 61.018 409.427, 64.453 413.464, 66.163 416.101 C 68.406 419.563, 70.721 421.608, 74.485 423.449 C 77.746 425.045, 81.401 426, 84.244 426 C 86.743 426, 93.448 426.473, 99.144 427.050 C 104.840 427.628, 111.975 428.727, 115 429.492 C 118.025 430.257, 125 431.165, 130.500 431.511 C 136 431.857, 143.200 432.767, 146.500 433.534 C 149.800 434.300, 156.775 435.430, 162 436.044 C 167.225 436.658, 172.808 437.576, 174.406 438.083 C 176.004 438.590, 183.627 439.480, 191.345 440.061 C 199.064 440.641, 208.106 441.721, 211.439 442.461 C 214.773 443.200, 222.900 444.095, 229.500 444.450 C 236.100 444.804, 243.300 445.524, 245.500 446.050 C 247.700 446.575, 259.161 447.665, 270.968 448.470 C 288.748 449.683, 292.860 450.252, 294.905 451.778 C 296.263 452.792, 297.532 454.095, 297.725 454.674 C 297.918 455.253, 296.246 455.972, 294.011 456.272 C 291.775 456.572, 283.321 456.618, 275.223 456.374 C 267.125 456.131, 258.025 455.522, 255 455.021 C 251.975 454.519, 245.900 453.817, 241.500 453.460 C 237.100 453.103, 232.150 452.645, 230.500 452.442 C 228.850 452.240, 220.525 451.771, 212 451.400 C 203.475 451.029, 195.600 450.247, 194.500 449.662 C 193.400 449.076, 190.925 448.515, 189 448.415 C 187.075 448.315, 180.550 447.920, 174.500 447.538 C 168.450 447.156, 162.600 446.476, 161.500 446.027 C 160.400 445.578, 156.523 444.714, 152.885 444.106 C 149.246 443.498, 144.724 443, 142.835 443 C 140.946 443, 138.972 442.574, 138.450 442.054 C 137.927 441.533, 130.637 440.544, 122.250 439.855 C 113.862 439.166, 107 438.277, 107 437.880 C 107 437.484, 105.762 436.889, 104.250 436.559 C 102.737 436.229, 98.216 435.900, 94.202 435.828 C 89.654 435.746, 86.450 436.153, 85.702 436.907 C 84.764 437.851, 85.532 439.094, 89.192 442.559 C 93.102 446.260, 94.536 447, 97.803 447 C 99.958 447, 106.172 447.882, 111.611 448.961 C 117.050 450.039, 127.575 451.639, 135 452.515 C 142.425 453.391, 150.399 454.533, 152.721 455.052 C 155.042 455.571, 162.917 456.449, 170.221 457.003 C 177.524 457.557, 188 458.674, 193.500 459.485 C 199 460.297, 205.975 460.986, 209 461.015 C 212.025 461.045, 218.100 461.722, 222.500 462.520 C 226.900 463.318, 235.675 464.223, 242 464.532 C 248.325 464.840, 259.350 465.755, 266.500 466.564 C 273.650 467.373, 287.484 468.419, 297.242 468.888 C 307 469.358, 315.550 470.199, 316.242 470.757 C 316.934 471.315, 327.015 472.250, 338.644 472.836 C 356.519 473.736, 360.276 474.197, 362.949 475.823 C 365.951 477.649, 366.023 477.834, 364.375 479.482 C 362.791 481.066, 360.226 481.186, 335.271 480.841 C 313.542 480.541, 307.730 480.182, 307.061 479.099 C 306.428 478.075, 302.507 477.638, 291.359 477.351 C 283.186 477.141, 271.325 476.557, 265 476.053 C 258.675 475.550, 247.425 474.634, 240 474.018 C 232.575 473.402, 220.200 472.050, 212.500 471.014 C 204.800 469.978, 194 468.856, 188.500 468.522 C 183 468.187, 177.150 467.517, 175.500 467.033 C 173.850 466.549, 169.575 465.872, 166 465.529 C 162.425 465.185, 154.325 464.567, 148 464.154 C 141.675 463.741, 135.490 462.848, 134.255 462.170 C 133.021 461.491, 128.071 460.553, 123.255 460.086 C 118.440 459.618, 113.263 458.744, 111.750 458.143 C 110.238 457.542, 107.651 457.320, 106 457.650 C 104.350 457.980, 103 458.604, 103 459.036 C 103 459.468, 104.370 460.975, 106.045 462.385 C 107.720 463.794, 110.758 465.394, 112.795 465.940 C 114.833 466.486, 123.925 467.423, 133 468.022 C 142.415 468.643, 152.506 469.911, 156.500 470.974 C 160.350 471.999, 167.325 473.160, 172 473.555 C 176.675 473.950, 181.568 474.671, 182.874 475.159 C 184.180 475.646, 191.155 476.500, 198.374 477.057 C 205.593 477.614, 213.525 478.545, 216 479.126 C 218.475 479.706, 226.382 480.578, 233.571 481.063 C 240.760 481.549, 249.535 482.598, 253.071 483.396 C 256.607 484.194, 265.350 485.339, 272.500 485.940 C 279.650 486.542, 288.875 487.482, 293 488.029 C 297.125 488.577, 311.975 489.475, 326 490.026 C 340.025 490.577, 353.525 491.514, 356 492.108 C 358.475 492.703, 367.700 493.581, 376.500 494.058 C 385.300 494.536, 394.188 495.217, 396.250 495.573 C 398.658 495.988, 400 495.834, 400 495.144 C 400 494.553, 397.413 490.185, 394.250 485.439 C 391.087 480.692, 388.050 476.048, 387.500 475.118 C 386.950 474.188, 383.604 469.843, 380.064 465.463 C 376.525 461.083, 371.361 455.025, 368.589 452 C 365.817 448.975, 362.455 445.747, 361.117 444.827 C 359.582 443.770, 355.701 442.940, 350.592 442.574 C 346.142 442.255, 333.945 441.801, 323.489 441.564 C 312.073 441.305, 301.686 440.536, 297.489 439.638 C 293.645 438.816, 284.650 437.901, 277.500 437.605 C 269.957 437.292, 262.401 436.404, 259.500 435.489 C 256.259 434.467, 249.046 433.737, 239 433.415 C 230.475 433.142, 220.350 432.272, 216.500 431.481 C 212.650 430.690, 202.300 429.353, 193.500 428.510 C 184.700 427.667, 173.450 426.540, 168.500 426.006 C 163.550 425.472, 156.544 425.028, 152.932 425.018 C 149.319 425.008, 144.088 424.324, 141.308 423.499 C 138.528 422.673, 129.559 421.586, 121.377 421.082 C 113.194 420.579, 101.325 419.188, 95 417.992 C 88.675 416.796, 82.719 415.408, 81.764 414.908 C 80.809 414.409, 78.634 414, 76.930 414 C 74.932 414, 73.978 413.566, 74.241 412.776 C 74.466 412.102, 76.191 411.185, 78.075 410.738 C 79.959 410.290, 86.335 409.919, 92.244 409.912 C 98.153 409.906, 113.978 410.393, 127.410 410.996 C 140.843 411.599, 153.333 412.547, 155.167 413.103 C 157 413.659, 167.736 414.521, 179.025 415.020 C 190.370 415.521, 202.222 416.581, 205.525 417.391 C 208.811 418.197, 218.250 419.147, 226.500 419.502 C 234.750 419.858, 243.094 420.557, 245.042 421.056 C 246.989 421.556, 256.214 422.654, 265.542 423.496 C 274.869 424.339, 283.175 425.280, 284 425.587 C 284.825 425.895, 293.825 426.790, 304 427.576 C 314.175 428.363, 324.750 429.423, 327.500 429.932 C 330.250 430.442, 339.025 431.134, 347 431.471 C 358.039 431.937, 362.445 431.754, 365.459 430.705 C 369.419 429.327, 369.419 429.327, 372.220 413.413 C 373.761 404.661, 375.468 395.025, 376.012 392 C 376.557 388.975, 378.142 378.400, 379.534 368.500 C 380.925 358.600, 382.918 347.125, 383.961 343 C 385.005 338.875, 386.340 332.229, 386.929 328.231 C 387.518 324.234, 388 318.357, 388 315.173 C 388 311.629, 388.570 308.629, 389.468 307.441 C 390.276 306.374, 390.951 305.163, 390.968 304.750 C 390.986 304.337, 390.178 304, 389.174 304 C 388.170 304, 386.469 305.012, 385.395 306.250 M 452.608 313.500 C 451.656 316.800, 450.462 320.400, 449.956 321.500 C 449.450 322.600, 448.589 325.525, 448.042 328 C 447.496 330.475, 447.038 333.603, 447.024 334.950 C 447.009 336.455, 447.352 337.034, 447.914 336.450 C 448.416 335.928, 450.235 329.915, 451.956 323.089 C 453.677 316.263, 454.917 309.963, 454.712 309.089 C 454.508 308.215, 453.561 310.200, 452.608 313.500 M 227.372 316.393 C 222.196 321.209, 219.945 324.176, 218.250 328.417 C 217.012 331.513, 216 335.699, 216 337.719 C 216 340.341, 216.768 342.192, 218.687 344.195 C 220.899 346.504, 222.222 347, 226.163 347 C 229.189 347, 232.157 347.735, 234.226 348.996 C 236.027 350.094, 238.900 350.994, 240.612 350.996 C 242.323 350.998, 246.724 349.639, 250.391 347.977 C 256.015 345.427, 257.153 344.487, 257.655 341.977 C 257.982 340.339, 258.844 339, 259.569 339 C 260.295 339, 262.023 337.988, 263.409 336.750 C 265.696 334.708, 265.951 333.690, 266.163 325.748 C 266.311 320.191, 265.976 316.576, 265.247 315.847 C 264.615 315.215, 261.938 314.343, 259.299 313.908 C 256.659 313.474, 251.999 313.092, 248.941 313.060 C 245.688 313.025, 242.577 312.391, 241.441 311.532 C 240.374 310.724, 238.317 310.049, 236.872 310.032 C 235 310.009, 232.265 311.841, 227.372 316.393 M 284.073 323.927 C 282.933 325.067, 282 326.388, 282 326.862 C 282 327.337, 280.601 329.474, 278.891 331.612 C 277.181 333.751, 274.685 337.966, 273.344 340.980 C 271.870 344.295, 271.024 347.848, 271.203 349.973 C 271.426 352.609, 272.146 353.794, 274.089 354.720 C 275.981 355.622, 280.631 355.784, 291.342 355.322 C 306.005 354.688, 306.005 354.688, 310.169 350.844 C 312.459 348.730, 314.872 347, 315.532 347 C 316.191 347, 317.895 346.084, 319.319 344.964 C 320.742 343.844, 323.330 340.820, 325.069 338.243 C 327.623 334.459, 328.064 333.072, 327.363 331.029 C 326.776 329.316, 324.561 327.537, 320.498 325.515 C 314.832 322.695, 313.714 322.511, 300.323 322.192 C 287.070 321.877, 286.010 321.990, 284.073 323.927 M 381.079 326.583 C 381.127 327.748, 381.364 327.985, 381.683 327.188 C 381.972 326.466, 381.936 325.603, 381.604 325.271 C 381.272 324.939, 381.036 325.529, 381.079 326.583 M 378.715 334.055 C 377.772 336.232, 377 338.408, 377 338.891 C 377 339.373, 375.224 344.035, 373.053 349.252 C 370.882 354.468, 368.226 360.483, 367.151 362.618 C 366.077 364.753, 364.387 368.300, 363.397 370.500 C 362.406 372.700, 359.694 377.493, 357.369 381.150 C 355.044 384.808, 351.956 388.633, 350.508 389.650 C 349.060 390.668, 346.603 392.511, 345.048 393.746 C 343.492 394.982, 339.462 397.361, 336.090 399.034 C 332.719 400.707, 327.462 402.537, 324.409 403.102 C 320.129 403.893, 316.778 403.771, 309.788 402.570 C 304.801 401.713, 300.167 400.553, 299.490 399.992 C 298.814 399.431, 291.565 398.530, 283.380 397.991 C 275.196 397.451, 265.800 396.351, 262.500 395.547 C 259.200 394.742, 253.905 393.158, 250.733 392.027 C 247.317 390.809, 239.071 389.378, 230.499 388.517 C 222.542 387.717, 212.312 386.172, 207.766 385.083 C 203.220 383.995, 193.155 382.002, 185.400 380.655 C 177.645 379.309, 169.878 377.471, 168.140 376.572 C 166.279 375.610, 159.328 374.343, 151.239 373.492 C 143.683 372.697, 130.075 370.502, 121 368.613 C 111.925 366.725, 101.350 364.632, 97.500 363.962 C 93.650 363.293, 87.125 361.713, 83 360.453 C 78.875 359.192, 72.800 357.633, 69.500 356.989 C 66.200 356.344, 62.535 355.204, 61.355 354.454 C 59.419 353.224, 59.152 353.306, 58.618 355.296 C 58.293 356.508, 58.021 366.557, 58.014 377.628 C 58.002 394.464, 57.750 397.963, 56.470 399.025 C 55.115 400.149, 55.187 400.526, 57.102 402.309 C 58.969 404.049, 61.256 404.429, 73.882 405.096 C 81.922 405.520, 97.502 406.113, 108.504 406.413 C 119.506 406.713, 130.919 407.416, 133.867 407.975 C 136.815 408.534, 148.513 409.445, 159.863 410 C 171.213 410.555, 184.100 411.655, 188.500 412.444 C 192.900 413.234, 202.575 414.167, 210 414.518 C 217.425 414.869, 226.744 415.796, 230.708 416.578 C 234.672 417.360, 241.197 418.004, 245.208 418.008 C 249.219 418.013, 256.550 418.473, 261.500 419.031 C 266.450 419.589, 271.850 420.475, 273.500 421.001 C 275.150 421.526, 283.700 422.381, 292.500 422.901 C 301.300 423.420, 309.838 424.357, 311.474 424.983 C 313.109 425.609, 320.759 426.347, 328.474 426.623 C 336.188 426.900, 344.975 427.619, 348 428.221 C 351.025 428.823, 356.048 429.508, 359.163 429.742 C 364.826 430.169, 364.826 430.169, 366.496 422.334 C 367.414 418.025, 368.579 413.141, 369.084 411.480 C 369.590 409.820, 370.641 403.520, 371.422 397.480 C 372.202 391.441, 373.797 380.650, 374.966 373.500 C 376.135 366.350, 377.985 355.999, 379.077 350.498 C 380.170 344.997, 381.106 338.342, 381.159 335.709 C 381.212 333.076, 381.070 330.736, 380.843 330.509 C 380.616 330.282, 379.658 331.878, 378.715 334.055 M 444.750 345.875 C 444.337 347.731, 444.029 350.431, 444.063 351.875 C 444.127 354.500, 444.127 354.500, 445.111 352.034 C 445.652 350.678, 445.961 347.978, 445.798 346.034 C 445.500 342.500, 445.500 342.500, 444.750 345.875 M 436.764 390 C 436.359 391.375, 436.035 394.300, 436.044 396.500 C 436.058 399.712, 436.263 400.153, 437.085 398.742 C 437.648 397.774, 437.972 394.849, 437.804 392.242 C 437.555 388.359, 437.367 387.953, 436.764 390 M 431.585 414 C 431.188 416.475, 431.293 419.625, 431.819 421 C 432.744 423.419, 432.798 423.377, 433.512 419.680 C 433.917 417.578, 433.812 414.428, 433.279 412.680 C 432.308 409.500, 432.308 409.500, 431.585 414 M 415.625 459.798 C 415.354 460.237, 415.545 461.249, 416.051 462.048 C 416.768 463.182, 416.973 463.007, 416.985 461.250 C 416.993 460.012, 416.802 459, 416.559 459 C 416.316 459, 415.896 459.359, 415.625 459.798" stroke="none" fill="#626a8f" fill-rule="evenodd"/><path d="M 194 7.583 C 191.525 8.990, 185.847 13.928, 181.381 18.557 C 175.165 24.999, 172.292 28.967, 169.121 35.486 C 164.980 44, 164.980 44, 146.240 44.035 C 131.880 44.063, 126.916 44.405, 125 45.500 C 123.625 46.286, 121.600 46.947, 120.500 46.969 C 119.400 46.991, 116.511 48.328, 114.080 49.941 C 111.649 51.554, 108.387 54.769, 106.830 57.087 C 104.506 60.548, 103.995 62.391, 103.973 67.400 C 103.958 70.755, 103.517 77.775, 102.993 83 C 102.469 88.225, 101.782 99.250, 101.467 107.500 C 101.151 115.750, 100.428 124.975, 99.859 128 C 99.290 131.025, 98.657 137.632, 98.454 142.683 C 98.250 147.733, 97.426 153.438, 96.622 155.361 C 95.819 157.284, 94.854 161.477, 94.478 164.679 C 94.101 167.880, 92.889 174.100, 91.785 178.500 C 90.680 182.900, 88.044 191.802, 85.927 198.282 C 83.504 205.702, 78.669 216.624, 72.869 227.782 C 67.803 237.527, 62.468 247.425, 61.013 249.777 C 59.558 252.130, 54.113 258.430, 48.913 263.777 C 43.712 269.125, 36.706 276.875, 33.343 281 C 29.981 285.125, 23.909 291.650, 19.851 295.500 C 15.793 299.350, 9.691 304.992, 6.291 308.038 C 0.166 313.526, 0.113 313.620, 0.493 318.284 C 0.704 320.873, 1.156 323.443, 1.497 323.995 C 1.839 324.548, 2.782 325, 3.594 325 C 4.406 325, 6.067 325.623, 7.285 326.385 C 8.503 327.147, 11.750 328.060, 14.500 328.415 C 17.250 328.770, 24.670 330.593, 30.989 332.466 C 39.050 334.855, 43.041 336.562, 44.366 338.186 C 46.103 340.314, 46.201 341.689, 45.577 355.269 C 45.203 363.392, 44.302 371.728, 43.573 373.793 C 42.845 375.858, 41.921 380.806, 41.521 384.789 C 40.895 391.025, 41.086 392.652, 42.897 396.504 C 44.054 398.965, 45 401.601, 45 402.362 C 45 403.123, 45.882 405.715, 46.960 408.123 C 48.037 410.530, 52.796 417.450, 57.535 423.500 C 62.275 429.550, 68.821 438.371, 72.084 443.102 C 75.346 447.833, 82.984 457.125, 89.057 463.751 C 95.130 470.377, 101.314 476.298, 102.799 476.908 C 104.285 477.518, 109.550 478.186, 114.500 478.392 C 119.450 478.598, 127.325 479.511, 132 480.421 C 136.675 481.332, 144.550 482.939, 149.500 483.992 C 154.450 485.046, 162.627 486.383, 167.670 486.965 C 172.714 487.546, 179.187 488.467, 182.057 489.011 C 184.926 489.555, 189.328 490, 191.839 490 C 194.350 490, 201.601 490.871, 207.952 491.935 C 214.303 492.999, 225.575 494.611, 233 495.516 C 240.425 496.421, 251.225 497.582, 257 498.095 C 262.775 498.609, 273.450 499.722, 280.723 500.569 C 287.995 501.416, 301.045 502.515, 309.723 503.010 C 318.400 503.505, 328.113 504.361, 331.307 504.912 C 334.500 505.463, 343.050 505.982, 350.307 506.065 C 357.563 506.149, 365.609 506.601, 368.187 507.071 C 370.765 507.540, 378.415 508.603, 385.187 509.433 C 391.959 510.263, 406.364 511.246, 417.199 511.617 C 436.093 512.265, 436.901 512.215, 436.971 510.396 C 437.012 509.353, 437.456 504.450, 437.959 499.500 C 438.461 494.550, 439.538 484.650, 440.351 477.500 C 441.164 470.350, 442.550 458.493, 443.432 451.151 C 444.314 443.810, 445.424 437.060, 445.899 436.151 C 446.374 435.243, 447.303 429.788, 447.964 424.030 C 448.625 418.271, 449.523 412.871, 449.961 412.030 C 450.398 411.188, 451.271 406.064, 451.900 400.643 C 452.529 395.222, 453.447 390.033, 453.940 389.113 C 454.432 388.193, 455.287 384.303, 455.839 380.470 C 456.391 376.636, 457.357 370.125, 457.986 366 C 458.614 361.875, 459.587 356.250, 460.148 353.500 C 460.710 350.750, 462.304 344.225, 463.690 339 C 465.077 333.775, 467.270 326.125, 468.565 322 C 469.859 317.875, 471.803 310.675, 472.885 306 C 473.968 301.325, 475.404 295.025, 476.077 292 C 476.751 288.975, 479.089 282, 481.274 276.500 C 483.458 271, 486.757 262.130, 488.604 256.788 C 490.451 251.447, 493.494 244.022, 495.366 240.288 C 497.238 236.555, 499.988 230.575, 501.478 227 C 502.967 223.425, 504.808 219.047, 505.567 217.271 C 506.327 215.494, 507.455 210.088, 508.075 205.256 C 509.196 196.515, 509.183 196.417, 505.690 185.985 C 503.759 180.218, 500.983 172.350, 499.521 168.500 C 498.059 164.650, 495.994 160.012, 494.931 158.193 C 493.869 156.374, 492.999 154.349, 492.998 153.693 C 492.997 153.037, 490.359 147.325, 487.136 141 C 483.913 134.675, 477.778 122.752, 473.502 114.505 C 469.227 106.258, 464.637 98.079, 463.302 96.329 C 461.512 93.982, 459.141 92.603, 454.269 91.073 C 450.636 89.933, 446.249 89, 444.520 89 C 442.791 89, 440.461 88.146, 439.340 87.103 C 438.220 86.059, 436.448 85.042, 435.402 84.842 C 433.716 84.520, 433.431 83.232, 432.893 73.490 C 432.368 63.966, 431.862 61.591, 429.104 55.685 C 427.353 51.936, 424.065 46.856, 421.796 44.395 C 419.528 41.934, 415.697 38.588, 413.284 36.959 C 410.871 35.330, 407.592 33.323, 405.998 32.499 C 403.864 31.395, 399.714 31, 390.268 31 C 377.437 31, 377.437 31, 369.675 35.619 C 365.405 38.160, 360.470 42.002, 358.706 44.158 C 356.943 46.313, 354.488 49.297, 353.251 50.788 C 352.014 52.280, 350.988 53.950, 350.971 54.500 C 350.954 55.050, 349.264 57.439, 347.214 59.809 C 343.983 63.547, 342.945 64.126, 339.395 64.175 C 337.143 64.206, 334.363 63.729, 333.216 63.116 C 332.070 62.502, 328.621 62, 325.553 62 C 322.485 62, 316.727 61.100, 312.757 60 C 308.788 58.900, 302.565 58, 298.929 58 C 295.293 58, 290.109 57.312, 287.409 56.471 C 284.709 55.630, 276.453 54.045, 269.061 52.949 C 261.670 51.853, 255.395 50.728, 255.117 50.450 C 254.839 50.173, 254.285 46.920, 253.885 43.223 C 253.391 38.651, 252.046 34.260, 249.681 29.500 C 247.769 25.650, 244.369 20.634, 242.126 18.353 C 239.883 16.072, 236.350 12.872, 234.274 11.240 C 232.198 9.609, 229.060 7.537, 227.300 6.637 C 224.824 5.371, 221.201 5.003, 211.300 5.012 C 199.419 5.023, 198.177 5.208, 194 7.583 M 205.559 16.532 C 204.491 17.339, 202.786 18, 201.769 18 C 200.752 18, 198.174 18.891, 196.040 19.980 C 193.906 21.068, 189.649 24.919, 186.580 28.536 C 183.511 32.154, 181 35.601, 181 36.196 C 181 36.792, 179.722 39.356, 178.160 41.894 C 175.952 45.482, 175.161 48.289, 174.602 54.505 C 174.207 58.902, 173.235 63.497, 172.442 64.715 C 171.367 66.366, 171 70.355, 171 80.383 C 171 93.837, 171 93.837, 174.368 95.918 C 176.992 97.540, 179.366 97.997, 185.118 97.985 C 189.178 97.976, 193.104 97.586, 193.843 97.118 C 194.582 96.650, 195.507 93.545, 195.900 90.219 C 196.292 86.893, 197.213 83.448, 197.947 82.564 C 198.765 81.578, 199.472 77.193, 199.775 71.228 C 200.254 61.778, 200.422 61.211, 205.654 51.379 C 210.813 41.683, 211.295 41.121, 217.121 38.016 C 222.473 35.164, 223.380 34.951, 224.673 36.245 C 225.967 37.539, 225.905 38.108, 224.153 40.988 C 223.059 42.788, 222.399 44.877, 222.688 45.631 C 223.070 46.626, 225.317 47, 230.907 47 C 235.557 47, 239.075 46.525, 239.800 45.800 C 240.460 45.140, 241 43.195, 241 41.478 C 241 39.760, 239.639 35.843, 237.976 32.773 C 236.313 29.702, 233.175 25.584, 231.002 23.620 C 228.828 21.657, 225.802 19.780, 224.275 19.450 C 222.749 19.119, 219.302 17.983, 216.617 16.924 C 213.931 15.866, 210.781 15.014, 209.617 15.032 C 208.452 15.049, 206.626 15.724, 205.559 16.532 M 375.500 44.658 C 373.850 45.525, 369.855 48.995, 366.621 52.367 C 362.649 56.511, 359.487 61.156, 356.871 66.689 C 354.742 71.193, 353 76.155, 353 77.716 C 353 79.278, 352.292 81.566, 351.426 82.802 C 350.275 84.445, 349.715 88.471, 349.342 97.775 C 349.061 104.774, 349.212 112.975, 349.678 116 C 350.524 121.500, 350.524 121.500, 358.968 122.323 C 363.612 122.775, 368.857 122.874, 370.623 122.543 C 373.832 121.941, 373.835 121.934, 374.520 114.220 C 374.897 109.974, 375.764 105.600, 376.446 104.500 C 377.128 103.400, 377.976 99.676, 378.330 96.225 C 378.685 92.774, 379.655 88.634, 380.487 87.025 C 381.319 85.416, 382.464 81.940, 383.031 79.300 C 383.786 75.785, 385.249 73.262, 388.497 69.876 C 391.502 66.742, 394.558 64.720, 397.983 63.600 C 401.745 62.370, 403.541 62.219, 405.017 63.009 C 406.108 63.593, 407 64.392, 407 64.785 C 407 65.178, 405.313 66.932, 403.250 68.682 C 399.500 71.865, 399.500 71.865, 401.776 74.182 C 403.767 76.209, 405.021 76.500, 411.776 76.500 C 419.500 76.500, 419.500 76.500, 419.814 72.120 C 420.057 68.722, 419.335 66.115, 416.591 60.487 C 414.227 55.639, 411.400 51.747, 408.067 48.750 C 405.324 46.284, 401.655 43.981, 399.915 43.633 C 398.174 43.285, 392.644 43.018, 387.625 43.040 C 381.315 43.068, 377.575 43.567, 375.500 44.658 M 121.098 57.265 C 119.776 57.944, 117.301 60.228, 115.598 62.340 C 112.500 66.180, 112.500 66.180, 111.941 88.840 C 111.634 101.303, 111.663 111.844, 112.005 112.264 C 112.347 112.684, 119.799 113.253, 128.564 113.528 C 137.329 113.804, 146.300 114.441, 148.500 114.944 C 150.700 115.447, 159.700 116.379, 168.500 117.014 C 177.300 117.649, 186.985 118.791, 190.023 119.553 C 193.060 120.314, 200.710 121.211, 207.023 121.547 C 213.335 121.882, 221.650 122.806, 225.500 123.600 C 229.350 124.394, 238.125 125.765, 245 126.647 C 251.875 127.529, 262.675 128.573, 269 128.968 C 275.325 129.362, 281.625 130.175, 283 130.773 C 284.375 131.372, 292.700 132.817, 301.500 133.985 C 310.300 135.153, 321.775 136.740, 327 137.512 C 332.225 138.284, 341.225 139.845, 347 140.981 C 352.775 142.117, 360.650 143.660, 364.500 144.411 C 368.350 145.161, 377.350 146.756, 384.500 147.956 C 391.650 149.155, 400.650 151.005, 404.500 152.066 C 408.350 153.127, 414.170 154.446, 417.434 154.997 C 420.697 155.549, 424.972 155.993, 426.934 155.985 C 429.531 155.974, 431.480 155.091, 434.106 152.735 C 437.241 149.922, 438.316 147.606, 442.338 135 C 444.883 127.025, 447.397 118.700, 447.926 116.500 C 448.454 114.300, 449.340 110.700, 449.894 108.500 C 450.448 106.300, 451.876 103.710, 453.068 102.744 C 454.780 101.358, 454.990 100.692, 454.067 99.581 C 453.420 98.802, 450.352 97.962, 447.199 97.701 C 444.065 97.442, 438.350 96.508, 434.500 95.625 C 430.650 94.742, 420.975 92.857, 413 91.435 C 404.661 89.949, 396.437 89.037, 393.643 89.289 C 390.972 89.530, 388.416 90.327, 387.963 91.060 C 387.510 91.793, 387.591 93.235, 388.142 94.265 C 388.693 95.295, 391.249 98.475, 393.822 101.331 C 396.395 104.187, 399.567 108.833, 400.871 111.655 C 403.242 116.786, 403.242 116.786, 400.371 122.117 C 398.387 125.801, 395.825 128.615, 392.079 131.224 C 386.658 135, 386.658 135, 370.338 135 C 354.017 135, 354.017 135, 344.199 130.004 C 338.800 127.256, 333.059 123.627, 331.441 121.938 C 328.765 119.144, 328.506 118.266, 328.572 112.184 C 328.617 107.965, 329.268 104.309, 330.337 102.270 C 331.268 100.494, 334.049 96.563, 336.515 93.534 C 340.581 88.543, 341 87.529, 341 82.688 C 341 78.439, 340.541 76.921, 338.750 75.253 C 336.999 73.622, 334.836 73.060, 329 72.723 C 324.875 72.484, 316.692 71.575, 310.815 70.703 C 304.939 69.830, 297.770 68.415, 294.884 67.558 C 291.668 66.603, 285.740 65.995, 279.568 65.988 C 273.683 65.981, 267.215 65.345, 264 64.458 C 260.975 63.623, 253.775 62.287, 248 61.489 C 242.225 60.692, 232.610 60.030, 226.632 60.020 C 215.765 60, 215.765 60, 211.882 63.882 C 209.747 66.018, 208 68.725, 208 69.899 C 208 71.108, 209.897 73.870, 212.373 76.267 C 214.778 78.595, 217.478 81.940, 218.373 83.700 C 219.288 85.500, 220 89.296, 220 92.373 C 220 97.151, 219.609 98.237, 216.923 100.923 C 215.231 102.615, 213.451 104, 212.967 104 C 212.484 104, 209.798 105.350, 207 107 C 201.974 109.963, 201.734 110, 187.342 110 C 174.888 110, 172.244 109.720, 169.136 108.075 C 167.136 107.017, 164.190 105.865, 162.590 105.516 C 160.989 105.167, 157.687 102.917, 155.251 100.516 C 152.411 97.716, 150.521 94.808, 149.979 92.406 C 149.514 90.347, 149.387 86.529, 149.695 83.923 C 150.145 80.130, 151.034 78.419, 154.156 75.342 C 156.300 73.229, 158.942 69.830, 160.027 67.790 C 161.112 65.749, 162 62.262, 162 60.040 C 162 56, 162 56, 142.750 56.015 C 129.462 56.025, 122.756 56.412, 121.098 57.265 M 456.769 106.614 C 456.484 107.101, 455.940 112, 455.559 117.500 C 455.179 123, 454.635 129.300, 454.352 131.500 C 454.069 133.700, 453.242 137.575, 452.514 140.111 C 451.786 142.648, 450.712 145.573, 450.127 146.611 C 449.542 147.650, 448.340 150.750, 447.457 153.500 C 446.573 156.250, 445.597 160.630, 445.288 163.232 C 444.814 167.225, 445.314 169.335, 448.489 176.732 C 450.559 181.555, 456.422 194.275, 461.518 205 C 466.614 215.725, 471.265 226.525, 471.853 229 C 472.441 231.475, 473.210 235.003, 473.561 236.840 C 474.034 239.318, 474.985 240.511, 477.248 241.462 C 480.298 242.745, 480.298 242.745, 485.587 232.122 C 488.495 226.280, 492.766 217.119, 495.077 211.765 C 499.279 202.029, 499.279 202.029, 497.139 196.881 C 495.963 194.050, 495 191.124, 495 190.380 C 495 189.635, 492.908 184.633, 490.351 179.263 C 487.794 173.893, 485.155 168.375, 484.487 167 C 483.818 165.625, 482.968 163.227, 482.597 161.670 C 482.226 160.114, 480.139 155.166, 477.961 150.675 C 475.782 146.183, 474 141.726, 474 140.769 C 474 139.812, 472.538 136.198, 470.750 132.739 C 468.962 129.280, 466.535 124.211, 465.356 121.475 C 464.176 118.739, 462.698 115.150, 462.071 113.500 C 461.444 111.850, 460.111 109.426, 459.108 108.114 C 458.106 106.802, 457.053 106.127, 456.769 106.614 M 110.687 120.805 C 108.304 123.293, 107.998 124.394, 107.980 130.555 C 107.970 134.375, 107.314 142.225, 106.524 148 C 105.733 153.775, 104.630 160.027, 104.072 161.893 C 103.514 163.760, 102.755 168.710, 102.385 172.893 C 102.015 177.077, 101.102 181.388, 100.356 182.473 C 99.610 183.557, 99 185.502, 99 186.794 C 99 188.086, 98.325 189.818, 97.500 190.643 C 96.675 191.468, 96 193.227, 96 194.552 C 96 195.876, 94.826 200.007, 93.391 203.730 C 91.956 207.454, 89.369 213.619, 87.641 217.430 C 85.914 221.242, 81.707 229.567, 78.293 235.930 C 74.878 242.294, 71.355 248.400, 70.464 249.500 C 69.572 250.600, 67.689 253.750, 66.280 256.500 C 64.871 259.250, 62.094 263.522, 60.109 265.993 C 58.124 268.464, 54.082 273.414, 51.127 276.993 C 48.172 280.572, 41.197 287.881, 35.627 293.235 C 30.057 298.589, 23.736 304.214, 21.580 305.735 C 19.424 307.256, 16.482 309.625, 15.042 311 C 13.601 312.375, 11.540 314.016, 10.461 314.647 C 8.883 315.570, 8.714 316.151, 9.595 317.625 C 10.421 319.006, 13.733 320.007, 23.095 321.702 C 29.918 322.938, 40 324.834, 45.500 325.915 C 51 326.995, 57.750 328.175, 60.500 328.535 C 63.250 328.896, 67.975 329.790, 71 330.523 C 74.025 331.255, 80.100 332.366, 84.500 332.991 C 88.900 333.616, 97.900 335.243, 104.500 336.607 C 111.100 337.970, 118.975 339.532, 122 340.076 C 125.025 340.621, 131.550 341.919, 136.500 342.962 C 141.450 344.005, 150.675 345.769, 157 346.882 C 163.325 347.995, 170.975 349.168, 174 349.489 C 177.025 349.810, 181.525 350.713, 184 351.495 C 186.475 352.277, 192.325 353.599, 197 354.433 C 201.675 355.267, 209.550 356.894, 214.500 358.048 C 219.450 359.202, 227.550 360.768, 232.500 361.528 C 237.450 362.288, 246.675 364.059, 253 365.464 C 259.325 366.869, 270.800 369.207, 278.500 370.659 C 286.200 372.111, 295.059 373.495, 298.186 373.735 C 303.311 374.128, 304.476 373.817, 310.009 370.574 C 313.385 368.595, 320.052 363.744, 324.824 359.793 C 329.596 355.842, 338.450 347.614, 344.500 341.509 C 350.550 335.403, 358.200 327.320, 361.500 323.546 C 364.800 319.772, 370.425 312.718, 374 307.872 C 377.575 303.025, 381.600 296.909, 382.944 294.280 C 384.288 291.651, 388.155 284.775, 391.537 279 C 394.919 273.225, 399.325 265.464, 401.328 261.754 C 403.330 258.043, 407.632 248.368, 410.886 240.254 C 414.140 232.139, 418.430 221.601, 420.420 216.835 C 422.409 212.070, 425.654 201.720, 427.630 193.835 C 429.607 185.951, 431.286 177.310, 431.362 174.634 C 431.459 171.210, 431.056 169.542, 430 169.005 C 429.175 168.584, 425.575 167.492, 422 166.576 C 418.425 165.661, 410.185 163.816, 403.689 162.477 C 397.194 161.139, 391.569 159.854, 391.189 159.622 C 390.810 159.390, 382.400 157.532, 372.500 155.491 C 362.600 153.451, 348.200 150.462, 340.500 148.849 C 332.800 147.236, 322.450 145.287, 317.500 144.518 C 312.550 143.750, 303.325 142.175, 297 141.019 C 290.675 139.862, 279.875 138.028, 273 136.943 C 266.125 135.857, 256.450 134.326, 251.500 133.540 C 246.550 132.753, 238 131.626, 232.500 131.034 C 227 130.442, 220.025 129.550, 217 129.052 C 213.975 128.554, 208.459 128.113, 204.742 128.073 C 201.025 128.033, 191.575 127.126, 183.742 126.058 C 175.909 124.991, 164.100 123.848, 157.500 123.519 C 150.900 123.191, 138.914 121.814, 130.864 120.461 C 122.814 119.107, 115.586 118, 114.801 118 C 114.016 118, 112.165 119.262, 110.687 120.805 M 437.578 191.123 C 437.204 193.941, 434.387 203.728, 431.318 212.873 C 428.248 222.018, 424.896 231.412, 423.868 233.750 C 422.841 236.088, 421.100 240.020, 420 242.489 C 418.900 244.958, 418 247.366, 418 247.839 C 418 248.313, 415.719 252.898, 412.930 258.030 C 410.142 263.162, 408.050 268.081, 408.280 268.963 C 408.511 269.845, 408.127 274.826, 407.428 280.033 C 406.728 285.240, 404.790 295.800, 403.121 303.500 C 401.452 311.200, 398.717 323.267, 397.043 330.316 C 395.369 337.365, 394 344.919, 394 347.102 C 394 349.286, 392.910 356.119, 391.579 362.286 C 390.247 368.454, 388.198 379.350, 387.025 386.500 C 385.853 393.650, 383.812 404.225, 382.489 410 C 381.167 415.775, 379.555 424.325, 378.907 429 C 378.023 435.374, 378.012 438.500, 378.861 441.500 C 379.483 443.700, 380.890 446.625, 381.987 448 C 383.083 449.375, 386.350 453.650, 389.246 457.500 C 392.143 461.350, 395.266 465.674, 396.187 467.110 C 397.108 468.545, 398.510 470.367, 399.301 471.159 C 400.093 471.950, 401.436 473.926, 402.285 475.549 C 403.135 477.172, 404.656 479.425, 405.665 480.555 C 406.674 481.685, 407.950 483.330, 408.500 484.211 C 409.050 485.093, 411.451 488.668, 413.836 492.157 C 416.220 495.646, 418.769 498.838, 419.500 499.252 C 420.230 499.665, 421.542 499.729, 422.414 499.395 C 423.286 499.060, 424 498.159, 424 497.393 C 424 496.627, 424.466 496, 425.036 496 C 425.605 496, 426.891 494.087, 427.892 491.750 C 429.230 488.630, 430.029 482.583, 430.898 469 C 431.550 458.825, 433.001 444.425, 434.122 437 C 435.243 429.575, 437.024 419.885, 438.080 415.468 C 439.136 411.050, 440.008 405.650, 440.017 403.468 C 440.027 401.285, 440.702 396.350, 441.517 392.500 C 442.333 388.651, 443 383.530, 443 381.121 C 443 378.712, 443.890 373.311, 444.977 369.120 C 446.064 364.929, 448.366 355.875, 450.092 349 C 451.818 342.125, 453.630 334.475, 454.119 332 C 454.607 329.525, 455.672 325.475, 456.485 323 C 457.297 320.525, 459.307 314, 460.950 308.500 C 462.593 303, 465.530 292.425, 467.475 285 C 469.421 277.575, 471.765 269.786, 472.685 267.690 C 474.327 263.950, 474.307 263.782, 471.598 258.431 C 470.080 255.434, 468.456 253.218, 467.988 253.507 C 467.521 253.796, 466.851 253.568, 466.500 253 C 466.149 252.432, 465.452 252.220, 464.952 252.530 C 464.451 252.839, 462.682 257.441, 461.021 262.756 C 459.359 268.072, 458 273.175, 458 274.098 C 458 275.020, 455.801 282.471, 453.113 290.656 C 450.425 298.841, 447.098 310.929, 445.719 317.519 C 444.340 324.108, 442.701 332.875, 442.077 337 C 441.454 341.125, 440.275 348.705, 439.457 353.844 C 438.639 358.983, 437.593 363.933, 437.134 364.844 C 436.674 365.755, 435.772 369.200, 435.129 372.500 C 434.486 375.800, 432.408 386.401, 430.511 396.058 C 428.615 405.716, 426.587 417.816, 426.006 422.949 C 425.424 428.082, 424.306 434.356, 423.521 436.891 C 422.736 439.426, 421.591 444.087, 420.976 447.250 C 420.361 450.413, 419.489 453, 419.039 453 C 418.588 453, 418.052 451.538, 417.849 449.750 C 417.645 447.962, 417.797 442.225, 418.187 437 C 418.576 431.775, 419.347 424.350, 419.899 420.500 C 420.451 416.650, 421.811 407.875, 422.920 401 C 424.030 394.125, 425.657 383.775, 426.536 378 C 427.415 372.225, 429.439 363.225, 431.032 358 C 432.626 352.775, 434.421 344.675, 435.021 340 C 435.622 335.325, 436.732 328.800, 437.488 325.500 C 438.244 322.200, 439.381 316.800, 440.014 313.500 C 440.647 310.200, 443.342 300.975, 446.002 293 C 448.662 285.025, 451.155 276.700, 451.541 274.500 C 451.928 272.300, 453.943 265.522, 456.019 259.437 C 458.095 253.353, 460.344 244.967, 461.016 240.802 C 462.077 234.226, 462.020 232.590, 460.585 228.365 C 459.676 225.689, 457.710 221.736, 456.216 219.580 C 454.722 217.424, 453.025 215.503, 452.444 215.311 C 451.863 215.120, 450.801 217.333, 450.085 220.231 C 449.368 223.129, 447.726 227.975, 446.436 231 C 445.147 234.025, 442.703 241.900, 441.005 248.500 C 439.308 255.100, 437.074 263.425, 436.041 267 C 435.008 270.575, 432.571 280.025, 430.624 288 C 428.677 295.975, 426.584 305.875, 425.972 310 C 425.359 314.125, 423.574 322.900, 422.004 329.500 C 420.435 336.100, 417.957 348.025, 416.499 356 C 415.040 363.975, 413.160 373.875, 412.321 378 C 411.482 382.125, 410.224 388.650, 409.526 392.500 C 408.828 396.350, 407.709 402.650, 407.040 406.500 C 406.371 410.350, 405.148 416.875, 404.324 421 C 403.499 425.125, 402.202 431.822, 401.441 435.882 C 400.680 439.942, 399.369 444.314, 398.529 445.597 C 397.688 446.880, 397 449.385, 397 451.165 C 397 453.437, 396.686 454.086, 395.943 453.343 C 395.201 452.601, 395.494 446.665, 396.930 433.393 C 398.054 423.002, 399.410 412.925, 399.944 411 C 400.477 409.075, 401.379 402.887, 401.946 397.248 C 402.514 391.609, 403.623 384.184, 404.411 380.748 C 405.198 377.312, 406.772 369.550, 407.908 363.500 C 409.043 357.450, 410.262 350.700, 410.615 348.500 C 410.968 346.300, 412.783 337.750, 414.647 329.500 C 416.512 321.250, 419.159 308.425, 420.531 301 C 421.902 293.575, 424.867 280.750, 427.118 272.500 C 429.370 264.250, 433.429 250.750, 436.138 242.500 C 438.847 234.250, 441.535 225.925, 442.112 224 C 442.688 222.075, 443.991 216, 445.007 210.500 C 446.799 200.797, 446.799 200.411, 445.018 197.500 C 444.009 195.850, 442.674 192.588, 442.053 190.250 C 441.431 187.912, 440.323 186, 439.590 186 C 438.742 186, 438.011 187.862, 437.578 191.123 M 385.395 306.250 C 384.320 307.488, 381.907 310.750, 380.032 313.500 C 378.158 316.250, 374.121 321.372, 371.062 324.883 C 368.003 328.394, 358.279 338.519, 349.453 347.383 C 340.627 356.247, 331.243 365.075, 328.600 367 C 325.957 368.925, 323.278 370.950, 322.647 371.500 C 322.016 372.050, 317.675 375.089, 313 378.254 C 306.687 382.527, 303.599 384.010, 301 384.018 C 299.075 384.024, 291.650 382.868, 284.500 381.449 C 277.350 380.030, 268.575 378.170, 265 377.314 C 261.425 376.458, 255.350 375.189, 251.500 374.494 C 247.650 373.798, 240.225 372.484, 235 371.574 C 229.775 370.664, 222.575 369.271, 219 368.479 C 215.425 367.687, 207.325 366.075, 201 364.897 C 194.675 363.719, 186.350 362.183, 182.500 361.483 C 178.650 360.784, 170.775 359.226, 165 358.021 C 159.225 356.817, 149.775 354.995, 144 353.973 C 138.225 352.951, 128.550 351.225, 122.500 350.137 C 116.450 349.049, 109.475 347.708, 107 347.155 C 104.525 346.603, 96.604 344.767, 89.399 343.075 C 82.193 341.383, 72.124 339.703, 67.023 339.341 C 58.036 338.703, 57.690 338.757, 55.896 341.091 C 54.191 343.310, 54.043 345.847, 54.022 373.229 C 54 402.959, 54 402.959, 58.527 407.132 C 61.018 409.427, 64.453 413.464, 66.163 416.101 C 68.406 419.563, 70.721 421.608, 74.485 423.449 C 77.746 425.045, 81.401 426, 84.244 426 C 86.743 426, 93.448 426.473, 99.144 427.050 C 104.840 427.628, 111.975 428.727, 115 429.492 C 118.025 430.257, 125 431.165, 130.500 431.511 C 136 431.857, 143.200 432.767, 146.500 433.534 C 149.800 434.300, 156.775 435.430, 162 436.044 C 167.225 436.658, 172.808 437.576, 174.406 438.083 C 176.004 438.590, 183.627 439.480, 191.345 440.061 C 199.064 440.641, 208.106 441.721, 211.439 442.461 C 214.773 443.200, 222.900 444.095, 229.500 444.450 C 236.100 444.804, 243.300 445.524, 245.500 446.050 C 247.700 446.575, 259.161 447.665, 270.968 448.470 C 288.748 449.683, 292.860 450.252, 294.905 451.778 C 296.263 452.792, 297.532 454.095, 297.725 454.674 C 297.918 455.253, 296.246 455.972, 294.011 456.272 C 291.775 456.572, 283.321 456.618, 275.223 456.374 C 267.125 456.131, 258.025 455.522, 255 455.021 C 251.975 454.519, 245.900 453.817, 241.500 453.460 C 237.100 453.103, 232.150 452.645, 230.500 452.442 C 228.850 452.240, 220.525 451.771, 212 451.400 C 203.475 451.029, 195.600 450.247, 194.500 449.662 C 193.400 449.076, 190.925 448.515, 189 448.415 C 187.075 448.315, 180.550 447.920, 174.500 447.538 C 168.450 447.156, 162.600 446.476, 161.500 446.027 C 160.400 445.578, 156.523 444.714, 152.885 444.106 C 149.246 443.498, 144.724 443, 142.835 443 C 140.946 443, 138.972 442.574, 138.450 442.054 C 137.927 441.533, 130.637 440.544, 122.250 439.855 C 113.862 439.166, 107 438.277, 107 437.880 C 107 437.484, 105.762 436.889, 104.250 436.559 C 102.737 436.229, 98.216 435.900, 94.202 435.828 C 89.654 435.746, 86.450 436.153, 85.702 436.907 C 84.764 437.851, 85.532 439.094, 89.192 442.559 C 93.102 446.260, 94.536 447, 97.803 447 C 99.958 447, 106.172 447.882, 111.611 448.961 C 117.050 450.039, 127.575 451.639, 135 452.515 C 142.425 453.391, 150.399 454.533, 152.721 455.052 C 155.042 455.571, 162.917 456.449, 170.221 457.003 C 177.524 457.557, 188 458.674, 193.500 459.485 C 199 460.297, 205.975 460.986, 209 461.015 C 212.025 461.045, 218.100 461.722, 222.500 462.520 C 226.900 463.318, 235.675 464.223, 242 464.532 C 248.325 464.840, 259.350 465.755, 266.500 466.564 C 273.650 467.373, 287.484 468.419, 297.242 468.888 C 307 469.358, 315.550 470.199, 316.242 470.757 C 316.934 471.315, 327.015 472.250, 338.644 472.836 C 356.519 473.736, 360.276 474.197, 362.949 475.823 C 365.951 477.649, 366.023 477.834, 364.375 479.482 C 362.791 481.066, 360.226 481.186, 335.271 480.841 C 313.542 480.541, 307.730 480.182, 307.061 479.099 C 306.428 478.075, 302.507 477.638, 291.359 477.351 C 283.186 477.141, 271.325 476.557, 265 476.053 C 258.675 475.550, 247.425 474.634, 240 474.018 C 232.575 473.402, 220.200 472.050, 212.500 471.014 C 204.800 469.978, 194 468.856, 188.500 468.522 C 183 468.187, 177.150 467.517, 175.500 467.033 C 173.850 466.549, 169.575 465.872, 166 465.529 C 162.425 465.185, 154.325 464.567, 148 464.154 C 141.675 463.741, 135.490 462.848, 134.255 462.170 C 133.021 461.491, 128.071 460.553, 123.255 460.086 C 118.440 459.618, 113.263 458.744, 111.750 458.143 C 110.238 457.542, 107.651 457.320, 106 457.650 C 104.350 457.980, 103 458.604, 103 459.036 C 103 459.468, 104.370 460.975, 106.045 462.385 C 107.720 463.794, 110.758 465.394, 112.795 465.940 C 114.833 466.486, 123.925 467.423, 133 468.022 C 142.415 468.643, 152.506 469.911, 156.500 470.974 C 160.350 471.999, 167.325 473.160, 172 473.555 C 176.675 473.950, 181.568 474.671, 182.874 475.159 C 184.180 475.646, 191.155 476.500, 198.374 477.057 C 205.593 477.614, 213.525 478.545, 216 479.126 C 218.475 479.706, 226.382 480.578, 233.571 481.063 C 240.760 481.549, 249.535 482.598, 253.071 483.396 C 256.607 484.194, 265.350 485.339, 272.500 485.940 C 279.650 486.542, 288.875 487.482, 293 488.029 C 297.125 488.577, 311.975 489.475, 326 490.026 C 340.025 490.577, 353.525 491.514, 356 492.108 C 358.475 492.703, 367.700 493.581, 376.500 494.058 C 385.300 494.536, 394.188 495.217, 396.250 495.573 C 398.658 495.988, 400 495.834, 400 495.144 C 400 494.553, 397.413 490.185, 394.250 485.439 C 391.087 480.692, 388.050 476.048, 387.500 475.118 C 386.950 474.188, 383.604 469.843, 380.064 465.463 C 376.525 461.083, 371.361 455.025, 368.589 452 C 365.817 448.975, 362.455 445.747, 361.117 444.827 C 359.582 443.770, 355.701 442.940, 350.592 442.574 C 346.142 442.255, 333.945 441.801, 323.489 441.564 C 312.073 441.305, 301.686 440.536, 297.489 439.638 C 293.645 438.816, 284.650 437.901, 277.500 437.605 C 269.957 437.292, 262.401 436.404, 259.500 435.489 C 256.259 434.467, 249.046 433.737, 239 433.415 C 230.475 433.142, 220.350 432.272, 216.500 431.481 C 212.650 430.690, 202.300 429.353, 193.500 428.510 C 184.700 427.667, 173.450 426.540, 168.500 426.006 C 163.550 425.472, 156.544 425.028, 152.932 425.018 C 149.319 425.008, 144.088 424.324, 141.308 423.499 C 138.528 422.673, 129.559 421.586, 121.377 421.082 C 113.194 420.579, 101.325 419.188, 95 417.992 C 88.675 416.796, 82.719 415.408, 81.764 414.908 C 80.809 414.409, 78.634 414, 76.930 414 C 74.932 414, 73.978 413.566, 74.241 412.776 C 74.466 412.102, 76.191 411.185, 78.075 410.738 C 79.959 410.290, 86.335 409.919, 92.244 409.912 C 98.153 409.906, 113.978 410.393, 127.410 410.996 C 140.843 411.599, 153.333 412.547, 155.167 413.103 C 157 413.659, 167.736 414.521, 179.025 415.020 C 190.370 415.521, 202.222 416.581, 205.525 417.391 C 208.811 418.197, 218.250 419.147, 226.500 419.502 C 234.750 419.858, 243.094 420.557, 245.042 421.056 C 246.989 421.556, 256.214 422.654, 265.542 423.496 C 274.869 424.339, 283.175 425.280, 284 425.587 C 284.825 425.895, 293.825 426.790, 304 427.576 C 314.175 428.363, 324.750 429.423, 327.500 429.932 C 330.250 430.442, 339.025 431.134, 347 431.471 C 358.039 431.937, 362.445 431.754, 365.459 430.705 C 369.419 429.327, 369.419 429.327, 372.220 413.413 C 373.761 404.661, 375.468 395.025, 376.012 392 C 376.557 388.975, 378.142 378.400, 379.534 368.500 C 380.925 358.600, 382.918 347.125, 383.961 343 C 385.005 338.875, 386.340 332.229, 386.929 328.231 C 387.518 324.234, 388 318.357, 388 315.173 C 388 311.629, 388.570 308.629, 389.468 307.441 C 390.276 306.374, 390.951 305.163, 390.968 304.750 C 390.986 304.337, 390.178 304, 389.174 304 C 388.170 304, 386.469 305.012, 385.395 306.250 M 415.625 459.798 C 415.354 460.237, 415.545 461.249, 416.051 462.048 C 416.768 463.182, 416.973 463.007, 416.985 461.250 C 416.993 460.012, 416.802 459, 416.559 459 C 416.316 459, 415.896 459.359, 415.625 459.798" stroke="none" fill="#0f0c11" fill-rule="evenodd"/></svg>