<svg xmlns="http://www.w3.org/2000/svg" viewBox="0 0 512 512"><path fill="#bdc9c8" fill-rule="evenodd" d="M374 52c-4.5 4-4.5 4 .2 4 3 0 5.2-.6 6.3-1.6a5 5 0 0 0 1.3-3.8c-.2-1.1-1-2.2-1.9-2.4-.8-.1-3.5 1.5-6 3.7m-262.6 71.6c-2 1.4-2.3 2.5-2.3 8.8 0 4-1 14.8-2 24.2-1 9.3-2.6 19.7-3.4 23-.8 3.3-2 6.1-2.5 6.3-.6.2-1.1 1.5-1.1 2.8 0 1.4-.9 4.2-2 6.4s-2 4.6-2 5.4a30 30 0 0 1-2.5 6.8 27 27 0 0 0-2.5 7.6c0 1.2-2.3 6.6-5.1 12L78.2 241a39.7 39.7 0 0 1-3.2 5c-.3.3-1.8 2.6-3.2 5.1a142 142 0 0 1-16.4 22.8 168.6 168.6 0 0 1-20.2 22.6c-6.2 6-12.6 11.7-14 12.7l-6 3.9c-1.7 1.2-3.2 2.5-3.2 3 0 .4 1.5 1.2 3.3 1.8 1.7.6 7.5 1.7 12.7 2.6 5.2.9 14.9 2.6 21.5 4 6.6 1.3 14.3 2.6 17 3 2.8.3 9.5 1.4 15 2.5a9374 9374 0 0 0 42 8 37034.6 37034.6 0 0 1 48.6 9.6c3.7.8 8.2 1.4 10 1.4 1.9 0 5.2.7 7.4 1.5s6 1.7 8.5 2a1585 1585 0 0 1 78.5 15.9c3.9.8 11 2 15.8 2.6 6 .7 9.9.8 12.5 0 2-.5 6.8-3.5 10.7-6.7 3.9-3.1 11-9.3 16-13.7 5-4.3 11.9-11.1 15.4-15l13.5-15a145.4 145.4 0 0 0 20.4-27.6l8.3-14.5a359.7 359.7 0 0 0 16.3-32.5c.4-1.4 2.3-6.1 4.3-10.5l6.9-15.2a146.9 146.9 0 0 0 10.4-35.1c2-10.8 2-11.4.3-14.3-1.4-2.4-2.4-2.9-5.5-2.9-2 0-6-.5-9-1-3-.6-8.2-2-11.8-3l-15.5-4c-5-1-10.3-2-11.7-2-1.4 0-4.4-.7-6.7-1.5a76 76 0 0 0-12.3-2.5c-4.4-.5-10.4-1.6-13.2-2.4-2.8-.8-8.3-2.2-12.1-3-3.9-1-13.3-2.5-21-3.6-7.7-1-18.3-2.6-23.6-3.5-5.4-.8-10.9-2-12.3-2.5a94 94 0 0 0-13.9-2c-6.1-.6-15-1.8-19.7-2.6a278 278 0 0 0-19-2.4c-5.8-.5-12.5-1.3-15-1.9-2.5-.5-9.2-1.2-15-1.6-5.8-.3-15.7-1.2-22-2a723.5 723.5 0 0 0-46.5-4c-6.5-.6-8.4-.4-10.3 1m22.8 18.1a32.6 32.6 0 0 0-6 8.5c-2.3 4.5-3 7.2-3 11.6 0 4.6.5 6.6 2.5 9.6 1.4 2 3.6 3.9 4.8 4.1 1.2.3 5.1.7 8.7 1 3.6.1 8 1 9.7 2 1.8.9 5.1 1.6 7.5 1.6 3.4 0 5.2-.7 8-3 2.7-2.2 3.8-4 3.8-5.8 0-1.5 1.2-5 2.5-7.7a25 25 0 0 0 2.5-6.8c0-1-.7-3.4-1.6-5.3-.9-1.8-2.6-4.5-4-5.9-1.9-2-3.2-2.5-7.4-2.5-3.1 0-6.6-.8-9-2-2.6-1.3-5.9-2-9.9-2-5 0-6.5.4-9 2.6m58.5 8c-1 .7-2.8 2.6-3.8 4.1-1 1.6-1.8 3.8-1.8 5 0 1.3-.9 3.7-2 5.5-1.3 2.1-2 5-2 8.2 0 4.3.4 5.3 3.9 8.7 2.5 2.6 4.8 3.9 6.5 3.9 1.5 0 4.4.9 6.6 2 3 1.5 5.9 2 12.5 2 8.3 0 8.6 0 12.3-3.4 3.7-3.4 3.7-3.4 4-16.6.3-11 .1-13.5-1.3-15-.8-1-3.6-2-6-2.4-2.5-.3-5.9-1.2-7.5-2-2-1-5.7-1.6-11.2-1.6-5.7 0-9 .5-10.2 1.5m58 8.6c-1.5 1.2-4 4.7-5.6 7.8-1.9 3.9-3 8-3.5 12.9-.4 3.9-.5 8.3 0 9.7.4 2 2 3.3 7.1 5.6 6 2.7 7.5 2.9 18.2 2.9 9.6 0 12-.4 13.8-1.8 1.2-1 3.1-3.6 4.3-6 1.6-3.2 2.1-6 2.1-12.3 0-5.7-.5-9-1.6-10.9-1-1.5-3-3.5-4.4-4.4-1.6-.9-4.8-1.6-7.2-1.6-2.6 0-5.5-.8-7.3-2-2-1.3-4.7-2-8.1-2-3.7 0-5.9.6-7.8 2.1m59.8 11.5a21 21 0 0 0-6.7 7.7c-3.4 5.7-3.7 6.8-3.7 14 0 7 .2 8 3 11 2.8 3.2 2.8 3.2 15.7 3.5 10.5.3 13.4 0 15.9-1.3 1.8-1 4.5-4.2 6.7-8 3.3-5.4 3.7-7 3.7-12.9 0-3.7-.5-7.6-1-8.7-.6-1-2-1.9-3-1.9-1.2 0-4.7-1.1-8-2.5a29 29 0 0 0-12.7-2.5c-4 0-8 .7-9.9 1.6m51.4 14.4c-2.5 2.5-3.8 4.7-3.8 6.4 0 1.5-.9 4.4-2 6.6-1.3 2.5-2 5.9-2 9.4 0 5.6 0 5.6 6 8.6 5.5 2.8 6.7 3 16.8 3 9.7 0 11.2-.2 13.7-2.2 1.5-1.1 4-4 5.6-6.1 2.8-3.8 2.9-4.5 2.9-14.8 0-10.2-.1-11-2.3-12.3-1.5-1-6.7-1.5-16.7-1.9-14.4-.5-14.4-.5-18.2 3.3m-243 7.8a24.1 24.1 0 0 0-6.8 19c0 6.3.4 8.2 1.8 9.5 1 .8 4 2.7 6.6 4.1 4.5 2.4 5.9 2.6 17.2 2.6 11.4 0 12.5-.2 14.4-2.2 1.8-2 2-3.5 2-15.1 0-13 0-13-3.9-16.8-3.9-3.9-3.9-3.9-16.3-3.9-12.3 0-12.5 0-15 2.8m53.1 7.5a11.8 11.8 0 0 0-4.2 5.2l-3.3 9.3a36.7 36.7 0 0 0-2.4 8.8c0 1.4.7 3.8 1.5 5.4.9 1.7 3.3 3.9 5.5 5 2.1 1.1 4.8 2 6 2 1 0 3 .5 4.5 1.2 1.4.6 2.5 1.5 2.5 2 0 .4 4.5.8 10 .8 10 0 10 0 13-6.5 2.7-6 3-7.5 3-16.8 0-5.6-.4-10.7-.8-11.4-.4-.7-4-2.6-8-4.3a31 31 0 0 0-15.5-3c-7 0-9 .4-11.8 2.3m52.6 10c-2.1 2.1-3.5 4.5-3.5 6 0 1.3-1.1 4.5-2.5 7.1a22 22 0 0 0-2.5 8.3c0 2 1 5.1 2.1 7 1.3 2.1 4.2 4.5 8 6.3 5.5 2.8 6.6 3 17.3 3 6.3 0 12.6-.5 14-1.1 1.3-.6 2.9-2.2 3.5-3.6.6-1.3 1.1-5.6 1.1-9.5 0-4 .5-8.5 1-10.2 1-2.4.8-3.9-.3-6.6-.9-2-2.6-4-3.9-4.6l-7.3-3c-3-1-8.7-1.9-14.3-2.1-9.3-.4-9.3-.4-12.7 3m58.9 9.5a15.6 15.6 0 0 0-4.4 9.7c0 1.4-1.1 4.8-2.5 7.6-2.2 4.2-2.4 5.5-1.6 8.6a16.2 16.2 0 0 0 11 10.3c2 .5 4.8 1 6.2 1 1.5 0 4.6.9 7 2 2.4 1 6.1 2 8.2 2 2.1 0 4.8-.5 6-1.1 1.2-.6 3.2-2 4.4-3.2 1.9-1.7 2.3-3.1 2.3-7.6 0-3.7.7-7 2-9.4 1.1-2 2-5.6 2-8 0-2.3-.7-5.2-1.5-6.4-.8-1.2-4-3-7-4.2-4.6-1.7-7.9-2.1-18.3-2-7 0-13.2.3-13.8.7m57 11.6c-1.9 1.9-3.4 4.2-3.4 5.3 0 1-1 3.3-2 5-1.5 2.5-2 5-2 10 0 3.8.6 7.5 1.3 8.3.7.9 2.3 2.4 3.7 3.3 1.3 1 3.5 1.7 4.8 1.7 1.2 0 4 .9 6.2 2 3 1.6 5.9 2 13 2 4.9 0 10-.5 11.4-1.1 1.5-.7 3.7-3.7 5.8-7.8 2.8-5.6 3.3-7.7 3.3-13.8 0-6.6-.2-7.4-2.9-10.2a33.9 33.9 0 0 0-8.3-5.5c-4.7-2.3-6.6-2.6-16.4-2.6-11.1 0-11.1 0-14.5 3.4m-241.5 4.2c-.9.3-2.3 2-3.3 3.7l-5.1 9.2a20.2 20.2 0 0 0-2.5 17.6c.6 1 3.3 3 6 4.4 3 1.5 7.5 2.7 11.2 3 3.5.4 8 1 9.9 1.7 2.8.8 4.2.7 6.5-.5 1.6-.8 4-2.5 5.2-3.7a7.4 7.4 0 0 0 2.2-5.5c0-1.9.9-5 2-6.7 1.4-2.3 2-5 2-9.3 0-3.3-.4-6.5-.8-7-.4-.6-3-2.4-5.7-4-4.5-2.5-6.1-2.8-15.5-3a87 87 0 0 0-12 .1m-1.6 2.6c-.4.7-.3.8.4.4s1.2-1 1.2-1.2c0-.2-.2-.4-.4-.4-.3 0-.8.5-1.2 1.2m51.3 8a58 58 0 0 0-7 12.8 75.7 75.7 0 0 0-4.7 12.3c0 1 .7 3 1.5 4.6.8 1.6 3 3.6 4.9 4.5 1.9.9 5.4 1.6 7.8 1.6 2.6 0 5.5.8 7.3 2 2.1 1.4 4.7 2 8.9 2 5.4 0 6.1-.3 9-3.3a54 54 0 0 0 6.8-12.4c2.1-5 3.8-10.4 3.8-12.1 0-2.2-1-4.2-3.4-6.7-2.8-2.9-4.1-3.5-7.6-3.5a11 11 0 0 1-6.7-2c-2-1.6-4-2-10.4-2-6.7 0-8.1.3-10.2 2.3m54.6 10.6c-2.3 1.4-4.3 4.4-7.4 10.8-2.3 5-4.4 10.9-4.7 13.5-.3 3 0 5.3.8 6.3.6.8 3.7 2.6 6.7 4 5 2.3 6.7 2.5 18.8 2.5 11.8 0 13.5-.2 15.8-2 1.6-1.3 2.9-3.6 3.3-5.7.4-2 1.6-5.1 2.6-7 1.5-2.4 1.8-4.7 1.6-10-.3-6.8-.3-6.8-6.3-10-5.3-2.7-7.3-3.1-17-3.7-9.8-.5-11.3-.4-14.2 1.3m263.7 4c-.5 1.1-1 2.5-1 3.1 0 .7-.6 2.6-1.4 4.3-.7 1.8-1.9 5.4-2.6 8.2a683.2 683.2 0 0 0-6.5 29.3c-.3 1.2 0 2.2.5 2.2s1-.6 1-1.4c0-.8 1-3.6 2-6.3 1.2-2.6 3.3-8.4 4.6-12.8 1.4-4.4 3.4-11.3 4.4-15.4 1.1-4 2-8.6 2-10.2 0-1.6-.4-2.9-1-2.9-.5 0-1.4.9-2 2m-208.8 6.5a31.7 31.7 0 0 0-6 10c-2 4.7-3.2 9.1-3.2 12 0 2.6.7 6 1.7 7.5.9 1.6 2.8 3.4 4.2 4 1.4.7 8.5 1.4 15.7 1.7 7.2.3 14.6.3 16.5 0 2.8-.6 4-1.6 5.7-5a123 123 0 0 1 4.3-7.4c1.4-2.3 2-5.1 2.2-9.7.1-5.2-.2-6.8-1.8-8.6-1.1-1.3-4.4-3.3-7.3-4.6-4.6-2-6.8-2.4-17.2-2.4-11.1 0-12 .1-14.8 2.5m59.8 7.3c-2.6 1.5-4.6 4.2-8.7 11.8-3.9 7.3-5.3 11-5.3 14 0 2.5.7 5 1.8 6.3 1 1.1 5 3.4 8.9 5 5.7 2.5 8.6 3.1 14.3 3.1 5 0 8.2-.6 11-2 2-1 5-3.4 6.5-5.2 1.5-1.8 4.7-7.3 7-12.2 2.4-4.8 4-9.6 3.8-10.5-.3-.9-1.3-2.4-2.2-3.5-.9-1-2.8-2.4-4.3-3.2-1.5-.8-4.9-1.4-7.6-1.4-2.7 0-6.4-.8-8.3-1.7-1.8-1-5.6-1.8-8.4-2-3.6-.3-6 .1-8.5 1.5m-246.7 4.4a61.7 61.7 0 0 0-11 9.8 148 148 0 0 0-8.6 10 10 10 0 0 0-1.7 4.5c0 1.2 1.2 3.2 2.8 4.6 1.5 1.4 4.3 3.2 6.3 4.1 2.2 1 8 2 15 2.3 9.5.6 12 .5 14.5-.8 1.6-.8 5-3.7 7.6-6.4 2.5-2.6 6.2-8 8.2-12.1 3.6-7.2 3.7-7.3 1.8-9.8-1-1.5-4.8-3.8-9-5.5a33 33 0 0 0-14.5-2.9c-5.6 0-8.2.5-11.4 2.3m54.2 8.1c-1.7.7-4.3 2.8-5.9 4.7-1.5 1.9-4.6 6.3-6.8 9.9-3 4.8-4.3 7.8-4.6 11.6-.4 4.4 0 5.4 1.9 7.3 1.9 1.8 3.5 2.1 9.8 2.1 6 0 8.1.5 10.1 2 1.6 1.3 4 2 7 2 2.6 0 5.6-.7 7.1-1.8a40.4 40.4 0 0 0 12-15c1-2.5 1.9-6.7 1.9-9.8 0-5.4 0-5.4-5-7.9a21.5 21.5 0 0 0-10.4-2.5c-3.7 0-6.7-.7-9.1-2-2-1.1-3.9-2-4.3-2-.4 0-2 .7-3.7 1.4m52 11.6c-1.2.4-3.7 2.8-5.8 5.3a23 23 0 0 0-3.7 5.5c0 .5-.8 1.6-1.8 2.5-1 1-3 4.9-4.2 8.8-1.8 5.2-2.1 7.5-1.4 8.7.6 1 2.6 2.7 4.4 4 1.9 1.2 4.8 2.2 6.9 2.2 2 0 5.6 1 8 2a26 26 0 0 0 9.6 2c3.8 0 6.1-.6 8.6-2.3 2.3-1.5 5.2-5.4 8.6-11.7 3.4-6 5.3-10.7 5.3-12.8 0-1.8-.4-4.1-1-5.1-.5-1-2.2-2.7-3.7-3.7-2-1.4-5.3-2-11.8-2.5-5-.3-10.6-1.2-12.5-2.1-2.2-1-4.3-1.3-5.5-.8m275.1 15.5c-1 3.3-2.1 6.9-2.6 8a43 43 0 0 0-3 13.4c0 1.6.4 2.1 1 1.6.4-.6 2.2-6.6 4-13.4a82 82 0 0 0 2.7-14c-.2-.9-1.1 1.1-2 4.4m-225.3 2.9a31.3 31.3 0 0 0-11.4 21.3c0 2.6.8 4.5 2.7 6.5 2.2 2.3 3.5 2.8 7.5 2.8 3 0 6 .7 8 2 1.8 1 4.7 2 6.4 2 1.7 0 6.1-1.4 9.8-3 5.6-2.6 6.8-3.5 7.3-6 .3-1.7 1.1-3 1.9-3 .7 0 2.4-1 3.8-2.3 2.3-2 2.6-3 2.8-11 .1-5.5-.2-9.1-1-9.9-.6-.6-3.3-1.5-5.9-1.9-2.6-.4-7.3-.8-10.4-.8-3.2 0-6.3-.7-7.5-1.6a9 9 0 0 0-4.5-1.5c-1.9 0-4.6 1.8-9.5 6.4m56.7 7.5c-1.2 1.2-2.1 2.5-2.1 3 0 .4-1.4 2.6-3.1 4.7a51.8 51.8 0 0 0-5.6 9.4 21.3 21.3 0 0 0-2.1 9c.2 2.6 1 3.8 2.9 4.7 1.9 1 6.5 1 17.2.6 14.7-.6 14.7-.6 18.9-4.5 2.3-2 4.7-3.8 5.3-3.8.7 0 2.4-1 3.8-2 1.4-1.2 4-4.2 5.8-6.8 2.5-3.7 3-5.1 2.3-7.2-.6-1.7-2.8-3.5-6.9-5.5-5.7-2.8-6.8-3-20.2-3.3-13.2-.3-14.3-.2-16.2 1.7m97 2.7c0 1.1.3 1.4.6.6.3-.7.2-1.6-.1-2-.3-.3-.6.3-.5 1.4m-2.4 7.5c-1 2.1-1.7 4.3-1.7 4.8s-1.8 5.1-4 10.4a286 286 0 0 1-15.6 31.8 39.6 39.6 0 0 1-6.9 8.5 65 65 0 0 1-14.4 9.4 54.2 54.2 0 0 1-11.7 4.1c-4.3.8-7.6.7-14.6-.5-5-.9-9.6-2-10.3-2.6a82 82 0 0 0-16.1-2c-8.2-.5-17.6-1.6-20.9-2.5-3.3-.8-8.6-2.3-11.8-3.5-3.4-1.2-11.6-2.6-20.2-3.5-8-.8-18.2-2.3-22.7-3.4-4.6-1.1-14.6-3.1-22.4-4.4-7.8-1.4-15.5-3.2-17.3-4.1-1.8-1-8.8-2.3-16.9-3.1-7.5-.8-21.1-3-30.2-4.9-9-1.9-19.7-4-23.5-4.6-3.8-.7-10.4-2.3-14.5-3.5-4.1-1.3-10.2-2.9-13.5-3.5-3.3-.7-7-1.8-8.1-2.5-2-1.3-2.2-1.2-2.8.8-.3 1.2-.6 11.3-.6 22.3 0 16.9-.3 20.4-1.5 21.4-1.4 1.1-1.3 1.5.6 3.3 1.9 1.7 4.2 2.1 16.8 2.8 8 .4 23.6 1 34.6 1.3 11 .3 22.4 1 25.4 1.6 3 .5 14.6 1.4 26 2 11.3.6 24.2 1.7 28.6 2.4 4.4.8 14 1.8 21.5 2.1 7.4.4 16.7 1.3 20.7 2a91 91 0 0 0 14.5 1.5c4 0 11.4.5 16.3 1 5 .6 10.4 1.5 12 2 1.6.5 10.2 1.4 19 1.9s17.3 1.5 19 2c1.6.7 9.3 1.4 17 1.7 7.7.3 16.5 1 19.5 1.6 3 .6 8 1.3 11.2 1.5 5.6.5 5.6.5 7.3-7.4 1-4.3 2-9.2 2.6-10.8.5-1.7 1.5-8 2.3-14a879.7 879.7 0 0 1 7.7-47c1-5.5 2-12.2 2-14.8.1-2.6 0-5-.3-5.2-.2-.2-1.1 1.4-2 3.6m66 11.8c-.5 1.8-.8 4.5-.7 6 0 2.6 0 2.6 1 .1.6-1.3.9-4 .7-6-.3-3.5-.3-3.5-1-.1m-8 44.1c-.4 1.4-.8 4.3-.8 6.5 0 3.2.3 3.7 1 2.2.6-1 1-3.9.8-6.5-.2-3.8-.4-4.2-1-2.2m-5.2 24a17 17 0 0 0 .2 7c1 2.4 1 2.4 1.7-1.3.4-2.1.3-5.3-.2-7-1-3.2-1-3.2-1.7 1.3"/><path fill="#626a8f" fill-rule="evenodd" d="M205.6 16.5c-1.1.8-2.8 1.5-3.8 1.5s-3.6.9-5.8 2c-2 1-6.4 5-9.4 8.5a38 38 0 0 0-5.6 7.7c0 .6-1.3 3.2-2.8 5.7a25 25 0 0 0-3.6 12.6c-.4 4.4-1.4 9-2.2 10.2-1 1.7-1.4 5.7-1.4 15.7 0 13.4 0 13.4 3.4 15.5 2.6 1.6 5 2.1 10.7 2 4 0 8-.3 8.7-.8.8-.4 1.7-3.6 2.1-6.9a21 21 0 0 1 2-7.6c.9-1 1.6-5.4 1.9-11.4.5-9.4.6-10 5.9-19.8 5.1-9.7 5.6-10.3 11.4-13.4 5.4-2.8 6.3-3 7.6-1.8 1.3 1.3 1.2 2-.5 4.8-1.1 1.8-1.8 3.9-1.5 4.6.4 1 2.6 1.4 8.2 1.4 4.7 0 8.2-.5 8.9-1.2.7-.7 1.2-2.6 1.2-4.3 0-1.7-1.4-5.7-3-8.7-1.7-3.1-4.8-7.2-7-9.2-2.2-2-5.2-3.8-6.7-4.2a65 65 0 0 1-7.7-2.5c-2.7-1-5.8-1.9-7-1.9-1.1 0-3 .7-4 1.5m169.9 28.2a53 53 0 0 0-18.6 22 42 42 0 0 0-3.9 11c0 1.6-.7 3.9-1.6 5.1-1.1 1.6-1.7 5.7-2 15-.3 7-.2 15.2.3 18.2.8 5.5.8 5.5 9.3 6.3 4.6.5 9.9.6 11.6.2 3.2-.6 3.2-.6 4-8.3.3-4.2 1.2-8.6 1.8-9.7.7-1.1 1.6-4.8 2-8.3.3-3.4 1.3-7.6 2-9.2 1-1.6 2-5 2.6-7.7.8-3.5 2.2-6 5.5-9.4 3-3.2 6-5.2 9.5-6.3 3.7-1.2 5.5-1.4 7-.6 1.1.6 2 1.4 2 1.8a16 16 0 0 1-3.8 3.9c-3.7 3.2-3.7 3.2-1.4 5.5 2 2 3.2 2.3 10 2.3 7.7 0 7.7 0 8-4.4.3-3.4-.5-6-3.2-11.6a37.7 37.7 0 0 0-8.5-11.8 24.2 24.2 0 0 0-8.2-5 92 92 0 0 0-12.3-.7c-6.3 0-10 .6-12.1 1.7m-1.6 7.2c-4.4 4-4.4 4 .3 4 3 0 5.2-.5 6.3-1.5a5 5 0 0 0 1.3-3.8c-.2-1.1-1-2.2-1.9-2.4-.8-.1-3.5 1.5-6 3.7m-252.8 5.4c-1.3.6-3.8 3-5.5 5-3.1 3.9-3.1 3.9-3.7 26.5-.3 12.5-.2 23 .1 23.5.3.4 7.8 1 16.6 1.2 8.7.3 17.7 1 19.9 1.4 2.2.5 11.2 1.5 20 2.1a188 188 0 0 1 21.5 2.6c3 .7 10.7 1.6 17 2 6.3.3 14.7 1.2 18.5 2A337.3 337.3 0 0 0 269 129c6.3.4 12.6 1.2 14 1.8 1.4.6 9.7 2 18.5 3.2l25.5 3.5c5.2.8 14.2 2.3 20 3.5l17.5 3.4 20 3.6a259 259 0 0 1 20 4c3.9 1.1 9.7 2.4 13 3 3.2.5 7.5 1 9.4 1 2.6 0 4.6-1 7.2-3.3 3.1-2.8 4.2-5 8.2-17.7a451.9 451.9 0 0 0 7.6-26.5c.5-2.2 2-4.8 3.2-5.8 1.7-1.3 1.9-2 1-3.1-.7-.8-3.7-1.6-6.9-1.9-3.1-.3-8.8-1.2-12.7-2-3.9-1-13.5-2.8-21.5-4.3a108 108 0 0 0-19.4-2.1c-2.6.2-5.2 1-5.6 1.8-.5.7-.4 2.1.1 3.2.6 1 3.1 4.2 5.7 7 2.6 2.9 5.8 7.5 7 10.4 2.4 5 2.4 5-.4 10.4-2 3.7-4.6 6.5-8.3 9.1-5.4 3.8-5.4 3.8-21.8 3.8-16.3 0-16.3 0-26.1-5a65.3 65.3 0 0 1-12.8-8c-2.6-2.9-2.9-3.7-2.8-9.8 0-4.2.7-7.9 1.7-10 1-1.7 3.7-5.6 6.2-8.7 4-5 4.5-6 4.5-10.8 0-4.3-.5-5.8-2.3-7.4-1.7-1.7-3.9-2.2-9.7-2.6-4.1-.2-12.3-1.1-18.2-2-5.9-.9-13-2.3-16-3.1-3.1-1-9-1.6-15.2-1.6-6 0-12.4-.7-15.6-1.5a161.6 161.6 0 0 0-37.4-4.5c-10.8 0-10.8 0-14.7 3.9-2.2 2.1-3.9 4.8-3.9 6 0 1.2 1.9 4 4.4 6.4 2.4 2.3 5 5.6 6 7.4.9 1.8 1.6 5.6 1.6 8.7 0 4.8-.4 5.8-3 8.5a13 13 0 0 1-4 3.1 31 31 0 0 0-6 3c-5 3-5.3 3-19.7 3-12.4 0-15-.3-18.2-2-2-1-5-2.1-6.5-2.5-1.6-.3-5-2.6-7.3-5a18.3 18.3 0 0 1-5.3-8c-.5-2.2-.6-6-.3-8.6.4-3.8 1.3-5.5 4.5-8.6 2.1-2 4.7-5.5 5.8-7.5 1.1-2 2-5.5 2-7.8 0-4 0-4-19.3-4-13.2 0-20 .4-21.6 1.3m335.7 49.3c-.3.5-.9 5.4-1.2 10.9l-1.2 14a70.8 70.8 0 0 1-4.3 15.1 52 52 0 0 0-4.8 16.6c-.5 4 0 6.1 3.2 13.5 2 4.9 8 17.6 13 28.3 5.1 10.7 9.8 21.5 10.4 24l1.7 7.8c.4 2.5 1.4 3.7 3.6 4.7 3.1 1.2 3.1 1.2 8.4-9.4 2.9-5.8 7.2-15 9.5-20.3 4.2-9.8 4.2-9.8 2-15a31.5 31.5 0 0 1-2.1-6.4c0-.8-2-5.8-4.6-11.1-2.6-5.4-5.2-11-6-12.3a86.4 86.4 0 0 0-6.5-16.3c-2.1-4.5-3.9-9-3.9-10 0-.9-1.5-4.5-3.3-8a218.8 218.8 0 0 1-8.6-19.2c-.7-1.7-2-4-3-5.4-1-1.3-2-2-2.3-1.5m-346.1 14.2c-2.4 2.5-2.7 3.6-2.7 9.8a165 165 0 0 1-4 31.3c-.5 1.9-1.2 6.8-1.6 11-.4 4.2-1.3 8.5-2 9.6a9 9 0 0 0-1.4 4.3c0 1.3-.7 3-1.5 3.8-.8.9-1.5 2.6-1.5 4 0 1.3-1.2 5.4-2.6 9.1-1.4 3.8-4 10-5.8 13.7a398.4 398.4 0 0 1-17.1 32.1c-1 1.1-2.8 4.3-4.2 7-1.4 2.8-4.2 7-6.2 9.5l-9 11a249.6 249.6 0 0 1-36 34c-1.5 1.4-3.6 3-4.6 3.6-1.6 1-1.8 1.6-.9 3 .8 1.4 4.1 2.4 13.5 4.1l22.4 4.2a321 321 0 0 0 15 2.6c2.8.4 7.5 1.3 10.5 2 3 .8 9.1 1.9 13.5 2.5 4.4.6 13.4 2.2 20 3.6a957 957 0 0 0 17.5 3.5 764.5 764.5 0 0 0 52 9.4 62 62 0 0 1 10 2c2.5.8 8.3 2.1 13 3a413 413 0 0 1 17.5 3.5c5 1.2 13 2.8 18 3.5 5 .8 14.2 2.6 20.5 4 6.3 1.4 17.8 3.7 25.5 5.2 7.7 1.4 16.6 2.8 19.7 3 5.1.4 6.3.1 11.8-3.1 3.4-2 10-6.9 14.8-10.8 4.8-4 13.6-12.2 19.7-18.3a511 511 0 0 0 17-18c3.3-3.7 9-10.8 12.5-15.6 3.6-4.9 7.6-11 9-13.6a426 426 0 0 1 8.5-15.3l9.8-17.2c2-3.8 6.3-13.4 9.6-21.5a2289 2289 0 0 1 9.5-23.5 276.3 276.3 0 0 0 11.2-41.2c.5-3 .2-5-.6-6a4.7 4.7 0 0 0-3.1-1.6c-1 0-1.9.2-1.9.5s.7 1.6 1.5 3c1.4 2 1.4 3.3-.5 13.6a146.9 146.9 0 0 1-10.5 35.2l-6.8 15.2c-2 4.4-3.9 9.1-4.3 10.5-.3 1.4-3 7.4-6.1 13.5-3 6-7.6 14.6-10.2 19l-8.4 14.5a145.4 145.4 0 0 1-20.3 27.6l-13.5 15a229.5 229.5 0 0 1-15.4 15c-5 4.4-12.1 10.6-16 13.7a41.9 41.9 0 0 1-10.7 6.8c-2.6.7-6.6.6-12.5-.1-4.9-.6-12-1.8-15.8-2.6l-18-4a1585 1585 0 0 0-60.5-11.8 51 51 0 0 1-8.5-2c-2.2-.9-5.5-1.5-7.4-1.6-1.8 0-6.3-.6-10-1.4a2162.3 2162.3 0 0 0-48.6-9.7A4183.2 4183.2 0 0 0 28 320.5c-5.2-.9-11-2-12.8-2.6-1.7-.6-3.2-1.4-3.2-1.9 0-.4 1.5-1.7 3.3-2.9l5.9-3.9c1.4-1 7.8-6.7 14-12.7a168.6 168.6 0 0 0 20.2-22.6A183.3 183.3 0 0 0 75 246c.3-.3 1.8-2.5 3.2-5l7.7-14.2a54.2 54.2 0 0 0 5.1-12 27 27 0 0 1 2.5-7.6c1.4-3 2.5-6 2.5-6.8 0-.8.9-3.2 2-5.4s2-5 2-6.4c0-1.3.5-2.6 1-2.8.7-.2 1.8-3 2.6-6.3s2.3-13.7 3.4-23c1-9.3 2-20.3 2-24.2 0-6.6.2-7.4 2.5-8.9s4-1.5 16.8-.5l26.1 2.1c6.6.6 14.5 1.4 17.5 2 3 .4 10.8 1.1 17.1 1.5 6.3.3 13.5 1 16 1.6 2.5.6 9.2 1.4 15 2a278 278 0 0 1 19 2.3c4.7.8 13.6 2 19.7 2.6a94 94 0 0 1 13.9 2c1.4.6 7 1.7 12.3 2.5 5.3.9 15.9 2.4 23.6 3.5 7.7 1 17.1 2.7 21 3.6 3.9.8 9.3 2.2 12.1 3 2.8.8 8.8 1.9 13.2 2.4a76 76 0 0 1 12.3 2.5c2.3.8 5.3 1.5 6.7 1.5 1.4 0 6.7 1 11.7 2l15.5 4c3.6 1 8.9 2.4 11.8 3 3 .5 6.7 1 8.5 1 2.7-.2 2.3-.5-2.8-2-3.3-1.1-9.8-2.7-14.5-3.5l-13.5-3c-2.8-.8-12-2.8-20.5-4.6a6142 6142 0 0 1-29.5-6c-7.7-1.7-18-3.6-23-4.4-5-.8-14.2-2.3-20.5-3.5a1211 1211 0 0 0-64.5-10c-5.5-.6-12.5-1.4-15.5-2-3-.4-8.5-.9-12.3-1-3.7 0-13.1-.9-21-2-7.8-1-19.6-2.2-26.2-2.5-6.6-.3-18.6-1.7-26.6-3-8-1.4-15.3-2.5-16.1-2.5-.8 0-2.6 1.3-4.1 2.8m23.3 20.8a32.6 32.6 0 0 0-6 8.5c-2.3 4.5-3 7.2-3 11.6 0 4.6.5 6.6 2.5 9.6 1.4 2 3.6 3.9 4.8 4.1 1.2.3 5.1.7 8.7 1 3.6.1 8 1 9.7 2 1.8.9 5.1 1.6 7.5 1.6 3.4 0 5.2-.7 8-3 2.7-2.2 3.8-4 3.8-5.8 0-1.5 1.2-5 2.5-7.7a25 25 0 0 0 2.5-6.8c0-1-.7-3.4-1.6-5.3-.9-1.8-2.6-4.5-4-5.9-1.9-2-3.2-2.5-7.4-2.5-3.1 0-6.6-.8-9-2-2.6-1.3-5.9-2-9.9-2-5 0-6.5.4-9 2.6m58.5 8c-1 .7-2.8 2.6-3.8 4.1-1 1.6-1.8 3.8-1.8 5 0 1.3-.9 3.7-2 5.5-1.3 2.1-2 5-2 8.2 0 4.3.4 5.3 3.9 8.7 2.5 2.6 4.8 3.9 6.5 3.9 1.5 0 4.4.9 6.6 2 3 1.5 5.9 2 12.5 2 8.3 0 8.6 0 12.3-3.4 3.7-3.4 3.7-3.4 4-16.6.3-11 .1-13.5-1.3-15-.8-1-3.6-2-6-2.4-2.5-.3-5.9-1.2-7.5-2-2-1-5.7-1.6-11.2-1.6-5.7 0-9 .5-10.2 1.5m58 8.6c-1.5 1.2-4 4.7-5.6 7.8-1.9 3.9-3 8-3.5 12.9-.4 3.9-.5 8.3 0 9.7.4 2 2 3.3 7.1 5.6 6 2.7 7.5 2.9 18.2 2.9 9.6 0 12-.4 13.8-1.8 1.2-1 3.1-3.6 4.3-6 1.6-3.2 2.1-6 2.1-12.3 0-5.7-.5-9-1.6-10.9-1-1.5-3-3.5-4.4-4.4-1.6-.9-4.8-1.6-7.2-1.6-2.6 0-5.5-.8-7.3-2-2-1.3-4.7-2-8.1-2-3.7 0-5.9.6-7.8 2.1m59.8 11.5a21 21 0 0 0-6.7 7.7c-3.4 5.7-3.7 6.8-3.7 14 0 7 .2 8 3 11 2.8 3.2 2.8 3.2 15.7 3.5 10.5.3 13.4 0 15.9-1.3 1.8-1 4.5-4.2 6.7-8 3.3-5.4 3.7-7 3.7-12.9 0-3.7-.5-7.6-1-8.7-.6-1-2-1.9-3-1.9-1.2 0-4.7-1.1-8-2.5a29 29 0 0 0-12.7-2.5c-4 0-8 .7-9.9 1.6m51.4 14.4c-2.5 2.5-3.8 4.7-3.8 6.4 0 1.5-.9 4.4-2 6.6-1.3 2.5-2 5.9-2 9.4 0 5.6 0 5.6 6 8.6 5.5 2.8 6.7 3 16.8 3 9.7 0 11.2-.2 13.7-2.2 1.5-1.1 4-4 5.6-6.1 2.8-3.8 2.9-4.5 2.9-14.8 0-10.2-.1-11-2.3-12.3-1.5-1-6.7-1.5-16.7-1.9-14.4-.5-14.4-.5-18.2 3.3m75.8 7.1a423.4 423.4 0 0 1-13.7 42.6l-3.9 8.8a89.4 89.4 0 0 1-7 15.5c-2.9 5.2-5 10-4.7 11 .2.8-.2 5.8-.9 11s-2.6 15.8-4.3 23.5c-1.6 7.7-4.4 19.8-6 26.8-1.7 7-3.1 14.6-3.1 16.8 0 2.2-1 9-2.4 15.2-1.4 6.2-3.4 17-4.6 24.2-1.1 7.1-3.2 17.7-4.5 23.5-1.3 5.8-3 14.3-3.6 19-.9 6.4-.9 9.5 0 12.5.6 2.2 2 5.1 3 6.5a633.6 633.6 0 0 1 26.6 36.2l5.3 8c2.4 3.4 5 6.6 5.7 7 .7.5 2 .5 3 .2.8-.3 1.5-1.2 1.5-2s.5-1.4 1-1.4c.6 0 1.9-2 2.9-4.3 1.3-3 2.1-9.1 3-22.7a329.6 329.6 0 0 1 7.2-53.5c1-4.4 2-9.9 2-12 0-2.2.6-7.1 1.4-11 .8-3.8 1.5-9 1.5-11.4 0-2.4.9-7.8 2-12a3386.3 3386.3 0 0 0 11.5-46.1 779.7 779.7 0 0 0 11-38 187 187 0 0 1 5.2-17.3c1.6-3.8 1.6-4-1.1-9.3-1.5-3-3.1-5.2-3.6-4.9-.5.3-1.1 0-1.5-.5-.4-.6-1-.8-1.5-.5-.5.3-2.3 5-4 10.3-1.6 5.3-3 10.4-3 11.3 0 1-2.2 8.4-4.9 16.6a307.9 307.9 0 0 0-11 46.3l-2.6 16.8c-.9 5.2-2 10.1-2.4 11-.4 1-1.3 4.4-2 7.7l-4.6 23.6c-1.9 9.6-4 21.7-4.5 26.8-.6 5.2-1.7 11.5-2.5 14s-2 7.2-2.5 10.4c-.6 3.1-1.5 5.7-2 5.7-.4 0-1-1.5-1.2-3.3-.2-1.7 0-7.5.4-12.7a300.6 300.6 0 0 1 4.7-36c1.1-6.9 2.8-17.2 3.6-23 1-5.8 3-14.8 4.5-20 1.6-5.2 3.4-13.3 4-18 .6-4.7 1.7-11.2 2.5-14.5l2.5-12a232 232 0 0 1 6-20.5c2.7-8 5.2-16.3 5.5-18.5.4-2.2 2.4-9 4.5-15 2.1-6.1 4.3-14.5 5-18.7 1-6.6 1-8.2-.4-12.4-1-2.7-2.9-6.7-4.4-8.8-1.5-2.2-3.2-4.1-3.8-4.3-.5-.2-1.6 2-2.3 5a86 86 0 0 1-3.7 10.7 164 164 0 0 0-5.4 17.5l-5 18.5-5.4 21c-2 8-4 17.9-4.6 22-.6 4.1-2.4 12.9-4 19.5a628 628 0 0 0-5.5 26.5 1504.6 1504.6 0 0 1-7 36.5 2360.3 2360.3 0 0 0-5.2 28.5l-2.9 14.9c-.7 4-2 8.4-2.9 9.7a12 12 0 0 0-1.5 5.6c0 2.2-.3 2.9-1 2.1-.8-.7-.5-6.6 1-20a288 288 0 0 1 3-22.3c.5-2 1.4-8.1 2-13.8.5-5.6 1.6-13 2.4-16.5a574.8 574.8 0 0 0 6.2-32.2l4-19c2-8.3 4.6-21 6-28.5a424.5 424.5 0 0 1 15.5-58.5l6-18.5c.6-2 1.9-8 3-13.5 1.7-9.7 1.7-10 0-13a33 33 0 0 1-3-7.3c-.7-2.3-1.8-4.2-2.5-4.2-.9 0-1.6 1.9-2 5.1m-318.8.7a24.1 24.1 0 0 0-6.8 19c0 6.3.4 8.2 1.8 9.5 1 .8 4 2.7 6.6 4.1 4.5 2.4 5.9 2.6 17.2 2.6 11.4 0 12.5-.2 14.4-2.2 1.8-2 2-3.5 2-15.1 0-13 0-13-3.9-16.8-3.9-3.9-3.9-3.9-16.3-3.9-12.3 0-12.5 0-15 2.8m53.1 7.5a11.8 11.8 0 0 0-4.2 5.2l-3.3 9.3a36.7 36.7 0 0 0-2.4 8.8c0 1.4.7 3.8 1.5 5.4.9 1.7 3.3 3.9 5.5 5 2.1 1.1 4.8 2 6 2 1 0 3 .5 4.5 1.2 1.4.6 2.5 1.5 2.5 2 0 .4 4.5.8 10 .8 10 0 10 0 13-6.5 2.7-6 3-7.5 3-16.8 0-5.6-.4-10.7-.8-11.4-.4-.7-4-2.6-8-4.3a31 31 0 0 0-15.5-3c-7 0-9 .4-11.8 2.3m52.6 10c-2.1 2.1-3.5 4.5-3.5 6 0 1.3-1.1 4.5-2.5 7.1a22 22 0 0 0-2.5 8.3c0 2 1 5.1 2.1 7 1.3 2.1 4.2 4.5 8 6.3 5.5 2.8 6.6 3 17.3 3 6.3 0 12.6-.5 14-1.1 1.3-.6 2.9-2.2 3.5-3.6.6-1.3 1.1-5.6 1.1-9.5 0-4 .5-8.5 1-10.2 1-2.4.8-3.9-.3-6.6-.9-2-2.6-4-3.9-4.6l-7.3-3c-3-1-8.7-1.9-14.3-2.1-9.3-.4-9.3-.4-12.7 3m58.9 9.5a15.6 15.6 0 0 0-4.4 9.7c0 1.4-1.1 4.8-2.5 7.6-2.2 4.2-2.4 5.5-1.6 8.6a16.2 16.2 0 0 0 11 10.3c2 .5 4.8 1 6.2 1 1.5 0 4.6.9 7 2 2.4 1 6.1 2 8.2 2 2.1 0 4.8-.5 6-1.1 1.2-.6 3.2-2 4.4-3.2 1.9-1.7 2.3-3.1 2.3-7.6 0-3.7.7-7 2-9.4 1.1-2 2-5.6 2-8 0-2.3-.7-5.2-1.5-6.4-.8-1.2-4-3-7-4.2-4.6-1.7-7.9-2.1-18.3-2-7 0-13.2.3-13.8.7m57 11.6c-1.9 1.9-3.4 4.2-3.4 5.3 0 1-1 3.3-2 5-1.5 2.5-2 5-2 10 0 3.8.6 7.5 1.3 8.3.7.9 2.3 2.4 3.7 3.3 1.3 1 3.5 1.7 4.8 1.7 1.2 0 4 .9 6.2 2 3 1.6 5.9 2 13 2 4.9 0 10-.5 11.4-1.1 1.5-.7 3.7-3.7 5.8-7.8 2.8-5.6 3.3-7.7 3.3-13.8 0-6.6-.2-7.4-2.9-10.2a33.9 33.9 0 0 0-8.3-5.5c-4.7-2.3-6.6-2.6-16.4-2.6-11.1 0-11.1 0-14.5 3.4m-241.5 4.2c-.9.3-2.3 2-3.3 3.7l-5.1 9.2a20.2 20.2 0 0 0-2.5 17.6c.6 1 3.3 3 6 4.4 3 1.5 7.5 2.7 11.2 3 3.5.4 8 1 9.9 1.7 2.8.8 4.2.7 6.5-.5 1.6-.8 4-2.5 5.2-3.7a7.4 7.4 0 0 0 2.2-5.5c0-1.9.9-5 2-6.7 1.4-2.3 2-5 2-9.3 0-3.3-.4-6.5-.8-7-.4-.6-3-2.4-5.7-4-4.5-2.5-6.1-2.8-15.5-3a87 87 0 0 0-12 .1m-1.6 2.6c-.4.7-.3.8.4.4s1.2-1 1.2-1.2c0-.2-.2-.4-.4-.4-.3 0-.8.5-1.2 1.2m51.3 8a58 58 0 0 0-7 12.8 75.7 75.7 0 0 0-4.7 12.3c0 1 .7 3 1.5 4.6.8 1.6 3 3.6 4.9 4.5 1.9.9 5.4 1.6 7.8 1.6 2.6 0 5.5.8 7.3 2 2.1 1.4 4.7 2 8.9 2 5.4 0 6.1-.3 9-3.3a54 54 0 0 0 6.8-12.4c2.1-5 3.8-10.4 3.8-12.1 0-2.2-1-4.2-3.4-6.7-2.8-2.9-4.1-3.5-7.6-3.5a11 11 0 0 1-6.7-2c-2-1.6-4-2-10.4-2-6.7 0-8.1.3-10.2 2.3m54.6 10.6c-2.3 1.4-4.3 4.4-7.4 10.8-2.3 5-4.4 10.9-4.7 13.5-.3 3 0 5.3.8 6.3.6.8 3.7 2.6 6.7 4 5 2.3 6.7 2.5 18.8 2.5 11.8 0 13.5-.2 15.8-2 1.6-1.3 2.9-3.6 3.3-5.7.4-2 1.6-5.1 2.6-7 1.5-2.4 1.8-4.7 1.6-10-.3-6.8-.3-6.8-6.3-10-5.3-2.7-7.3-3.1-17-3.7-9.8-.5-11.3-.4-14.2 1.3m263.7 4c-.5 1.1-1 2.5-1 3.1 0 .7-.6 2.6-1.4 4.3-.7 1.8-1.9 5.4-2.6 8.2a683.2 683.2 0 0 0-6.5 29.3c-.3 1.2 0 2.2.5 2.2s1-.6 1-1.4c0-.8 1-3.6 2-6.3 1.2-2.6 3.3-8.4 4.6-12.8 1.4-4.4 3.4-11.3 4.4-15.4 1.1-4 2-8.6 2-10.2 0-1.6-.4-2.9-1-2.9-.5 0-1.4.9-2 2m-208.8 6.5a31.7 31.7 0 0 0-6 10c-2 4.7-3.2 9.1-3.2 12 0 2.6.7 6 1.7 7.5.9 1.6 2.8 3.4 4.2 4 1.4.7 8.5 1.4 15.7 1.7 7.2.3 14.6.3 16.5 0 2.8-.6 4-1.6 5.7-5a123 123 0 0 1 4.3-7.4c1.4-2.3 2-5.1 2.2-9.7.1-5.2-.2-6.8-1.8-8.6-1.1-1.3-4.4-3.3-7.3-4.6-4.6-2-6.8-2.4-17.2-2.4-11.1 0-12 .1-14.8 2.5m59.8 7.3c-2.6 1.5-4.6 4.2-8.7 11.8-3.9 7.3-5.3 11-5.3 14 0 2.5.7 5 1.8 6.3 1 1.1 5 3.4 8.9 5 5.7 2.5 8.6 3.1 14.3 3.1 5 0 8.2-.6 11-2 2-1 5-3.4 6.5-5.2 1.5-1.8 4.7-7.3 7-12.2 2.4-4.8 4-9.6 3.8-10.5-.3-.9-1.3-2.4-2.2-3.5-.9-1-2.8-2.4-4.3-3.2-1.5-.8-4.9-1.4-7.6-1.4-2.7 0-6.4-.8-8.3-1.7-1.8-1-5.6-1.8-8.4-2-3.6-.3-6 .1-8.5 1.5m-246.7 4.4a61.7 61.7 0 0 0-11 9.8 148 148 0 0 0-8.6 10 10 10 0 0 0-1.7 4.5c0 1.2 1.2 3.2 2.8 4.6 1.5 1.4 4.3 3.2 6.3 4.1 2.2 1 8 2 15 2.3 9.5.6 12 .5 14.5-.8 1.6-.8 5-3.7 7.6-6.4 2.5-2.6 6.2-8 8.2-12.1 3.6-7.2 3.7-7.3 1.8-9.8-1-1.5-4.8-3.8-9-5.5a33 33 0 0 0-14.5-2.9c-5.6 0-8.2.5-11.4 2.3m54.2 8.1c-1.7.7-4.3 2.8-5.9 4.7-1.5 1.9-4.6 6.3-6.8 9.9-3 4.8-4.3 7.8-4.6 11.6-.4 4.4 0 5.4 1.9 7.3 1.9 1.8 3.5 2.1 9.8 2.1 6 0 8.1.5 10.1 2 1.6 1.3 4 2 7 2 2.6 0 5.6-.7 7.1-1.8a40.4 40.4 0 0 0 12-15c1-2.5 1.9-6.7 1.9-9.8 0-5.4 0-5.4-5-7.9a21.5 21.5 0 0 0-10.4-2.5c-3.7 0-6.7-.7-9.1-2-2-1.1-3.9-2-4.3-2-.4 0-2 .7-3.7 1.4m52 11.6c-1.2.4-3.7 2.8-5.8 5.3a23 23 0 0 0-3.7 5.5c0 .5-.8 1.6-1.8 2.5-1 1-3 4.9-4.2 8.8-1.8 5.2-2.1 7.5-1.4 8.7.6 1 2.6 2.7 4.4 4 1.9 1.2 4.8 2.2 6.9 2.2 2 0 5.6 1 8 2a26 26 0 0 0 9.6 2c3.8 0 6.1-.6 8.6-2.3 2.3-1.5 5.2-5.4 8.6-11.7 3.4-6 5.3-10.7 5.3-12.8 0-1.8-.4-4.1-1-5.1-.5-1-2.2-2.7-3.7-3.7-2-1.4-5.3-2-11.8-2.5-5-.3-10.6-1.2-12.5-2.1-2.2-1-4.3-1.3-5.5-.8m207.9 8.3c-1 1.2-3.5 4.4-5.4 7.2-1.8 2.8-5.9 7.9-9 11.4a693 693 0 0 1-42.4 42.1l-6 4.5c-.6.6-5 3.6-9.6 6.8-6.3 4.2-9.4 5.7-12 5.7-2 0-9.4-1.1-16.5-2.6l-19.5-4c-3.6-1-9.7-2.2-13.5-3l-16.5-2.8c-5.2-1-12.4-2.3-16-3.1a700.9 700.9 0 0 0-36.5-7L165 358c-5.8-1.2-15.2-3-21-4a9535.6 9535.6 0 0 1-37-6.8L89.4 343c-7.2-1.7-17.3-3.4-22.4-3.8-9-.6-9.3-.5-11.1 1.8-1.7 2.2-1.9 4.7-1.9 32.1 0 29.8 0 29.8 4.5 34 2.5 2.2 6 6.3 7.7 8.9a19 19 0 0 0 8.3 7.3c3.2 1.6 6.9 2.6 9.7 2.6a206.5 206.5 0 0 1 30.8 3.5c3 .8 10 1.7 15.5 2 5.5.4 12.7 1.3 16 2 3.3.8 10.3 2 15.5 2.5 5.2.7 10.8 1.6 12.4 2 1.6.6 9.2 1.5 17 2a196 196 0 0 1 20 2.5c3.4.7 11.5 1.6 18.1 2 6.6.3 13.8 1 16 1.6a319 319 0 0 0 25.5 2.4c17.7 1.2 21.9 1.8 23.9 3.3a10 10 0 0 1 2.8 2.9c.2.6-1.5 1.3-3.7 1.6-2.2.3-10.7.3-18.8 0-8-.2-17.2-.8-20.2-1.3s-9.1-1.2-13.5-1.5l-11-1c-1.7-.3-10-.7-18.5-1.1a98.4 98.4 0 0 1-17.5-1.7c-1.1-.6-3.6-1.2-5.5-1.3-2 0-8.4-.5-14.5-.9-6-.3-11.9-1-13-1.5a81.1 81.1 0 0 0-18.7-3c-1.9 0-3.8-.4-4.4-1-.5-.5-7.8-1.5-16.2-2.1a83.6 83.6 0 0 1-15.2-2c0-.4-1.2-1-2.8-1.3-1.5-.4-6-.7-10-.8-4.5 0-7.8.4-8.5 1.1-1 1-.2 2.2 3.5 5.7 3.9 3.7 5.3 4.4 8.6 4.4 2.2 0 8.4.9 13.8 2 5.5 1 16 2.6 23.4 3.5 7.4.9 15.4 2 17.7 2.6a191 191 0 0 0 17.5 1.9c7.3.6 17.8 1.7 23.3 2.5S206 461 209 461s9.1.7 13.5 1.5 13.2 1.7 19.5 2a467 467 0 0 1 24.5 2c7.1.9 21 2 30.7 2.4 9.8.5 18.4 1.3 19 1.9.7.5 10.8 1.4 22.4 2 18 1 21.7 1.4 24.3 3 3 1.8 3.1 2 1.5 3.7-1.6 1.6-4.2 1.7-29.1 1.3-21.8-.3-27.6-.6-28.2-1.7-.7-1-4.6-1.5-15.7-1.7-8.2-.3-20-.8-26.4-1.3a8959 8959 0 0 1-25-2 658 658 0 0 1-27.5-3 410 410 0 0 0-24-2.6c-5.5-.3-11.3-1-13-1.5-1.7-.5-6-1.1-9.5-1.5-3.6-.3-11.7-1-18-1.3a60.4 60.4 0 0 1-13.7-2c-1.3-.7-6.2-1.6-11-2.1-4.9-.5-10-1.4-11.5-2a12 12 0 0 0-5.8-.5c-1.7.4-3 1-3 1.4 0 .5 1.4 2 3 3.4a21 21 0 0 0 6.8 3.5c2 .6 11.1 1.5 20.2 2.1 9.4.6 19.5 2 23.5 3 3.8 1 10.8 2.2 15.5 2.6 4.7.3 9.6 1 10.9 1.6 1.3.4 8.3 1.3 15.5 1.9 7.2.5 15.1 1.4 17.6 2a164 164 0 0 0 17.6 2c7.2.4 16 1.5 19.5 2.3 3.5.8 12.3 2 19.4 2.5a581.7 581.7 0 0 0 53.5 4c14 .7 27.5 1.6 30 2.2 2.5.6 11.7 1.5 20.5 2 8.8.4 17.7 1.1 19.8 1.5 2.4.4 3.7.2 3.7-.5 0-.5-2.6-5-5.8-9.7l-6.7-10.3a351.9 351.9 0 0 0-19-23.1 66 66 0 0 0-7.4-7.2 26 26 0 0 0-10.5-2.2c-4.5-.3-16.7-.8-27.1-1-11.4-.3-21.8-1-26-2-3.9-.8-12.9-1.7-20-2a92.9 92.9 0 0 1-18-2.1c-3.2-1-10.5-1.8-20.5-2-8.5-.4-18.7-1.2-22.5-2a300 300 0 0 0-23-3l-25-2.5c-5-.5-12-1-15.6-1a50 50 0 0 1-11.6-1.5c-2.8-.8-11.7-2-20-2.4-8.1-.5-20-2-26.3-3.1a104 104 0 0 1-13.2-3c-1-.6-3.2-1-4.9-1-2 0-3-.4-2.7-1.2.3-.7 2-1.6 3.9-2 1.9-.5 8.2-.9 14.1-.9 6 0 21.8.5 35.2 1.1 13.4.6 26 1.5 27.8 2.1 1.8.6 12.5 1.4 23.8 2 11.4.4 23.2 1.5 26.5 2.3a152 152 0 0 0 21 2.1c8.3.4 16.6 1 18.5 1.6 2 .5 11.2 1.6 20.5 2.4 9.4.8 17.7 1.8 18.5 2 .8.4 9.8 1.3 20 2 10.2.9 20.8 2 23.5 2.4a210 210 0 0 0 19.5 1.6c11 .4 15.4.3 18.5-.8 4-1.4 4-1.4 6.7-17.3a988.4 988.4 0 0 0 7.3-45c1.4-9.8 3.4-21.3 4.5-25.4a109.7 109.7 0 0 0 4-27.8c0-3.6.6-6.6 1.5-7.8.8-1 1.5-2.2 1.5-2.6 0-.5-.8-.8-1.8-.8s-2.7 1-3.8 2.3m67.2 7.2c-1 3.3-2.1 6.9-2.6 8a43 43 0 0 0-3 13.4c0 1.6.4 2.1 1 1.6.4-.6 2.2-6.6 4-13.4a82 82 0 0 0 2.7-14c-.2-.9-1.1 1.1-2 4.4m-225.3 2.9a31.3 31.3 0 0 0-11.4 21.3c0 2.6.8 4.5 2.7 6.5 2.2 2.3 3.5 2.8 7.5 2.8 3 0 6 .7 8 2 1.8 1 4.7 2 6.4 2 1.7 0 6.1-1.4 9.8-3 5.6-2.6 6.8-3.5 7.3-6 .3-1.7 1.1-3 1.9-3 .7 0 2.4-1 3.8-2.3 2.3-2 2.6-3 2.8-11 .1-5.5-.2-9.1-1-9.9-.6-.6-3.3-1.5-5.9-1.9-2.6-.4-7.3-.8-10.4-.8-3.2 0-6.3-.7-7.5-1.6a9 9 0 0 0-4.5-1.5c-1.9 0-4.6 1.8-9.5 6.4m56.7 7.5c-1.2 1.2-2.1 2.5-2.1 3 0 .4-1.4 2.6-3.1 4.7a51.8 51.8 0 0 0-5.6 9.4 21.3 21.3 0 0 0-2.1 9c.2 2.6 1 3.8 2.9 4.7 1.9 1 6.5 1 17.2.6 14.7-.6 14.7-.6 18.9-4.5 2.3-2 4.7-3.8 5.3-3.8.7 0 2.4-1 3.8-2 1.4-1.2 4-4.2 5.8-6.8 2.5-3.7 3-5.1 2.3-7.2-.6-1.7-2.8-3.5-6.9-5.5-5.7-2.8-6.8-3-20.2-3.3-13.2-.3-14.3-.2-16.2 1.7m97 2.7c0 1.1.3 1.4.6.6.3-.7.2-1.6-.1-2-.3-.3-.6.3-.5 1.4m-2.4 7.5c-1 2.1-1.7 4.3-1.7 4.8s-1.8 5.1-4 10.4a286 286 0 0 1-15.6 31.8 39.6 39.6 0 0 1-6.9 8.5 65 65 0 0 1-14.4 9.4 54.2 54.2 0 0 1-11.7 4.1c-4.3.8-7.6.7-14.6-.5-5-.9-9.6-2-10.3-2.6a82 82 0 0 0-16.1-2c-8.2-.5-17.6-1.6-20.9-2.5-3.3-.8-8.6-2.3-11.8-3.5-3.4-1.2-11.6-2.6-20.2-3.5-8-.8-18.2-2.3-22.7-3.4-4.6-1.1-14.6-3.1-22.4-4.4-7.8-1.4-15.5-3.2-17.3-4.1-1.8-1-8.8-2.3-16.9-3.1-7.5-.8-21.1-3-30.2-4.9-9-1.9-19.7-4-23.5-4.6-3.8-.7-10.4-2.3-14.5-3.5-4.1-1.3-10.2-2.9-13.5-3.5-3.3-.7-7-1.8-8.1-2.5-2-1.3-2.2-1.2-2.8.8-.3 1.2-.6 11.3-.6 22.3 0 16.9-.3 20.4-1.5 21.4-1.4 1.1-1.3 1.5.6 3.3 1.9 1.7 4.2 2.1 16.8 2.8 8 .4 23.6 1 34.6 1.3 11 .3 22.4 1 25.4 1.6 3 .5 14.6 1.4 26 2 11.3.6 24.2 1.7 28.6 2.4 4.4.8 14 1.8 21.5 2.1 7.4.4 16.7 1.3 20.7 2a91 91 0 0 0 14.5 1.5c4 0 11.4.5 16.3 1 5 .6 10.4 1.5 12 2 1.6.5 10.2 1.4 19 1.9s17.3 1.5 19 2c1.6.7 9.3 1.4 17 1.7 7.7.3 16.5 1 19.5 1.6 3 .6 8 1.3 11.2 1.5 5.6.5 5.6.5 7.3-7.4 1-4.3 2-9.2 2.6-10.8.5-1.7 1.5-8 2.3-14a879.7 879.7 0 0 1 7.7-47c1-5.5 2-12.2 2-14.8.1-2.6 0-5-.3-5.2-.2-.2-1.1 1.4-2 3.6m66 11.8c-.5 1.8-.8 4.5-.7 6 0 2.6 0 2.6 1 .1.6-1.3.9-4 .7-6-.3-3.5-.3-3.5-1-.1m-8 44.1c-.4 1.4-.8 4.3-.8 6.5 0 3.2.3 3.7 1 2.2.6-1 1-3.9.8-6.5-.2-3.8-.4-4.2-1-2.2m-5.2 24a17 17 0 0 0 .2 7c1 2.4 1 2.4 1.7-1.3.4-2.1.3-5.3-.2-7-1-3.2-1-3.2-1.7 1.3m-16 45.8c-.2.4 0 1.4.5 2.2.7 1.2.9 1 .9-.8 0-1.2-.2-2.2-.4-2.2-.3 0-.7.4-1 .8"/><path fill="#0f0c11" fill-rule="evenodd" d="M194 7.6a81 81 0 0 0-12.6 11C175.2 25 172.3 29 169 35.5 165 44 165 44 146.2 44c-14.3 0-19.3.4-21.2 1.5-1.4.8-3.4 1.4-4.5 1.5-1.1 0-4 1.3-6.4 3a31.2 31.2 0 0 0-7.3 7c-2.3 3.5-2.8 5.4-2.8 10.4 0 3.4-.5 10.4-1 15.6-.5 5.2-1.2 16.3-1.5 24.5-.3 8.3-1 17.5-1.6 20.5-.6 3-1.2 9.6-1.4 14.7-.3 5-1 10.7-1.9 12.7-.8 1.9-1.7 6-2.1 9.3-.4 3.2-1.6 9.4-2.7 13.8s-3.8 13.3-5.9 19.8c-2.4 7.4-7.2 18.3-13 29.5-5.1 9.7-10.4 19.6-11.9 22-1.4 2.3-6.9 8.6-12 14A329.3 329.3 0 0 0 33.2 281C30 285.1 24 291.6 20 295.5L6.3 308C.2 313.5 0 313.6.5 318.3c.2 2.6.7 5.1 1 5.7.3.5 1.3 1 2 1a9 9 0 0 1 3.8 1.4 23 23 0 0 0 7.2 2 150 150 0 0 1 16.5 4c8 2.5 12 4.2 13.4 5.8 1.7 2.1 1.8 3.5 1.2 17-.4 8.2-1.3 16.5-2 18.6-.8 2-1.7 7-2 11-.7 6.2-.5 7.9 1.3 11.7 1.2 2.5 2.1 5.1 2.1 5.9 0 .7.9 3.3 2 5.7 1 2.4 5.8 9.3 10.5 15.4a495 495 0 0 1 14.6 19.6c3.2 4.7 10.9 14 17 20.7 6 6.6 12.2 12.5 13.7 13.1a53 53 0 0 0 11.7 1.5c5 .2 12.8 1.1 17.5 2l17.5 3.6c5 1 13.1 2.4 18.2 3 5 .5 11.5 1.5 14.4 2 2.8.6 7.2 1 9.7 1 2.5 0 9.8.9 16.2 2a689.2 689.2 0 0 0 49 6.1c5.8.5 16.4 1.6 23.7 2.5 7.3.8 20.3 2 29 2.4a281 281 0 0 1 21.6 2c3.2.5 11.8 1 19 1 7.3.1 15.3.6 17.9 1a432 432 0 0 0 17 2.4c6.8.9 21.2 1.8 32 2.2 18.9.7 19.7.6 19.8-1.2l1-10.9a2274 2274 0 0 1 5.4-48.3c1-7.4 2-14.1 2.5-15 .5-1 1.4-6.4 2-12.2.7-5.7 1.6-11.1 2-12 .5-.8 1.4-6 2-11.4.6-5.4 1.5-10.6 2-11.5.5-1 1.4-4.8 2-8.6a2131.5 2131.5 0 0 1 4.2-27 342.5 342.5 0 0 1 8.5-31.5 263 263 0 0 0 4.3-16l3.2-14c.7-3 3-10 5.2-15.5s5.5-14.4 7.3-19.7a167 167 0 0 1 6.8-16.5 253.7 253.7 0 0 0 10.2-23 64 64 0 0 0 2.5-12c1.1-8.8 1-8.9-2.4-19.3-2-5.8-4.7-13.7-6.2-17.5a90.3 90.3 0 0 0-4.6-10.3c-1-1.8-1.9-3.9-1.9-4.5 0-.7-2.6-6.4-5.9-12.7a5188 5188 0 0 0-13.6-26.5 220 220 0 0 0-10.2-18.2c-1.8-2.3-4.2-3.7-9-5.2a45 45 0 0 0-9.8-2.1c-1.7 0-4-.9-5.2-1.9a10 10 0 0 0-3.9-2.3c-1.7-.3-2-1.6-2.5-11.3-.5-9.5-1-12-3.8-17.8-1.7-3.8-5-8.8-7.3-11.3A59 59 0 0 0 406 32.5c-2.1-1.1-6.3-1.5-15.7-1.5-12.9 0-12.9 0-20.6 4.6A51.6 51.6 0 0 0 351 54.5c0 .5-1.7 3-3.8 5.3-3.2 3.7-4.3 4.3-7.8 4.4-2.3 0-5-.5-6.2-1a22 22 0 0 0-7.6-1.2c-3.1 0-8.9-.9-12.8-2-4-1.1-10.2-2-13.9-2-3.6 0-8.8-.7-11.5-1.5-2.7-.9-11-2.5-18.3-3.6-7.4-1-13.7-2.2-14-2.4-.3-.3-.8-3.6-1.2-7.3-.5-4.5-1.9-9-4.2-13.7a52.4 52.4 0 0 0-22.4-22.9c-2.5-1.2-6.1-1.6-16-1.6-11.9 0-13.1.2-17.3 2.6m11.6 9c-1.1.7-2.8 1.4-3.8 1.4s-3.6.9-5.8 2c-2 1-6.4 5-9.4 8.5a38 38 0 0 0-5.6 7.7c0 .6-1.3 3.2-2.8 5.7a25 25 0 0 0-3.6 12.6c-.4 4.4-1.4 9-2.2 10.2-1 1.7-1.4 5.7-1.4 15.7 0 13.4 0 13.4 3.4 15.5 2.6 1.6 5 2.1 10.7 2 4 0 8-.3 8.7-.8.8-.4 1.7-3.6 2.1-6.9a21 21 0 0 1 2-7.6c.9-1 1.6-5.4 1.9-11.4.5-9.4.6-10 5.9-19.8 5.1-9.7 5.6-10.3 11.4-13.4 5.4-2.8 6.3-3 7.6-1.8 1.3 1.3 1.2 2-.5 4.8-1.1 1.8-1.8 3.9-1.5 4.6.4 1 2.6 1.4 8.2 1.4 4.7 0 8.2-.5 8.9-1.2.7-.7 1.2-2.6 1.2-4.3 0-1.7-1.4-5.7-3-8.7-1.7-3.1-4.8-7.2-7-9.2-2.2-2-5.2-3.8-6.7-4.2a65 65 0 0 1-7.7-2.5c-2.7-1-5.8-1.9-7-1.9-1.1 0-3 .7-4 1.5m169.9 28.2a53 53 0 0 0-18.6 22 42 42 0 0 0-3.9 11c0 1.6-.7 3.9-1.6 5.1-1.1 1.6-1.7 5.7-2 15-.3 7-.2 15.2.3 18.2.8 5.5.8 5.5 9.3 6.3 4.6.5 9.9.6 11.6.2 3.2-.6 3.2-.6 4-8.3.3-4.2 1.2-8.6 1.8-9.7.7-1.1 1.6-4.8 2-8.3.3-3.4 1.3-7.6 2-9.2 1-1.6 2-5 2.6-7.7.8-3.5 2.2-6 5.5-9.4 3-3.2 6-5.2 9.5-6.3 3.7-1.2 5.5-1.4 7-.6 1.1.6 2 1.4 2 1.8a16 16 0 0 1-3.8 3.9c-3.7 3.2-3.7 3.2-1.4 5.5 2 2 3.2 2.3 10 2.3 7.7 0 7.7 0 8-4.4.3-3.4-.5-6-3.2-11.6a37.7 37.7 0 0 0-8.5-11.8 24.2 24.2 0 0 0-8.2-5 92 92 0 0 0-12.3-.7c-6.3 0-10 .6-12.1 1.7M121.1 57.3c-1.3.6-3.8 3-5.5 5-3.1 3.9-3.1 3.9-3.7 26.5-.3 12.5-.2 23 .1 23.5.3.4 7.8 1 16.6 1.2 8.7.3 17.7 1 19.9 1.4 2.2.5 11.2 1.5 20 2.1a188 188 0 0 1 21.5 2.6c3 .7 10.7 1.6 17 2 6.3.3 14.7 1.2 18.5 2A337.3 337.3 0 0 0 269 129c6.3.4 12.6 1.2 14 1.8 1.4.6 9.7 2 18.5 3.2l25.5 3.5c5.2.8 14.2 2.3 20 3.5l17.5 3.4 20 3.6a259 259 0 0 1 20 4c3.9 1.1 9.7 2.4 13 3 3.2.5 7.5 1 9.4 1 2.6 0 4.6-1 7.2-3.3 3.1-2.8 4.2-5 8.2-17.7a451.9 451.9 0 0 0 7.6-26.5c.5-2.2 2-4.8 3.2-5.8 1.7-1.3 1.9-2 1-3.1-.7-.8-3.7-1.6-6.9-1.9-3.1-.3-8.8-1.2-12.7-2-3.9-1-13.5-2.8-21.5-4.3a108 108 0 0 0-19.4-2.1c-2.6.2-5.2 1-5.6 1.8-.5.7-.4 2.1.1 3.2.6 1 3.1 4.2 5.7 7 2.6 2.9 5.8 7.5 7 10.4 2.4 5 2.4 5-.4 10.4-2 3.7-4.6 6.5-8.3 9.1-5.4 3.8-5.4 3.8-21.8 3.8-16.3 0-16.3 0-26.1-5a65.3 65.3 0 0 1-12.8-8c-2.6-2.9-2.9-3.7-2.8-9.8 0-4.2.7-7.9 1.7-10 1-1.7 3.7-5.6 6.2-8.7 4-5 4.5-6 4.5-10.8 0-4.3-.5-5.8-2.3-7.4-1.7-1.7-3.9-2.2-9.7-2.6-4.1-.2-12.3-1.1-18.2-2-5.9-.9-13-2.3-16-3.1-3.1-1-9-1.6-15.2-1.6-6 0-12.4-.7-15.6-1.5a161.6 161.6 0 0 0-37.4-4.5c-10.8 0-10.8 0-14.7 3.9-2.2 2.1-3.9 4.8-3.9 6 0 1.2 1.9 4 4.4 6.4 2.4 2.3 5 5.6 6 7.4.9 1.8 1.6 5.6 1.6 8.7 0 4.8-.4 5.8-3 8.5a13 13 0 0 1-4 3.1 31 31 0 0 0-6 3c-5 3-5.3 3-19.7 3-12.4 0-15-.3-18.2-2-2-1-5-2.1-6.5-2.5-1.6-.3-5-2.6-7.3-5a18.3 18.3 0 0 1-5.3-8c-.5-2.2-.6-6-.3-8.6.4-3.8 1.3-5.5 4.5-8.6 2.1-2 4.7-5.5 5.8-7.5 1.1-2 2-5.5 2-7.8 0-4 0-4-19.3-4-13.2 0-20 .4-21.6 1.3m335.7 49.3c-.3.5-.9 5.4-1.2 10.9l-1.2 14a70.8 70.8 0 0 1-4.3 15.1 52 52 0 0 0-4.8 16.6c-.5 4 0 6.1 3.2 13.5 2 4.9 8 17.6 13 28.3 5.1 10.7 9.8 21.5 10.4 24l1.7 7.8c.4 2.5 1.4 3.7 3.6 4.7 3.1 1.2 3.1 1.2 8.4-9.4 2.9-5.8 7.2-15 9.5-20.3 4.2-9.8 4.2-9.8 2-15a31.5 31.5 0 0 1-2.1-6.4c0-.8-2-5.8-4.6-11.1-2.6-5.4-5.2-11-6-12.3a86.4 86.4 0 0 0-6.5-16.3c-2.1-4.5-3.9-9-3.9-10 0-.9-1.5-4.5-3.3-8a218.8 218.8 0 0 1-8.6-19.2c-.7-1.7-2-4-3-5.4-1-1.3-2-2-2.3-1.5m-346.1 14.2c-2.4 2.5-2.7 3.6-2.7 9.8a165 165 0 0 1-4 31.3c-.5 1.9-1.2 6.8-1.6 11-.4 4.2-1.3 8.5-2 9.6a9 9 0 0 0-1.4 4.3c0 1.3-.7 3-1.5 3.8-.8.9-1.5 2.6-1.5 4 0 1.3-1.2 5.4-2.6 9.1-1.4 3.8-4 10-5.8 13.7a398.4 398.4 0 0 1-17.1 32.1c-1 1.1-2.8 4.3-4.2 7-1.4 2.8-4.2 7-6.2 9.5l-9 11a249.6 249.6 0 0 1-36 34c-1.5 1.4-3.6 3-4.6 3.6-1.6 1-1.8 1.6-.9 3 .8 1.4 4.1 2.4 13.5 4.1l22.4 4.2a321 321 0 0 0 15 2.6c2.8.4 7.5 1.3 10.5 2 3 .8 9.1 1.9 13.5 2.5 4.4.6 13.4 2.2 20 3.6a957 957 0 0 0 17.5 3.5 764.5 764.5 0 0 0 52 9.4 62 62 0 0 1 10 2c2.5.8 8.3 2.1 13 3a413 413 0 0 1 17.5 3.5c5 1.2 13 2.8 18 3.5 5 .8 14.2 2.6 20.5 4 6.3 1.4 17.8 3.7 25.5 5.2 7.7 1.4 16.6 2.8 19.7 3 5.1.4 6.3.1 11.8-3.1 3.4-2 10-6.9 14.8-10.8 4.8-4 13.6-12.2 19.7-18.3a511 511 0 0 0 17-18c3.3-3.7 9-10.8 12.5-15.6 3.6-4.9 7.6-11 9-13.6a426 426 0 0 1 8.5-15.3l9.8-17.2c2-3.8 6.3-13.4 9.6-21.5a2289 2289 0 0 1 9.5-23.5 203.2 203.2 0 0 0 11-42.2c0-3.4-.3-5-1.4-5.6-.8-.4-4.4-1.5-8-2.4a516 516 0 0 0-18.3-4.1 168 168 0 0 1-12.5-2.9c-.4-.2-8.8-2-18.7-4.1l-32-6.7a565 565 0 0 0-23-4.3c-5-.8-14.2-2.3-20.5-3.5a1211 1211 0 0 0-64.5-10c-5.5-.6-12.5-1.4-15.5-2-3-.4-8.5-.9-12.3-1-3.7 0-13.1-.9-21-2-7.8-1-19.6-2.2-26.2-2.5-6.6-.3-18.6-1.7-26.6-3-8-1.4-15.3-2.5-16.1-2.5-.8 0-2.6 1.3-4.1 2.8m326.9 70.3a423.4 423.4 0 0 1-13.7 42.6l-3.9 8.8a89.4 89.4 0 0 1-7 15.5c-2.9 5.2-5 10-4.7 11 .2.8-.2 5.8-.9 11s-2.6 15.8-4.3 23.5c-1.6 7.7-4.4 19.8-6 26.8-1.7 7-3.1 14.6-3.1 16.8 0 2.2-1 9-2.4 15.2-1.4 6.2-3.4 17-4.6 24.2-1.1 7.1-3.2 17.7-4.5 23.5-1.3 5.8-3 14.3-3.6 19-.9 6.4-.9 9.5 0 12.5.6 2.2 2 5.1 3 6.5a633.6 633.6 0 0 1 26.6 36.2l5.3 8c2.4 3.4 5 6.6 5.7 7 .7.5 2 .5 3 .2.8-.3 1.5-1.2 1.5-2s.5-1.4 1-1.4c.6 0 1.9-2 2.9-4.3 1.3-3 2.1-9.1 3-22.7a329.6 329.6 0 0 1 7.2-53.5c1-4.4 2-9.9 2-12 0-2.2.6-7.1 1.4-11 .8-3.8 1.5-9 1.5-11.4 0-2.4.9-7.8 2-12a3386.3 3386.3 0 0 0 11.5-46.1 779.7 779.7 0 0 0 11-38 187 187 0 0 1 5.2-17.3c1.6-3.8 1.6-4-1.1-9.3-1.5-3-3.1-5.2-3.6-4.9-.5.3-1.1 0-1.5-.5-.4-.6-1-.8-1.5-.5-.5.3-2.3 5-4 10.3-1.6 5.3-3 10.4-3 11.3 0 1-2.2 8.4-4.9 16.6a307.9 307.9 0 0 0-11 46.3l-2.6 16.8c-.9 5.2-2 10.1-2.4 11-.4 1-1.3 4.4-2 7.7l-4.6 23.6c-1.9 9.6-4 21.7-4.5 26.8-.6 5.2-1.7 11.5-2.5 14s-2 7.2-2.5 10.4c-.6 3.1-1.5 5.7-2 5.7-.4 0-1-1.5-1.2-3.3-.2-1.7 0-7.5.4-12.7a300.6 300.6 0 0 1 4.7-36c1.1-6.9 2.8-17.2 3.6-23 1-5.8 3-14.8 4.5-20 1.6-5.2 3.4-13.3 4-18 .6-4.7 1.7-11.2 2.5-14.5l2.5-12a232 232 0 0 1 6-20.5c2.7-8 5.2-16.3 5.5-18.5.4-2.2 2.4-9 4.5-15 2.1-6.1 4.3-14.5 5-18.7 1-6.6 1-8.2-.4-12.4-1-2.7-2.9-6.7-4.4-8.8-1.5-2.2-3.2-4.1-3.8-4.3-.5-.2-1.6 2-2.3 5a86 86 0 0 1-3.7 10.7 164 164 0 0 0-5.4 17.5l-5 18.5-5.4 21c-2 8-4 17.9-4.6 22-.6 4.1-2.4 12.9-4 19.5a628 628 0 0 0-5.5 26.5 1504.6 1504.6 0 0 1-7 36.5 2360.3 2360.3 0 0 0-5.2 28.5l-2.9 14.9c-.7 4-2 8.4-2.9 9.7a12 12 0 0 0-1.5 5.6c0 2.2-.3 2.9-1 2.1-.8-.7-.5-6.6 1-20a288 288 0 0 1 3-22.3c.5-2 1.4-8.1 2-13.8.5-5.6 1.6-13 2.4-16.5a574.8 574.8 0 0 0 6.2-32.2l4-19c2-8.3 4.6-21 6-28.5a424.5 424.5 0 0 1 15.5-58.5l6-18.5c.6-2 1.9-8 3-13.5 1.7-9.7 1.7-10 0-13a33 33 0 0 1-3-7.3c-.7-2.3-1.8-4.2-2.5-4.2-.9 0-1.6 1.9-2 5.1m-52.2 115.2c-1 1.2-3.5 4.4-5.4 7.2-1.8 2.8-5.9 7.9-9 11.4a693 693 0 0 1-42.4 42.1l-6 4.5c-.6.6-5 3.6-9.6 6.8-6.3 4.2-9.4 5.7-12 5.7-2 0-9.4-1.1-16.5-2.6l-19.5-4c-3.6-1-9.7-2.2-13.5-3l-16.5-2.8c-5.2-1-12.4-2.3-16-3.1a700.9 700.9 0 0 0-36.5-7L165 358c-5.8-1.2-15.2-3-21-4a9535.6 9535.6 0 0 1-37-6.8L89.4 343c-7.2-1.7-17.3-3.4-22.4-3.8-9-.6-9.3-.5-11.1 1.8-1.7 2.2-1.9 4.7-1.9 32.1 0 29.8 0 29.8 4.5 34 2.5 2.2 6 6.3 7.7 8.9a19 19 0 0 0 8.3 7.3c3.2 1.6 6.9 2.6 9.7 2.6a206.5 206.5 0 0 1 30.8 3.5c3 .8 10 1.7 15.5 2 5.5.4 12.7 1.3 16 2 3.3.8 10.3 2 15.5 2.5 5.2.7 10.8 1.6 12.4 2 1.6.6 9.2 1.5 17 2a196 196 0 0 1 20 2.5c3.4.7 11.5 1.6 18.1 2 6.6.3 13.8 1 16 1.6a319 319 0 0 0 25.5 2.4c17.7 1.2 21.9 1.8 23.9 3.3a10 10 0 0 1 2.8 2.9c.2.6-1.5 1.3-3.7 1.6-2.2.3-10.7.3-18.8 0-8-.2-17.2-.8-20.2-1.3s-9.1-1.2-13.5-1.5l-11-1c-1.7-.3-10-.7-18.5-1.1a98.4 98.4 0 0 1-17.5-1.7c-1.1-.6-3.6-1.2-5.5-1.3-2 0-8.4-.5-14.5-.9-6-.3-11.9-1-13-1.5a81.1 81.1 0 0 0-18.7-3c-1.9 0-3.8-.4-4.4-1-.5-.5-7.8-1.5-16.2-2.1a83.6 83.6 0 0 1-15.2-2c0-.4-1.2-1-2.8-1.3-1.5-.4-6-.7-10-.8-4.5 0-7.8.4-8.5 1.1-1 1-.2 2.2 3.5 5.7 3.9 3.7 5.3 4.4 8.6 4.4 2.2 0 8.4.9 13.8 2 5.5 1 16 2.6 23.4 3.5 7.4.9 15.4 2 17.7 2.6a191 191 0 0 0 17.5 1.9c7.3.6 17.8 1.7 23.3 2.5S206 461 209 461s9.1.7 13.5 1.5 13.2 1.7 19.5 2a467 467 0 0 1 24.5 2c7.1.9 21 2 30.7 2.4 9.8.5 18.4 1.3 19 1.9.7.5 10.8 1.4 22.4 2 18 1 21.7 1.4 24.3 3 3 1.8 3.1 2 1.5 3.7-1.6 1.6-4.2 1.7-29.1 1.3-21.8-.3-27.6-.6-28.2-1.7-.7-1-4.6-1.5-15.7-1.7-8.2-.3-20-.8-26.4-1.3a8959 8959 0 0 1-25-2 658 658 0 0 1-27.5-3 410 410 0 0 0-24-2.6c-5.5-.3-11.3-1-13-1.5-1.7-.5-6-1.1-9.5-1.5-3.6-.3-11.7-1-18-1.3a60.4 60.4 0 0 1-13.7-2c-1.3-.7-6.2-1.6-11-2.1-4.9-.5-10-1.4-11.5-2a12 12 0 0 0-5.8-.5c-1.7.4-3 1-3 1.4 0 .5 1.4 2 3 3.4a21 21 0 0 0 6.8 3.5c2 .6 11.1 1.5 20.2 2.1 9.4.6 19.5 2 23.5 3 3.8 1 10.8 2.2 15.5 2.6 4.7.3 9.6 1 10.9 1.6 1.3.4 8.3 1.3 15.5 1.9 7.2.5 15.1 1.4 17.6 2a164 164 0 0 0 17.6 2c7.2.4 16 1.5 19.5 2.3 3.5.8 12.3 2 19.4 2.5a581.7 581.7 0 0 0 53.5 4c14 .7 27.5 1.6 30 2.2 2.5.6 11.7 1.5 20.5 2 8.8.4 17.7 1.1 19.8 1.5 2.4.4 3.7.2 3.7-.5 0-.5-2.6-5-5.8-9.7l-6.7-10.3a351.9 351.9 0 0 0-19-23.1 66 66 0 0 0-7.4-7.2 26 26 0 0 0-10.5-2.2c-4.5-.3-16.7-.8-27.1-1-11.4-.3-21.8-1-26-2-3.9-.8-12.9-1.7-20-2a92.9 92.9 0 0 1-18-2.1c-3.2-1-10.5-1.8-20.5-2-8.5-.4-18.7-1.2-22.5-2a300 300 0 0 0-23-3l-25-2.5c-5-.5-12-1-15.6-1a50 50 0 0 1-11.6-1.5c-2.8-.8-11.7-2-20-2.4-8.1-.5-20-2-26.3-3.1a104 104 0 0 1-13.2-3c-1-.6-3.2-1-4.9-1-2 0-3-.4-2.7-1.2.3-.7 2-1.6 3.9-2 1.9-.5 8.2-.9 14.1-.9 6 0 21.8.5 35.2 1.1 13.4.6 26 1.5 27.8 2.1 1.8.6 12.5 1.4 23.8 2 11.4.4 23.2 1.5 26.5 2.3a152 152 0 0 0 21 2.1c8.3.4 16.6 1 18.5 1.6 2 .5 11.2 1.6 20.5 2.4 9.4.8 17.7 1.8 18.5 2 .8.4 9.8 1.3 20 2 10.2.9 20.8 2 23.5 2.4a210 210 0 0 0 19.5 1.6c11 .4 15.4.3 18.5-.8 4-1.4 4-1.4 6.7-17.3a988.4 988.4 0 0 0 7.3-45c1.4-9.8 3.4-21.3 4.5-25.4a109.7 109.7 0 0 0 4-27.8c0-3.6.6-6.6 1.5-7.8.8-1 1.5-2.2 1.5-2.6 0-.5-.8-.8-1.8-.8s-2.7 1-3.8 2.3m30.2 153.5c-.2.4 0 1.4.5 2.2.7 1.2.9 1 .9-.8 0-1.2-.2-2.2-.4-2.2-.3 0-.7.4-1 .8"/></svg>